<svg width="428" height="319" viewBox="0 0 428 319" fill="none" xmlns="http://www.w3.org/2000/svg">
<path fill-rule="evenodd" clip-rule="evenodd" d="M115.413 132.87H0.65625V79.873L109.424 81.2553L115.413 132.87Z" fill="#A9FF22"/>
<path fill-rule="evenodd" clip-rule="evenodd" d="M40.1629 116.981C31.9989 127.044 16.0024 124.495 11.3692 112.391C6.73606 100.287 16.9411 87.7094 29.7383 89.7504C42.5355 91.7914 48.3226 106.918 40.1586 116.981" fill="#2A4054"/>
<path fill-rule="evenodd" clip-rule="evenodd" d="M52.3391 107.272L105.836 106.717L105.776 109.283L52.3047 108.814L52.3391 107.272Z" fill="#2A4054"/>
<path fill-rule="evenodd" clip-rule="evenodd" d="M52.3391 110.819L93.4219 110.264L93.3616 112.83L52.3047 112.361L52.3391 110.819Z" fill="#2A4054"/>
<path fill-rule="evenodd" clip-rule="evenodd" d="M52.3391 114.364L82.782 113.805L82.7217 116.371L52.3047 115.902L52.3391 114.364Z" fill="#2A4054"/>
<path fill-rule="evenodd" clip-rule="evenodd" d="M58.6509 101.474C58.5131 101.599 58.4485 101.789 58.4744 101.974L58.7715 103.942C58.8404 104.402 58.3495 104.743 57.9404 104.519L56.1965 103.554C56.0286 103.464 55.8391 103.459 55.6712 103.541L53.8885 104.433C53.4709 104.639 52.9929 104.282 53.0833 103.821L53.4666 101.866C53.4967 101.681 53.445 101.496 53.3159 101.362L51.9207 99.9415C51.5935 99.6057 51.7873 99.0416 52.2523 98.9856H52.2954C52.3815 98.8823 52.502 98.8134 52.6484 98.7961L54.4828 98.5722C54.4828 98.5722 54.5043 98.5636 54.5129 98.5507L55.3655 96.9101C55.4171 96.8068 55.4903 96.7336 55.5722 96.6862V96.6776C55.7918 96.2643 56.3946 96.2772 56.5927 96.6992L57.4323 98.5076C57.4711 98.5808 57.5184 98.6454 57.5787 98.6928C57.6562 98.7617 57.751 98.8091 57.85 98.8263L59.3269 99.0717H59.3312L59.8135 99.1535C60.2742 99.231 60.4508 99.8037 60.1106 100.122L58.6552 101.483L58.6509 101.474Z" fill="#2A4054"/>
<path fill-rule="evenodd" clip-rule="evenodd" d="M59.0402 98.9333L57.5762 98.6836C57.6537 98.7525 57.7484 98.7999 57.8474 98.8171L59.3244 99.0625C59.2512 98.9979 59.1521 98.9506 59.0445 98.9333H59.0402Z" fill="#2A4054"/>
<g style="mix-blend-mode:multiply">
<path fill-rule="evenodd" clip-rule="evenodd" d="M59.0402 98.9333L57.5762 98.6836C57.6537 98.7525 57.7484 98.7999 57.8474 98.8171L59.3244 99.0625C59.2512 98.9979 59.1521 98.9506 59.0445 98.9333H59.0402Z" fill="black"/>
</g>
<path fill-rule="evenodd" clip-rule="evenodd" d="M67.8677 101.474C67.7299 101.599 67.6653 101.789 67.6911 101.974L67.9883 103.942C68.0572 104.402 67.5663 104.743 67.1572 104.519L65.4133 103.554C65.2454 103.464 65.0559 103.459 64.888 103.541L63.1053 104.433C62.6877 104.639 62.2097 104.282 62.3001 103.821L62.6834 101.866C62.7135 101.681 62.6618 101.496 62.5327 101.362L61.1375 99.9415C60.8103 99.6057 61.0041 99.0416 61.4691 98.9856H61.5121C61.5983 98.8823 61.7188 98.8134 61.8652 98.7961L63.6996 98.5722C63.6996 98.5722 63.7211 98.5636 63.7297 98.5507L64.5823 96.9101C64.6339 96.8068 64.7071 96.7336 64.789 96.6862V96.6776C65.0086 96.2643 65.6114 96.2772 65.8095 96.6992L66.6491 98.5076C66.6879 98.5808 66.7352 98.6454 66.7955 98.6928C66.873 98.7617 66.9678 98.8091 67.0668 98.8263L68.5437 99.0717H68.548L69.0303 99.1535C69.491 99.231 69.6676 99.8037 69.3274 100.122L67.872 101.483L67.8677 101.474Z" fill="#2A4054"/>
<path fill-rule="evenodd" clip-rule="evenodd" d="M68.257 98.9333L66.793 98.6836C66.8705 98.7525 66.9652 98.7999 67.0642 98.8171L68.5412 99.0625C68.468 98.9979 68.3689 98.9506 68.2613 98.9333H68.257Z" fill="#2A4054"/>
<g style="mix-blend-mode:multiply">
<path fill-rule="evenodd" clip-rule="evenodd" d="M68.257 98.9333L66.793 98.6836C66.8705 98.7525 66.9652 98.7999 67.0642 98.8171L68.5412 99.0625C68.468 98.9979 68.3689 98.9506 68.2613 98.9333H68.257Z" fill="black"/>
</g>
<path fill-rule="evenodd" clip-rule="evenodd" d="M77.5396 101.474C77.4018 101.599 77.3372 101.789 77.363 101.974L77.6601 103.942C77.729 104.402 77.2382 104.743 76.8291 104.519L75.0852 103.554C74.9173 103.464 74.7278 103.459 74.5599 103.541L72.7772 104.433C72.3595 104.639 71.8816 104.282 71.972 103.821L72.3552 101.866C72.3854 101.681 72.3337 101.496 72.2045 101.362L70.8094 99.9415C70.4822 99.6057 70.6759 99.0416 71.141 98.9856H71.184C71.2701 98.8823 71.3907 98.8134 71.5371 98.7961L73.3714 98.5722C73.3714 98.5722 73.393 98.5636 73.4016 98.5507L74.2541 96.9101C74.3058 96.8068 74.379 96.7336 74.4608 96.6862V96.6776C74.6804 96.2643 75.2833 96.2772 75.4813 96.6992L76.321 98.5076C76.3597 98.5808 76.4071 98.6454 76.4674 98.6928C76.5449 98.7617 76.6396 98.8091 76.7387 98.8263L78.2156 99.0717H78.2199L78.7022 99.1535C79.1629 99.231 79.3394 99.8037 78.9993 100.122L77.5439 101.483L77.5396 101.474Z" fill="#2A4054"/>
<path fill-rule="evenodd" clip-rule="evenodd" d="M77.9289 98.9333L76.4648 98.6836C76.5424 98.7525 76.6371 98.7999 76.7361 98.8171L78.2131 99.0625C78.1399 98.9979 78.0408 98.9506 77.9332 98.9333H77.9289Z" fill="#2A4054"/>
<g style="mix-blend-mode:multiply">
<path fill-rule="evenodd" clip-rule="evenodd" d="M77.9289 98.9333L76.4648 98.6836C76.5424 98.7525 76.6371 98.7999 76.7361 98.8171L78.2131 99.0625C78.1399 98.9979 78.0408 98.9506 77.9332 98.9333H77.9289Z" fill="black"/>
</g>
<path fill-rule="evenodd" clip-rule="evenodd" d="M87.2271 101.474C87.0893 101.599 87.0247 101.789 87.0505 101.974L87.3476 103.942C87.4165 104.402 86.9257 104.743 86.5166 104.519L84.7727 103.554C84.6048 103.464 84.4153 103.459 84.2474 103.541L82.4647 104.433C82.047 104.639 81.5691 104.282 81.6595 103.821L82.0427 101.866C82.0729 101.681 82.0212 101.496 81.892 101.362L80.4969 99.9415C80.1697 99.6057 80.3634 99.0416 80.8285 98.9856H80.8715C80.9576 98.8823 81.0782 98.8134 81.2246 98.7961L83.0589 98.5722C83.0589 98.5722 83.0805 98.5636 83.0891 98.5507L83.9417 96.9101C83.9933 96.8068 84.0665 96.7336 84.1483 96.6862V96.6776C84.3679 96.2643 84.9708 96.2772 85.1688 96.6992L86.0085 98.5076C86.0472 98.5808 86.0946 98.6454 86.1549 98.6928C86.2324 98.7617 86.3271 98.8091 86.4262 98.8263L87.9031 99.0717H87.9074L88.3897 99.1535C88.8504 99.231 89.0269 99.8037 88.6868 100.122L87.2314 101.483L87.2271 101.474Z" fill="#2A4054"/>
<path fill-rule="evenodd" clip-rule="evenodd" d="M87.6164 98.9333L86.1523 98.6836C86.2299 98.7525 86.3246 98.7999 86.4236 98.8171L87.9005 99.0625C87.8273 98.9979 87.7283 98.9506 87.6207 98.9333H87.6164Z" fill="#2A4054"/>
<g style="mix-blend-mode:multiply">
<path fill-rule="evenodd" clip-rule="evenodd" d="M87.6164 98.9333L86.1523 98.6836C86.2299 98.7525 86.3246 98.7999 86.4236 98.8171L87.9005 99.0625C87.8273 98.9979 87.7283 98.9506 87.6207 98.9333H87.6164Z" fill="black"/>
</g>
<path fill-rule="evenodd" clip-rule="evenodd" d="M332.432 149.456H427.687V105.463L337.405 106.608L332.432 149.456Z" fill="#2A4054"/>
<path fill-rule="evenodd" clip-rule="evenodd" d="M394.891 136.264C401.669 144.618 414.944 142.499 418.789 132.458C422.634 122.412 414.164 111.97 403.542 113.667C392.919 115.359 388.114 127.915 394.891 136.269" fill="#A9FF22"/>
<path fill-rule="evenodd" clip-rule="evenodd" d="M384.784 128.209L340.381 127.744L340.428 129.876L384.814 129.488L384.784 128.209Z" fill="#A9FF22"/>
<path fill-rule="evenodd" clip-rule="evenodd" d="M384.782 131.144L350.684 130.684L350.731 132.815L384.812 132.423L384.782 131.144Z" fill="#A9FF22"/>
<path fill-rule="evenodd" clip-rule="evenodd" d="M384.785 134.09L359.518 133.629L359.565 135.756L384.815 135.369L384.785 134.09Z" fill="#A9FF22"/>
<path fill-rule="evenodd" clip-rule="evenodd" d="M379.545 123.388C379.661 123.491 379.713 123.646 379.692 123.801L379.446 125.433C379.39 125.817 379.799 126.101 380.135 125.911L381.582 125.11C381.72 125.033 381.879 125.029 382.017 125.097L383.498 125.834C383.847 126.006 384.239 125.709 384.165 125.326L383.847 123.702C383.821 123.547 383.864 123.397 383.972 123.285L385.13 122.105C385.401 121.825 385.242 121.36 384.854 121.313H384.82C384.747 121.226 384.648 121.17 384.527 121.158L383.003 120.968C383.003 120.968 382.986 120.959 382.977 120.951L382.271 119.59C382.228 119.504 382.168 119.444 382.099 119.401V119.392C381.913 119.048 381.418 119.061 381.255 119.409L380.557 120.908C380.527 120.968 380.484 121.024 380.437 121.063C380.372 121.119 380.294 121.158 380.213 121.175L378.99 121.377L378.589 121.446C378.206 121.511 378.06 121.984 378.344 122.251L379.554 123.379L379.545 123.388Z" fill="#A9FF22"/>
<path fill-rule="evenodd" clip-rule="evenodd" d="M378.987 121.389L380.21 121.186C380.296 121.169 380.369 121.135 380.434 121.074L379.215 121.281C379.125 121.298 379.043 121.333 378.982 121.389H378.987Z" fill="#A9FF22"/>
<g style="mix-blend-mode:multiply">
<path fill-rule="evenodd" clip-rule="evenodd" d="M378.987 121.389L380.21 121.186C380.296 121.169 380.369 121.135 380.434 121.074L379.215 121.281C379.125 121.298 379.043 121.333 378.982 121.389H378.987Z" fill="black"/>
</g>
<path fill-rule="evenodd" clip-rule="evenodd" d="M371.895 123.388C372.011 123.491 372.063 123.646 372.041 123.801L371.796 125.433C371.74 125.817 372.149 126.101 372.485 125.911L373.932 125.11C374.069 125.033 374.229 125.029 374.366 125.097L375.848 125.834C376.196 126.006 376.588 125.709 376.515 125.326L376.196 123.702C376.171 123.547 376.214 123.397 376.321 123.285L377.48 122.105C377.751 121.825 377.592 121.36 377.204 121.313H377.17C377.096 121.226 376.997 121.17 376.877 121.158L375.352 120.968C375.352 120.968 375.335 120.959 375.327 120.951L374.62 119.59C374.577 119.504 374.517 119.444 374.448 119.401V119.392C374.263 119.048 373.768 119.061 373.604 119.409L372.907 120.908C372.877 120.968 372.834 121.024 372.786 121.063C372.722 121.119 372.644 121.158 372.562 121.175L371.339 121.377L370.939 121.446C370.556 121.511 370.409 121.984 370.693 122.251L371.903 123.379L371.895 123.388Z" fill="#A9FF22"/>
<path fill-rule="evenodd" clip-rule="evenodd" d="M371.332 121.389L372.555 121.186C372.641 121.169 372.715 121.135 372.779 121.074L371.561 121.281C371.47 121.298 371.388 121.333 371.328 121.389H371.332Z" fill="#A9FF22"/>
<g style="mix-blend-mode:multiply">
<path fill-rule="evenodd" clip-rule="evenodd" d="M371.332 121.389L372.555 121.186C372.641 121.169 372.715 121.135 372.779 121.074L371.561 121.281C371.47 121.298 371.388 121.333 371.328 121.389H371.332Z" fill="black"/>
</g>
<path fill-rule="evenodd" clip-rule="evenodd" d="M363.862 123.388C363.978 123.491 364.03 123.646 364.008 123.801L363.763 125.433C363.707 125.817 364.116 126.101 364.452 125.911L365.898 125.11C366.036 125.033 366.195 125.029 366.333 125.097L367.814 125.834C368.163 126.006 368.555 125.709 368.482 125.326L368.163 123.702C368.137 123.547 368.18 123.397 368.288 123.285L369.446 122.105C369.718 121.825 369.558 121.36 369.171 121.313H369.136C369.063 121.226 368.964 121.17 368.844 121.158L367.319 120.968C367.319 120.968 367.302 120.959 367.293 120.951L366.587 119.59C366.544 119.504 366.484 119.444 366.415 119.401V119.392C366.23 119.048 365.735 119.061 365.571 119.409L364.873 120.908C364.843 120.968 364.8 121.024 364.753 121.063C364.688 121.119 364.611 121.158 364.529 121.175L363.306 121.377L362.906 121.446C362.522 121.511 362.376 121.984 362.66 122.251L363.87 123.379L363.862 123.388Z" fill="#A9FF22"/>
<path fill-rule="evenodd" clip-rule="evenodd" d="M363.299 121.389L364.522 121.186C364.608 121.169 364.681 121.135 364.746 121.074L363.527 121.281C363.437 121.298 363.355 121.333 363.295 121.389H363.299Z" fill="#A9FF22"/>
<g style="mix-blend-mode:multiply">
<path fill-rule="evenodd" clip-rule="evenodd" d="M363.299 121.389L364.522 121.186C364.608 121.169 364.681 121.135 364.746 121.074L363.527 121.281C363.437 121.298 363.355 121.333 363.295 121.389H363.299Z" fill="black"/>
</g>
<path fill-rule="evenodd" clip-rule="evenodd" d="M355.828 123.388C355.945 123.491 355.996 123.646 355.975 123.801L355.729 125.433C355.673 125.817 356.082 126.101 356.418 125.911L357.865 125.11C358.003 125.033 358.162 125.029 358.3 125.097L359.781 125.834C360.13 126.006 360.522 125.709 360.449 125.326L360.13 123.702C360.104 123.547 360.147 123.397 360.255 123.285L361.413 122.105C361.684 121.825 361.525 121.36 361.138 121.313H361.103C361.03 121.226 360.931 121.17 360.81 121.158L359.286 120.968C359.286 120.968 359.269 120.959 359.26 120.951L358.554 119.59C358.511 119.504 358.451 119.444 358.382 119.401V119.392C358.197 119.048 357.701 119.061 357.538 119.409L356.84 120.908C356.81 120.968 356.767 121.024 356.72 121.063C356.655 121.119 356.578 121.158 356.496 121.175L355.273 121.377L354.873 121.446C354.489 121.511 354.343 121.984 354.627 122.251L355.837 123.379L355.828 123.388Z" fill="#A9FF22"/>
<path fill-rule="evenodd" clip-rule="evenodd" d="M355.27 121.389L356.493 121.186C356.579 121.169 356.652 121.135 356.717 121.074L355.498 121.281C355.408 121.298 355.326 121.333 355.266 121.389H355.27Z" fill="#A9FF22"/>
<g style="mix-blend-mode:multiply">
<path fill-rule="evenodd" clip-rule="evenodd" d="M355.27 121.389L356.493 121.186C356.579 121.169 356.652 121.135 356.717 121.074L355.498 121.281C355.408 121.298 355.326 121.333 355.266 121.389H355.27Z" fill="black"/>
</g>
<path d="M246.723 109.313C269.279 109.313 287.564 91.0299 287.564 68.476C287.564 45.9222 269.279 27.6387 246.723 27.6387C224.166 27.6387 205.881 45.9222 205.881 68.476C205.881 91.0299 224.166 109.313 246.723 109.313Z" fill="#2A4054"/>
<path d="M268.814 80.4822C269.873 77.8297 269.33 75.0438 267.298 72.6109C264.146 68.2792 256.774 67.784 248.972 67.2587C248.696 67.2415 248.421 67.2199 248.145 67.2027C248.322 63.491 248.847 59.7104 249.695 56.0116C249.713 56.0159 249.726 56.0202 249.738 56.0245C255.556 57.9622 260.034 61.2261 260.077 61.2562L263.935 56.0288C263.724 55.8738 258.708 52.1966 251.96 49.9144C251.792 49.8585 251.62 49.8025 251.452 49.7465C252.098 47.8218 252.834 45.953 253.648 44.1574C254.492 42.4996 253.752 40.4457 252.042 39.7094C250.397 38.9946 248.481 39.7482 247.766 41.393C247.715 41.5136 247.611 41.7461 247.564 41.8667C246.707 43.9809 245.979 46.1468 245.364 48.3471C238.689 47.4816 232.829 49.0403 228.157 52.9759C226.211 54.5347 223.175 57.7857 224.364 62.2121C226.073 68.572 235.438 72.232 240.937 73.0415C241.57 73.1363 242.229 73.2181 242.909 73.287C243.137 75.7069 243.525 78.1139 244.072 80.4822C240.911 79.2636 237.639 77.0719 235.107 73.2052L229.669 76.7575C232.549 81.1625 236.657 84.5211 241.553 86.4631C241.764 86.5449 241.975 86.6267 242.186 86.7042C243.538 87.2037 244.937 87.5955 246.363 87.8797C246.591 88.4481 246.836 89.0596 246.961 89.361C247.327 90.1403 247.715 91.0317 248.094 91.7938C248.572 92.6894 249.282 94.0803 249.816 94.9242L250.737 96.4528C252.348 98.8684 255.844 96.6897 254.423 94.1836C254.135 93.654 253.541 92.5861 253.248 92.0436C253.037 91.6388 252.387 90.2394 252.189 89.8475C251.99 89.3997 251.788 88.9088 251.594 88.4266C252.692 88.4438 253.795 88.3964 254.897 88.2845C261.838 87.5912 267.169 84.5943 268.818 80.4736L268.814 80.4822ZM241.889 66.6171C239.434 66.2554 236.644 65.2952 234.422 64.0508C231.964 62.6729 230.853 61.3251 230.642 60.5285C230.418 59.6975 231.391 58.7114 232.248 58.0311L232.321 57.9708C235.43 55.3399 239.301 54.2505 243.878 54.7155C243.844 54.8792 243.818 55.0428 243.783 55.2064C243.099 58.9956 242.694 62.858 242.647 66.7204C242.388 66.686 242.139 66.6515 241.889 66.6171ZM249.446 81.7826C248.804 79.1602 248.404 76.4389 248.214 73.7219C248.322 73.7305 248.429 73.7348 248.537 73.7434C251.775 73.963 255.129 74.1869 257.803 74.7208C261.089 75.3753 261.89 76.215 262.058 76.4604L262.157 76.6025L262.269 76.736C262.979 77.5627 262.841 77.9115 262.777 78.0795C262.277 79.3325 259.302 81.3261 254.247 81.8342C253.278 81.929 251.547 82.0237 249.446 81.7869V81.7826Z" fill="#A9FF22"/>
<path d="M200.455 44.3272C201.157 45.5845 200.649 47.1131 199.447 47.8106C198.186 48.6115 197.006 49.5933 195.929 50.6353C193.165 53.3136 191.012 56.6464 189.776 60.2892C189.664 60.6638 189.376 61.5594 189.302 61.9341C189.242 62.1795 189.13 62.6575 189.07 62.9029C188.975 63.4971 188.833 64.1387 188.777 64.7372L188.652 65.874C188.622 66.5328 188.557 67.5145 188.588 68.169L188.596 68.746V69.0345C188.613 69.323 188.691 70.1971 188.708 70.477C188.721 70.8301 188.803 71.2865 188.846 71.631C189.139 73.7926 189.66 75.9412 190.366 78.0511C190.435 77.9349 190.499 77.8186 190.568 77.698C191.998 75.1489 192.915 72.3501 193.027 70.21C193.113 68.5566 194.521 67.282 196.179 67.3681C197.832 67.4543 199.107 68.8623 199.021 70.5201C198.862 73.5816 197.69 77.2674 195.804 80.6304C194.965 82.1245 193.488 84.4282 191.576 86.03C190.797 86.6845 189.944 87.2227 189.031 87.5457C186.267 88.5188 183.098 86.8395 178.434 81.9221C175.696 79.0329 173.422 76.0403 173.327 75.9154C172.328 74.5935 172.591 72.7118 173.909 71.7128C175.231 70.7138 177.108 70.9722 178.111 72.2941C178.146 72.3415 179.937 74.6925 182.142 77.0995C182.594 77.5904 183.011 78.0296 183.399 78.4257C182.912 76.4407 182.559 74.4083 182.374 72.3372C182.344 72.0616 182.301 71.5406 182.279 71.2822C182.267 71.0971 182.236 69.7321 182.223 69.5039C182.206 69.112 182.236 68.4791 182.249 68.0786C182.267 67.6007 182.271 67.127 182.327 66.649C182.447 65.2582 182.641 63.7469 182.968 62.3948C183.007 62.2484 183.132 61.6456 183.166 61.5207C183.253 61.215 183.425 60.6208 183.515 60.3107C184.811 55.979 187.193 51.9658 190.28 48.6804C191.895 46.9667 193.707 45.4165 195.679 44.1205C195.959 43.9396 196.33 43.7028 196.622 43.5392C196.717 43.4789 196.907 43.3798 197.001 43.3239C198.233 42.6435 199.779 43.0914 200.459 44.3185L200.455 44.3272Z" fill="#79CFFF"/>
<path d="M200.455 44.3272C201.157 45.5845 200.649 47.1131 199.447 47.8106C198.186 48.6115 197.006 49.5933 195.929 50.6353C193.165 53.3136 191.012 56.6464 189.776 60.2892C189.664 60.6638 189.376 61.5594 189.302 61.9341C189.242 62.1795 189.13 62.6575 189.07 62.9029C188.975 63.4971 188.833 64.1387 188.777 64.7372L188.652 65.874C188.622 66.5328 188.557 67.5145 188.588 68.169L188.596 68.746V69.0345C188.613 69.323 188.691 70.1971 188.708 70.477C188.721 70.8301 188.803 71.2865 188.846 71.631C189.139 73.7926 189.66 75.9412 190.366 78.0511C190.435 77.9349 190.499 77.8186 190.568 77.698C191.998 75.1489 192.915 72.3501 193.027 70.21C193.113 68.5566 194.521 67.282 196.179 67.3681C197.832 67.4543 199.107 68.8623 199.021 70.5201C198.862 73.5816 197.69 77.2674 195.804 80.6304C194.965 82.1245 193.488 84.4282 191.576 86.03C190.797 86.6845 189.944 87.2227 189.031 87.5457C186.267 88.5188 183.098 86.8395 178.434 81.9221C175.696 79.0329 173.422 76.0403 173.327 75.9154C172.328 74.5935 172.591 72.7118 173.909 71.7128C175.231 70.7138 177.108 70.9722 178.111 72.2941C178.146 72.3415 179.937 74.6925 182.142 77.0995C182.594 77.5904 183.011 78.0296 183.399 78.4257C182.912 76.4407 182.559 74.4083 182.374 72.3372C182.344 72.0616 182.301 71.5406 182.279 71.2822C182.267 71.0971 182.236 69.7321 182.223 69.5039C182.206 69.112 182.236 68.4791 182.249 68.0786C182.267 67.6007 182.271 67.127 182.327 66.649C182.447 65.2582 182.641 63.7469 182.968 62.3948C183.007 62.2484 183.132 61.6456 183.166 61.5207C183.253 61.215 183.425 60.6208 183.515 60.3107C184.811 55.979 187.193 51.9658 190.28 48.6804C191.895 46.9667 193.707 45.4165 195.679 44.1205C195.959 43.9396 196.33 43.7028 196.622 43.5392C196.717 43.4789 196.907 43.3798 197.001 43.3239C198.233 42.6435 199.779 43.0914 200.459 44.3185L200.455 44.3272Z" fill="black" fill-opacity="0.2"/>
<path fill-rule="evenodd" clip-rule="evenodd" d="M293.46 0.200979C296.926 1.21718 298.02 5.49296 295.432 7.89135C292.844 10.2898 288.512 9.0195 287.638 5.6006C286.76 2.1817 289.993 -0.815218 293.46 0.200979Z" fill="#79CFFF"/>
<path fill-rule="evenodd" clip-rule="evenodd" d="M293.46 0.200979C296.926 1.21718 298.02 5.49296 295.432 7.89135C292.844 10.2898 288.512 9.0195 287.638 5.6006C286.76 2.1817 289.993 -0.815218 293.46 0.200979Z" fill="black" fill-opacity="0.2"/>
<path fill-rule="evenodd" clip-rule="evenodd" d="M284.041 29.2705L293.583 17.2871L297.984 21.2443L286.861 32.022L284.041 29.2705Z" fill="#79CFFF"/>
<path fill-rule="evenodd" clip-rule="evenodd" d="M284.041 29.2705L293.583 17.2871L297.984 21.2443L286.861 32.022L284.041 29.2705Z" fill="black" fill-opacity="0.2"/>
<path fill-rule="evenodd" clip-rule="evenodd" d="M285.637 40.3449L308.841 24.3828L311.748 29.0375L287.966 43.7121L285.637 40.3449Z" fill="#79CFFF"/>
<path fill-rule="evenodd" clip-rule="evenodd" d="M285.637 40.3449L308.841 24.3828L311.748 29.0375L287.966 43.7121L285.637 40.3449Z" fill="black" fill-opacity="0.2"/>
<path d="M284.231 105.303C283.99 104.007 284.881 102.832 286.126 102.578C287.456 102.25 288.765 101.747 290.005 101.157C293.187 99.6453 296.033 97.3847 298.169 94.5902C298.376 94.2974 298.888 93.6084 299.06 93.3027C299.185 93.1046 299.422 92.7257 299.547 92.532C299.801 92.0454 300.115 91.533 300.339 91.0292L300.783 90.0819C301.002 89.5178 301.347 88.6911 301.511 88.1098L301.674 87.606L301.756 87.3562C301.825 87.1022 302.019 86.3228 302.083 86.0731C302.174 85.7631 302.238 85.3454 302.299 85.031C302.677 83.0719 302.854 81.0567 302.863 79.0157C302.772 79.0975 302.677 79.1793 302.583 79.2611C300.598 81.0524 298.979 83.2096 298.255 85.031C297.696 86.4391 296.102 87.1323 294.69 86.5726C293.282 86.0128 292.589 84.4196 293.148 83.0073C294.182 80.3979 296.279 77.5474 298.901 75.1834C300.068 74.1328 302.023 72.5697 304.15 71.7387C305.02 71.3985 305.916 71.1832 306.798 71.1703C309.481 71.1358 311.733 73.5213 314.338 79.1535C315.867 82.4604 316.96 85.72 317.003 85.8578C317.486 87.296 316.702 88.8504 315.268 89.3327C313.83 89.8149 312.275 89.0355 311.793 87.5974C311.776 87.5457 310.915 84.9794 309.705 82.2494C309.459 81.6897 309.227 81.1902 309.003 80.7337C308.844 82.5982 308.551 84.467 308.107 86.3099C308.051 86.5553 307.935 87.0204 307.879 87.2529C307.836 87.4165 307.461 88.6093 307.405 88.8116C307.306 89.1561 307.091 89.6944 306.966 90.0388C306.811 90.4479 306.669 90.857 306.48 91.2531C305.967 92.4243 305.356 93.6773 304.68 94.7538C304.607 94.8701 304.318 95.3566 304.253 95.4557C304.09 95.6968 303.767 96.1575 303.599 96.403C301.205 99.7831 297.967 102.56 294.324 104.502C292.421 105.514 290.397 106.328 288.304 106.871C288.012 106.944 287.62 107.043 287.318 107.099C287.219 107.12 287.025 107.155 286.926 107.172C285.66 107.4 284.451 106.561 284.222 105.295L284.231 105.303Z" fill="#79CFFF"/>
<path d="M284.231 105.303C283.99 104.007 284.881 102.832 286.126 102.578C287.456 102.25 288.765 101.747 290.005 101.157C293.187 99.6453 296.033 97.3847 298.169 94.5902C298.376 94.2974 298.888 93.6084 299.06 93.3027C299.185 93.1046 299.422 92.7257 299.547 92.532C299.801 92.0454 300.115 91.533 300.339 91.0292L300.783 90.0819C301.002 89.5178 301.347 88.6911 301.511 88.1098L301.674 87.606L301.756 87.3562C301.825 87.1022 302.019 86.3228 302.083 86.0731C302.174 85.7631 302.238 85.3454 302.299 85.031C302.677 83.0719 302.854 81.0567 302.863 79.0157C302.772 79.0975 302.677 79.1793 302.583 79.2611C300.598 81.0524 298.979 83.2096 298.255 85.031C297.696 86.4391 296.102 87.1323 294.69 86.5726C293.282 86.0128 292.589 84.4196 293.148 83.0073C294.182 80.3979 296.279 77.5474 298.901 75.1834C300.068 74.1328 302.023 72.5697 304.15 71.7387C305.02 71.3985 305.916 71.1832 306.798 71.1703C309.481 71.1358 311.733 73.5213 314.338 79.1535C315.867 82.4604 316.96 85.72 317.003 85.8578C317.486 87.296 316.702 88.8504 315.268 89.3327C313.83 89.8149 312.275 89.0355 311.793 87.5974C311.776 87.5457 310.915 84.9794 309.705 82.2494C309.459 81.6897 309.227 81.1902 309.003 80.7337C308.844 82.5982 308.551 84.467 308.107 86.3099C308.051 86.5553 307.935 87.0204 307.879 87.2529C307.836 87.4165 307.461 88.6093 307.405 88.8116C307.306 89.1561 307.091 89.6944 306.966 90.0388C306.811 90.4479 306.669 90.857 306.48 91.2531C305.967 92.4243 305.356 93.6773 304.68 94.7538C304.607 94.8701 304.318 95.3566 304.253 95.4557C304.09 95.6968 303.767 96.1575 303.599 96.403C301.205 99.7831 297.967 102.56 294.324 104.502C292.421 105.514 290.397 106.328 288.304 106.871C288.012 106.944 287.62 107.043 287.318 107.099C287.219 107.12 287.025 107.155 286.926 107.172C285.66 107.4 284.451 106.561 284.222 105.295L284.231 105.303Z" fill="black" fill-opacity="0.2"/>
<path fill-rule="evenodd" clip-rule="evenodd" d="M30.929 264.768C105.719 330.786 304.376 336.991 363.712 280.85C423.048 224.71 346.643 241.77 322.048 276.639C323.818 192.179 330.548 175.157 265.175 258.158C199.803 341.159 138.426 248.018 124.557 219.805C110.688 191.593 95.0528 206.242 109.555 253.206C33.5944 155.062 -43.8605 198.749 30.929 264.768Z" fill="#A9FF22"/>
<g style="mix-blend-mode:multiply">
<path fill-rule="evenodd" clip-rule="evenodd" d="M30.929 264.768C105.719 330.786 304.376 336.991 363.712 280.85C423.048 224.71 346.643 241.77 322.048 276.639C323.818 192.179 330.548 175.157 265.175 258.158C199.803 341.159 138.426 248.018 124.557 219.805C110.688 191.593 95.0528 206.242 109.555 253.206C33.5944 155.062 -43.8605 198.749 30.929 264.768Z" fill="black"/>
</g>
<path fill-rule="evenodd" clip-rule="evenodd" d="M358.913 228.792C353.138 235.677 344.354 235.647 343.106 228.731C341.853 221.816 349.074 213.209 356.101 213.234C363.128 213.26 364.691 221.907 358.913 228.792Z" fill="#A9FF22"/>
<path fill-rule="evenodd" clip-rule="evenodd" d="M73.2567 188.874C70.1908 192.892 63.9257 192.086 61.9752 187.423C60.0289 182.76 63.8611 177.735 68.8732 178.381C73.8853 179.026 76.3182 184.857 73.2567 188.874Z" fill="#A9FF22"/>
<path fill-rule="evenodd" clip-rule="evenodd" d="M358.913 228.792C353.138 235.677 344.354 235.647 343.106 228.731C341.853 221.816 349.074 213.209 356.101 213.234C363.128 213.26 364.691 221.907 358.913 228.792Z" fill="#A9FF22"/>
<path fill-rule="evenodd" clip-rule="evenodd" d="M73.2567 188.874C70.1908 192.892 63.9257 192.086 61.9752 187.423C60.0289 182.76 63.8611 177.735 68.8732 178.381C73.8853 179.026 76.3182 184.857 73.2567 188.874Z" fill="#A9FF22"/>
<path fill-rule="evenodd" clip-rule="evenodd" d="M251.518 317.889L341.675 295.993C418.816 291.274 351.811 322.905 251.518 317.889Z" fill="#A9FF22"/>
<path d="M418.484 312.223L190.59 312.979L190.601 316.359L418.495 315.603L418.484 312.223Z" fill="#A9FF22"/>
<path fill-rule="evenodd" clip-rule="evenodd" d="M55.4745 313.007H165.693L162.795 280.459L122.638 254.404L148.87 237.796L136.503 218.075L135.922 195.83L122.6 186.172L71.6777 175.648L58.9494 207.547L49.6874 229.029L57.2098 245.956L46.2168 283.714V313.623L55.4745 313.007Z" fill="#2A4054"/>
<path fill-rule="evenodd" clip-rule="evenodd" d="M111.521 179.693C111.78 179.37 112.249 179.315 112.576 179.573C112.886 179.818 112.951 180.262 112.731 180.585L112.701 180.628L99.1761 197.709L124.293 204.168C124.831 204.306 125.033 204.956 124.684 205.374L124.65 205.413L119.001 211.376L128.65 212.018C129.15 212.052 129.473 212.552 129.309 213.013L129.292 213.06L123.621 226.408L135.578 221.719C135.949 221.573 136.362 221.741 136.53 222.098L136.552 222.145C136.698 222.516 136.53 222.929 136.173 223.097L136.125 223.119L122.501 228.458C121.898 228.695 121.304 228.105 121.52 227.506L121.537 227.463L127.496 213.443L117.308 212.767C116.693 212.724 116.391 212.005 116.779 211.54L116.813 211.501L122.682 205.305L97.682 198.876C97.1739 198.747 96.9586 198.149 97.2514 197.722L97.2815 197.684L111.521 179.698V179.693Z" fill="#89D5FF"/>
<path fill-rule="evenodd" clip-rule="evenodd" d="M311.525 111.254C314.66 105.622 318.083 100.149 321.778 94.8653C324.021 91.6833 326.432 87.9285 329.584 85.5301C333.804 82.3007 337.585 87.7606 333.046 89.9695C333.111 89.9394 341.753 85.7454 338.752 94.129C338.752 94.129 345.107 94.142 341.929 97.8192C341.929 97.8192 348.096 98.4393 341.792 102.465C341.792 102.465 318.557 108.132 316.098 112.705L311.525 111.254Z" fill="#231F20"/>
<path fill-rule="evenodd" clip-rule="evenodd" d="M310.437 113.321C311.079 113.795 312.022 113.89 312.711 114.26C313.537 114.704 314.183 115.431 315.066 115.78C316.211 116.237 317.525 115.896 318.304 114.936C320.457 111.991 314.244 108.516 311.699 108.998C311.066 109.089 310.489 109.416 310.088 109.915C309.727 110.505 309.597 111.212 309.727 111.896C309.752 112.374 309.942 112.831 310.265 113.184C310.321 113.235 310.381 113.283 310.446 113.321H310.437Z" fill="#A9FF22"/>
<path fill-rule="evenodd" clip-rule="evenodd" d="M316.948 132.361C316.948 132.361 314.421 129.153 314.076 125.037L311.82 125.442L309.96 123.797C309.96 123.797 307.794 130.518 302.545 132.426C302.541 132.426 309.068 142.282 316.948 132.361Z" fill="#C08F67"/>
<path d="M319.479 124.424C321.192 121.221 318.381 116.38 313.202 113.61C308.022 110.839 302.435 111.189 300.722 114.392C299.009 117.594 301.82 122.435 307 125.206C312.179 127.976 317.766 127.626 319.479 124.424Z" fill="#C08F67"/>
<path fill-rule="evenodd" clip-rule="evenodd" d="M306.488 113.181C306.625 112.789 307.056 112.587 307.448 112.725C307.823 112.858 308.025 113.259 307.917 113.638L307.904 113.685L306.01 118.999L308.615 120.118C308.981 120.273 309.157 120.686 309.028 121.057L309.011 121.104C308.856 121.47 308.443 121.647 308.072 121.518L308.025 121.5L304.774 120.101C304.425 119.95 304.249 119.567 304.348 119.21L304.365 119.162L306.492 113.186L306.488 113.181Z" fill="#231F20"/>
<path fill-rule="evenodd" clip-rule="evenodd" d="M304.971 111.776L307.908 111.853C311.903 112.051 317.536 116.129 318.358 117.92C318.599 118.441 317.983 119.78 317.833 119.931C317.592 120.164 317.243 120.233 316.933 120.112C316.933 120.112 316.39 120 315.538 119.811L315.236 117.559L313.733 119.359C310.569 118.545 305.953 117.154 304.217 115.587C304.131 114.273 304.39 112.956 304.967 111.771L304.971 111.776Z" fill="#231F20"/>
<path fill-rule="evenodd" clip-rule="evenodd" d="M259.406 285.004C259.122 286.438 253.938 286.558 248.163 285.417C242.389 284.272 237.386 282.679 237.657 281.245C237.928 279.811 243.405 279.083 249.175 280.229C254.945 281.374 259.695 283.574 259.406 285.004Z" fill="#231F20"/>
<path fill-rule="evenodd" clip-rule="evenodd" d="M208.057 100.552C208.22 99.7813 212.957 92.9392 213.693 92.0996C215.196 90.3815 216.716 88.6763 218.382 87.1176C219.584 86.0024 221.233 83.914 223.213 85.1067C225.315 86.3641 223.515 89.1844 222.636 90.6442C221.504 92.556 221.134 94.8726 220.337 96.948C219.467 99.1742 227.842 104.109 229.853 105.271C230.452 105.624 231.055 105.986 231.705 106.279C231.705 106.279 227.692 118.822 219.243 120.088L208.057 100.552Z" fill="#C08F67"/>
<path fill-rule="evenodd" clip-rule="evenodd" d="M260.385 111.493C260.402 110.43 259.644 109.198 259.317 108.217C258.887 106.933 258.628 105.62 258.081 104.363C256.966 101.801 255.954 100.948 254.396 98.6402C253.496 97.2838 252.333 94.8811 250.137 95.6002C247.82 96.3581 248.936 99.5014 249.457 101.125C250.24 103.579 250.822 105.797 251.437 108.251C250.968 110.537 238.696 109.069 236.246 107.997C236.246 107.997 237.163 124.924 245.116 128.058L260.385 111.493Z" fill="#C08F67"/>
<path fill-rule="evenodd" clip-rule="evenodd" d="M138.477 163.836C138.477 163.836 169.643 173.886 180.244 190.558C186.397 200.234 165.341 222.345 166.9 231.31" fill="#C08F67"/>
<path d="M144.091 184.059C150.462 175.577 153.893 167.398 151.754 165.791C149.615 164.184 142.716 169.758 136.345 178.241C129.973 186.723 126.543 194.902 128.682 196.509C130.821 198.116 137.72 192.542 144.091 184.059Z" fill="#231F20"/>
<path d="M128.643 101.501C135.262 99.9664 139.872 95.4643 138.941 91.4449C138.009 87.4254 131.888 85.4107 125.269 86.9448C118.651 88.479 114.04 92.9811 114.972 97.0005C115.904 101.02 122.025 103.035 128.643 101.501Z" fill="#C08F67"/>
<path fill-rule="evenodd" clip-rule="evenodd" d="M140.211 89.6425C139.866 90.409 139.026 90.8439 138.204 91.0204C137.89 91.0979 137.571 91.1367 137.248 91.1367C136.43 91.1281 135.646 90.7965 135.069 90.2152C135.177 90.6458 135.052 91.1022 134.733 91.4166C134.527 91.5974 134.286 91.7352 134.023 91.8127C133.627 91.9591 133.205 92.0108 132.787 91.9634C131.81 91.8299 131.185 91.0936 130.544 90.3401C130.29 91.3563 129.678 92.4155 128.662 92.6739C128.115 92.7858 127.543 92.7256 127.03 92.5017C126.625 92.3639 126.251 92.1615 125.911 91.9031C125.773 92.3509 125.558 92.7686 125.278 93.1432C124.864 93.6212 124.257 93.8925 123.624 93.8709C123.004 93.8451 122.479 93.7159 122.121 93.2078C121.988 93.5609 121.76 93.8709 121.463 94.1078C120.614 94.8699 119.361 95.3349 118.319 94.8441C117.277 94.3532 116.894 93.2035 116.562 92.14C119.934 90.8267 123.254 89.2335 126.634 87.9374C128.266 87.2829 129.932 86.7145 131.62 86.2322C132.365 86.0212 133.132 85.8791 133.907 85.8189C134.682 85.7844 141.158 87.5455 140.211 89.6425Z" fill="#231F20"/>
<path fill-rule="evenodd" clip-rule="evenodd" d="M112.859 91.3762C112.803 91.4968 112.768 91.6217 112.751 91.7552C112.639 92.6982 113.621 93.8565 114.602 93.9598C115.136 93.9641 115.666 93.8435 116.144 93.6024C123.348 90.6744 131.275 88.3104 139.039 87.7765C139.964 87.7119 140.305 86.8249 140.201 85.9465C140.063 85.0293 139.374 84.293 138.47 84.0906C137.898 83.9959 137.312 84.0088 136.744 84.1208C132.102 84.7753 127.499 85.6709 122.952 86.8034C120.127 87.5009 117.302 88.3836 114.788 89.8433C114.137 90.2093 113.186 90.6615 112.863 91.3762H112.859Z" fill="#79CFFF"/>
<path fill-rule="evenodd" clip-rule="evenodd" d="M112.859 91.3762C112.803 91.4968 112.768 91.6217 112.751 91.7552C112.639 92.6982 113.621 93.8565 114.602 93.9598C115.136 93.9641 115.666 93.8435 116.144 93.6024C123.348 90.6744 131.275 88.3104 139.039 87.7765C139.964 87.7119 140.305 86.8249 140.201 85.9465C140.063 85.0293 139.374 84.293 138.47 84.0906C137.898 83.9959 137.312 84.0088 136.744 84.1208C132.102 84.7753 127.499 85.6709 122.952 86.8034C120.127 87.5009 117.302 88.3836 114.788 89.8433C114.137 90.2093 113.186 90.6615 112.863 91.3762H112.859Z" fill="black" fill-opacity="0.2"/>
<path fill-rule="evenodd" clip-rule="evenodd" d="M115.009 87.2957C115.026 86.9082 115.065 86.4819 115.344 86.2192C115.495 86.0901 115.667 85.9953 115.857 85.9351C120.641 84.0792 125.558 82.5894 130.57 81.4827C131.358 81.3105 132.181 81.1426 132.973 81.2976C134.867 81.6808 135.922 83.7003 136.426 85.5734C130.57 86.314 125.08 88.7425 119.612 90.9428C118.733 91.2959 116.076 92.6867 115.228 91.9289C114.432 91.2356 114.97 88.2473 115.009 87.2914V87.2957Z" fill="#79CFFF"/>
<path fill-rule="evenodd" clip-rule="evenodd" d="M115.009 87.2957C115.026 86.9082 115.065 86.4819 115.344 86.2192C115.495 86.0901 115.667 85.9953 115.857 85.9351C120.641 84.0792 125.558 82.5894 130.57 81.4827C131.358 81.3105 132.181 81.1426 132.973 81.2976C134.867 81.6808 135.922 83.7003 136.426 85.5734C130.57 86.314 125.08 88.7425 119.612 90.9428C118.733 91.2959 116.076 92.6867 115.228 91.9289C114.432 91.2356 114.97 88.2473 115.009 87.2914V87.2957Z" fill="black" fill-opacity="0.2"/>
<path fill-rule="evenodd" clip-rule="evenodd" d="M115.984 105.145C118.335 103.75 120.333 101.83 121.822 99.5391L130.439 100.585C130.413 103.29 130.766 105.688 131.554 107.789L132.686 117.723L117.194 115.32L113.93 112.345L115.984 105.141V105.145Z" fill="#C08F67"/>
<path fill-rule="evenodd" clip-rule="evenodd" d="M133.755 88.832C134.117 88.6296 134.574 88.7588 134.776 89.1205C135.504 90.4209 135.835 92.027 135.9 93.7063C135.934 94.6062 135.297 95.3856 134.423 95.532L134.354 95.5406C134.087 95.5794 133.755 95.6526 133.385 95.7559L133.131 95.8291C132.886 95.9023 132.627 95.9841 132.36 96.0746C132.076 96.1693 131.796 96.2726 131.521 96.3717L131.159 96.5095L130.793 96.6559C130.41 96.8152 129.971 96.63 129.811 96.2511C129.652 95.8679 129.837 95.4287 130.216 95.2694L130.431 95.1832L130.707 95.0756C131.081 94.9335 131.478 94.7871 131.874 94.6536C132.158 94.5589 132.438 94.4685 132.705 94.3909C133.252 94.2316 133.734 94.1154 134.152 94.0594C134.298 94.0422 134.406 93.913 134.401 93.7666C134.345 92.3069 134.061 90.9118 133.471 89.8611C133.269 89.4994 133.398 89.043 133.76 88.8406L133.755 88.832Z" fill="#231F20"/>
<path fill-rule="evenodd" clip-rule="evenodd" d="M260.633 276.09L253.292 295.988L244.241 294.959L237.291 292.401L242.622 271.539L260.633 276.09Z" fill="#D8D0B2"/>
<path fill-rule="evenodd" clip-rule="evenodd" d="M254.034 292.539C251.003 293.176 242.959 294.111 238.645 287.893C238.602 287.833 238.533 287.79 238.459 287.781C238.386 287.773 238.309 287.794 238.253 287.846L228.151 296.944L218.592 297.87C217.042 298.021 215.707 299.028 215.139 300.479C214.161 302.968 213.214 306.753 215.5 308.527L234.494 312.131L243.803 307.089C244.04 306.96 244.328 306.964 244.561 307.102C244.793 307.24 244.94 307.489 244.94 307.756L245 313.083C245.009 313.75 245.534 314.293 246.202 314.323L252.406 314.654C253.091 314.689 253.677 314.172 253.728 313.487L255.141 293.491C255.166 293.202 255.055 292.918 254.835 292.729C254.615 292.539 254.322 292.466 254.038 292.531L254.034 292.539Z" fill="#79CFFF"/>
<path fill-rule="evenodd" clip-rule="evenodd" d="M254.034 292.539C251.003 293.176 242.959 294.111 238.645 287.893C238.602 287.833 238.533 287.79 238.459 287.781C238.386 287.773 238.309 287.794 238.253 287.846L228.151 296.944L218.592 297.87C217.042 298.021 215.707 299.028 215.139 300.479C214.161 302.968 213.214 306.753 215.5 308.527L234.494 312.131L243.803 307.089C244.04 306.96 244.328 306.964 244.561 307.102C244.793 307.24 244.94 307.489 244.94 307.756L245 313.083C245.009 313.75 245.534 314.293 246.202 314.323L252.406 314.654C253.091 314.689 253.677 314.172 253.728 313.487L255.141 293.491C255.166 293.202 255.055 292.918 254.835 292.729C254.615 292.539 254.322 292.466 254.038 292.531L254.034 292.539Z" fill="black" fill-opacity="0.2"/>
<path fill-rule="evenodd" clip-rule="evenodd" d="M257.685 218.334L277.578 225.676L276.549 234.727L273.991 241.676L253.129 236.35L257.685 218.334Z" fill="#D8D0B2"/>
<path fill-rule="evenodd" clip-rule="evenodd" d="M274.141 224.931C274.774 227.962 275.713 236.01 269.495 240.32C269.43 240.364 269.392 240.428 269.379 240.506C269.37 240.579 269.392 240.656 269.443 240.712L278.542 250.814L279.459 260.373C279.61 261.923 280.617 263.258 282.068 263.826C284.557 264.804 288.342 265.751 290.116 263.465L293.72 244.471L288.682 235.162C288.553 234.925 288.557 234.637 288.695 234.404C288.833 234.172 289.083 234.025 289.35 234.025L294.676 233.965C295.343 233.956 295.886 233.431 295.92 232.764L296.248 226.559C296.287 225.874 295.765 225.284 295.081 225.237L275.084 223.829C274.8 223.807 274.52 223.919 274.331 224.139C274.141 224.354 274.072 224.647 274.133 224.927L274.141 224.931Z" fill="#79CFFF"/>
<path fill-rule="evenodd" clip-rule="evenodd" d="M274.141 224.931C274.774 227.962 275.713 236.01 269.495 240.32C269.43 240.364 269.392 240.428 269.379 240.506C269.37 240.579 269.392 240.656 269.443 240.712L278.542 250.814L279.459 260.373C279.61 261.923 280.617 263.258 282.068 263.826C284.557 264.804 288.342 265.751 290.116 263.465L293.72 244.471L288.682 235.162C288.553 234.925 288.557 234.637 288.695 234.404C288.833 234.172 289.083 234.025 289.35 234.025L294.676 233.965C295.343 233.956 295.886 233.431 295.92 232.764L296.248 226.559C296.287 225.874 295.765 225.284 295.081 225.237L275.084 223.829C274.8 223.807 274.52 223.919 274.331 224.139C274.141 224.354 274.072 224.647 274.133 224.927L274.141 224.931Z" fill="black" fill-opacity="0.2"/>
<path fill-rule="evenodd" clip-rule="evenodd" d="M126.738 189.807C127.461 191.926 135.251 195.853 137.128 197.183C145.576 203.19 161.594 211.638 164.402 219.944C166.163 225.124 167.915 230.309 169.663 235.493C175.515 252.807 181.556 270.668 187.46 288.133L187.542 288.374L205.949 281.213L204.038 275.004C197.114 252.669 192.33 227.6 183.92 205.95C182.319 201.829 179.976 198.018 177.259 194.539C173.203 189.338 168.333 184.842 163.489 180.373L155.889 173.363C154.89 172.441 143.316 163.42 143.044 163.847L129.158 185.639C128.667 186.41 126.665 188.588 126.682 189.519C126.682 189.618 126.703 189.717 126.738 189.811V189.807Z" fill="#C08F67"/>
<path fill-rule="evenodd" clip-rule="evenodd" d="M172.238 222.067C161.818 239.893 162.175 244.285 151.604 262.09C150.704 263.593 140.353 281.536 138.708 282.001C137.468 282.358 134.333 280.649 133.188 280.149C129.381 278.491 125.807 276.11 123.107 272.945C125.734 265.531 128.877 258.31 132.52 251.338C138.596 239.708 142.114 226.687 148.594 214.902C149.52 213.209 156.297 199.43 157.882 199.637C165.826 200.692 171.381 214.109 172.242 222.067H172.238Z" fill="#C08F67"/>
<path fill-rule="evenodd" clip-rule="evenodd" d="M185.32 291.728C181.466 291.185 181.26 287.116 185.126 284.882C189.239 282.509 202.875 275.43 204.232 275.09C205.592 274.75 208.676 271.124 207.883 278.393C207.702 280.063 210.131 281.966 209.27 285.101C209.244 285.183 209.27 285.269 209.343 285.316C209.412 285.368 209.502 285.368 209.571 285.321C210.906 284.305 214.454 282.225 217.826 285.532C217.873 285.579 217.938 285.596 217.998 285.588C218.48 285.48 218.967 285.364 219.449 285.265C221.783 284.765 222.123 285.14 224.521 285.084C225.593 285.058 226.747 285.084 227.781 285.437C228.982 285.859 229.365 286.776 230.067 287.766C230.369 288.171 230.649 288.576 230.916 288.994C231.561 290.01 231.816 290.854 230.774 291.629C228.801 293.097 228.112 293.011 225.873 293.924C216.224 297.877 197.416 305.15 194.664 306.235C192.042 307.255 189.936 304.534 189.79 304.254C189.79 304.254 185.35 291.728 185.32 291.724V291.728Z" fill="#2A4054"/>
<path fill-rule="evenodd" clip-rule="evenodd" d="M183.579 204.321C183.954 204.14 184.402 204.299 184.582 204.674C185.224 206.009 184.298 207.628 182.882 208.149C182.016 208.467 181.241 208.459 179.962 208.222L179.691 208.17L179.402 208.11C178.998 208.024 178.735 207.628 178.821 207.223C178.907 206.818 179.303 206.556 179.708 206.642L179.954 206.693L180.186 206.736L180.401 206.775C180.47 206.788 180.539 206.797 180.604 206.81L180.793 206.835L180.974 206.857C181.555 206.922 181.964 206.883 182.361 206.736C182.998 206.504 183.411 205.811 183.243 205.363L183.226 205.32C183.045 204.945 183.204 204.497 183.579 204.316V204.321Z" fill="#231F20"/>
<path fill-rule="evenodd" clip-rule="evenodd" d="M161.77 177.79C161.822 177.726 161.917 177.713 161.981 177.764L162.571 178.234C162.959 178.544 163.342 178.854 163.712 179.155L164.259 179.607L164.793 180.051C165.671 180.787 166.489 181.498 167.256 182.191C169.9 184.576 171.855 186.669 173.392 188.693L173.667 189.059L173.805 189.248L174.003 189.524L174.132 189.705L174.318 189.972L174.498 190.239L174.679 190.506L174.8 190.686L174.981 190.966L175.162 191.259L175.351 191.565L175.545 191.892L175.82 192.361L176.117 192.878L176.531 193.601L177.03 194.484C178.395 196.87 179.476 198.428 181.216 200.327C181.272 200.388 181.267 200.482 181.207 200.538C181.147 200.594 181.052 200.59 180.996 200.53C179.506 198.906 178.494 197.524 177.379 195.677L177.138 195.272L176.893 194.855L175.855 193.037L175.558 192.525L175.351 192.172L175.088 191.737L174.964 191.53L174.722 191.138L174.546 190.859L174.369 190.587L174.253 190.411L174.072 190.148L173.952 189.972L173.762 189.705L173.564 189.433L173.357 189.149L173.284 189.054C171.997 187.336 170.412 185.571 168.35 183.62L167.932 183.229C167.648 182.966 167.359 182.699 167.058 182.428C166.675 182.083 166.283 181.734 165.874 181.377L165.374 180.946C164.87 180.516 164.345 180.072 163.798 179.624L163.243 179.172C162.773 178.793 162.291 178.406 161.796 178.014C161.731 177.962 161.718 177.868 161.77 177.803V177.79Z" fill="#231F20"/>
<path fill-rule="evenodd" clip-rule="evenodd" d="M360.576 227.64C361.528 229.401 368.831 228.114 377.649 223.364C386.468 218.615 394.068 214.356 393.121 212.595C392.173 210.834 383.027 212.234 374.205 216.983C365.382 221.732 359.629 225.879 360.576 227.64Z" fill="#231F20"/>
<path fill-rule="evenodd" clip-rule="evenodd" d="M380.155 206.787C380.155 206.787 389.042 227.955 391.815 230.263C394.588 232.571 391.66 236.567 388.581 233.036L388.159 232.592C388.159 232.592 394.889 238.896 392.121 240.89C392.121 240.89 391.044 242.277 388.271 240.89L383.496 233.807C384.637 235.361 385.713 236.967 386.743 238.612C388.133 240.821 392.835 245.993 388.215 247.581C385.709 248.443 383.944 243.68 382.923 242.044C381.472 239.714 380.043 237.368 378.566 235.051C380.068 237.415 381.989 239.43 383.225 242.01C383.806 243.211 384.745 245.131 384.125 246.496C383.41 248.046 381.606 248.137 380.318 247.177C377.804 245.295 375.086 239.818 373.799 236.748C373.799 236.748 377.799 247.375 372.723 245.838C367.646 244.3 364.791 219.856 364.791 219.856L380.15 206.791L380.155 206.787Z" fill="#C08F67"/>
<path fill-rule="evenodd" clip-rule="evenodd" d="M384.012 234.858C384.072 234.819 384.154 234.828 384.201 234.88L384.219 234.901L387.293 239.642C387.336 239.711 387.319 239.806 387.25 239.849C387.19 239.887 387.108 239.879 387.06 239.827L387.043 239.806L383.969 235.065C383.926 234.996 383.943 234.901 384.012 234.858Z" fill="#231F20"/>
<path fill-rule="evenodd" clip-rule="evenodd" d="M380.473 238.135C380.533 238.097 380.615 238.105 380.662 238.157L380.679 238.178L383.754 242.919C383.797 242.988 383.78 243.083 383.711 243.126C383.651 243.165 383.569 243.156 383.521 243.104L383.504 243.083L380.43 238.342C380.387 238.273 380.404 238.178 380.473 238.135Z" fill="#231F20"/>
<path fill-rule="evenodd" clip-rule="evenodd" d="M371.47 244.34C371.776 244.753 372.163 245.106 372.607 245.369C374.708 246.497 375.087 243.496 373.614 242.665C373.145 242.445 372.628 242.355 372.112 242.411C371.789 242.411 371.474 242.518 371.212 242.712C370.669 243.164 371.126 243.913 371.47 244.34Z" fill="#C699FF"/>
<path fill-rule="evenodd" clip-rule="evenodd" d="M382.306 247.211C381.573 247.353 380.656 246.703 380.157 246.148C380.028 246.036 379.959 245.868 379.963 245.696C380.002 245.566 380.084 245.45 380.196 245.373L380.984 244.662C381.483 244.21 382.047 243.736 382.723 243.736C382.938 243.719 383.145 243.81 383.274 243.978C383.326 244.077 383.356 244.184 383.365 244.296C383.438 244.856 383.765 245.76 383.507 246.294C383.266 246.764 382.827 247.099 382.31 247.211H382.306Z" fill="#C699FF"/>
<path fill-rule="evenodd" clip-rule="evenodd" d="M388.103 247.044C387.392 247.135 386.682 246.893 386.174 246.39C386.049 246.273 385.945 246.136 385.872 245.976C385.799 245.778 385.769 245.567 385.782 245.356C385.76 245.089 385.816 244.822 385.937 244.585C386.152 244.297 386.479 244.112 386.837 244.073C387.194 244.039 387.547 243.961 387.883 243.841C388.202 243.698 388.482 243.427 388.83 243.436C389.158 243.466 389.438 243.685 389.55 243.991C390.062 245.18 389.463 246.807 388.098 247.04L388.103 247.044Z" fill="#C699FF"/>
<path fill-rule="evenodd" clip-rule="evenodd" d="M391.56 240.736C391.285 240.878 390.988 240.965 390.678 240.986C390.338 241.051 389.989 241.051 389.653 240.986C389.222 240.84 388.839 240.586 388.533 240.245C388.434 240.168 388.357 240.065 388.309 239.944C388.292 239.841 388.309 239.737 388.348 239.643C388.555 239.139 389.115 238.893 389.618 238.691L390.953 238.166C391.181 238.054 391.436 238.002 391.69 238.011C393.059 238.174 392.288 240.293 391.56 240.732V240.736Z" fill="#C699FF"/>
<path fill-rule="evenodd" clip-rule="evenodd" d="M390.391 233.8C390.236 233.761 390.089 233.688 389.969 233.58C389.84 233.43 389.749 233.244 389.715 233.046C389.633 232.797 389.611 232.53 389.655 232.271C389.741 231.948 389.96 231.677 390.253 231.522C390.546 231.371 390.864 231.268 391.192 231.221C392.234 231.01 392.466 231.841 392.29 232.723C392.225 233.025 392.1 233.58 391.838 233.761C391.485 234.011 390.77 233.929 390.391 233.804V233.8Z" fill="#C699FF"/>
<path fill-rule="evenodd" clip-rule="evenodd" d="M238.224 120.734C238.224 120.734 244.197 116.489 259 110.008C259 110.008 265.726 106.344 268.168 120.704C268.168 120.704 276.952 123.154 272.56 138.961C272.56 138.961 272.258 135.06 281.731 137.794C281.731 137.794 286.924 130.767 291.816 135.654C291.816 135.654 297.314 127.71 304.346 132.903C304.346 132.903 308.928 136.571 315.042 131.073C315.042 131.073 328.485 126.793 326.961 134.13C326.961 134.13 341.321 133.531 337.041 139.934C337.041 139.934 361.796 147.577 354.157 153.076C354.157 153.076 374.02 164.383 366.381 167.742C366.381 167.742 382.593 179.049 375.549 181.801C375.549 181.801 393.565 196.165 383.799 196.471C383.799 196.471 396.824 207.516 393.16 212.704C393.147 212.67 393.134 212.631 393.117 212.601C392.17 210.84 383.024 212.239 374.201 216.989C365.378 221.738 359.617 225.885 360.568 227.646C360.568 227.646 354.458 226.729 354.153 212.364C354.153 212.364 347.125 211.141 348.344 197.393C348.344 197.393 342.234 198.921 341.928 181.504C341.928 181.504 336.735 182.102 337.037 166.226C337.037 166.226 333.252 164.405 330.806 161.296C331.839 164.314 332.546 172.16 330.38 173.994L295.235 171.893C295.235 171.893 293.03 161.326 295.17 155.823C295.17 155.823 292.117 164.073 286.003 160.409C286.003 160.409 280.81 168.965 276.224 163.466C276.224 163.466 265.416 172.259 258.703 164.314C258.703 164.314 242.453 164.874 244.894 149.903C244.894 149.903 238.801 144.176 242.16 136.227C242.164 136.236 232.11 126.543 238.22 120.743L238.224 120.734Z" fill="#79CFFF"/>
<path fill-rule="evenodd" clip-rule="evenodd" d="M238.224 120.734C238.224 120.734 244.197 116.489 259 110.008C259 110.008 265.726 106.344 268.168 120.704C268.168 120.704 276.952 123.154 272.56 138.961C272.56 138.961 272.258 135.06 281.731 137.794C281.731 137.794 286.924 130.767 291.816 135.654C291.816 135.654 297.314 127.71 304.346 132.903C304.346 132.903 308.928 136.571 315.042 131.073C315.042 131.073 328.485 126.793 326.961 134.13C326.961 134.13 341.321 133.531 337.041 139.934C337.041 139.934 361.796 147.577 354.157 153.076C354.157 153.076 374.02 164.383 366.381 167.742C366.381 167.742 382.593 179.049 375.549 181.801C375.549 181.801 393.565 196.165 383.799 196.471C383.799 196.471 396.824 207.516 393.16 212.704C393.147 212.67 393.134 212.631 393.117 212.601C392.17 210.84 383.024 212.239 374.201 216.989C365.378 221.738 359.617 225.885 360.568 227.646C360.568 227.646 354.458 226.729 354.153 212.364C354.153 212.364 347.125 211.141 348.344 197.393C348.344 197.393 342.234 198.921 341.928 181.504C341.928 181.504 336.735 182.102 337.037 166.226C337.037 166.226 333.252 164.405 330.806 161.296C331.839 164.314 332.546 172.16 330.38 173.994L295.235 171.893C295.235 171.893 293.03 161.326 295.17 155.823C295.17 155.823 292.117 164.073 286.003 160.409C286.003 160.409 280.81 168.965 276.224 163.466C276.224 163.466 265.416 172.259 258.703 164.314C258.703 164.314 242.453 164.874 244.894 149.903C244.894 149.903 238.801 144.176 242.16 136.227C242.164 136.236 232.11 126.543 238.22 120.743L238.224 120.734Z" fill="black" fill-opacity="0.2"/>
<path fill-rule="evenodd" clip-rule="evenodd" d="M136.357 178.235C142.307 170.312 148.715 164.93 151.277 165.563C144.62 156.856 129.037 151.806 129.037 151.806L109.371 148.008L101.225 184.018L128.477 196.281C126.823 194.262 130.229 186.391 136.357 178.235Z" fill="#79CFFF"/>
<path fill-rule="evenodd" clip-rule="evenodd" d="M136.357 178.235C142.307 170.312 148.715 164.93 151.277 165.563C144.62 156.856 129.037 151.806 129.037 151.806L109.371 148.008L101.225 184.018L128.477 196.281C126.823 194.262 130.229 186.391 136.357 178.235Z" fill="black" fill-opacity="0.2"/>
<path fill-rule="evenodd" clip-rule="evenodd" d="M119.338 156.879C124.032 169.189 119.937 188.575 119.937 188.575C95.871 203.249 64.3516 168.156 64.3516 168.156C51.985 154.45 61.7164 138.979 73.1658 128.636C86.2774 116.778 98.6526 108.106 116.341 105.285L118.8 112.42L129.139 112.851L130.805 106.418C130.805 106.418 156.955 123.133 171.961 122.281C171.961 122.281 185.684 104.265 207.989 97.4141C217.552 105.285 223.494 115.322 226.004 127.439C217.173 134.036 207.623 139.625 197.542 144.09C189.783 147.522 181.498 150.355 172.994 151.04C158.961 152.172 150.315 144.611 138.138 140.585C136.657 143.634 138.633 149.498 136.428 151.694C134.172 153.951 130.185 154.924 129.052 151.806C124.182 157.318 117.065 155.561 115.243 151.595C115.243 154.252 113.443 155.436 109.844 155.152C116.169 156.302 119.334 156.879 119.334 156.879H119.338Z" fill="#C699FF"/>
<path fill-rule="evenodd" clip-rule="evenodd" d="M133.196 184.684C133.906 183.905 133.859 182.686 133.48 181.731C133.205 181.029 126.875 182.079 125.152 181.881C125.14 181.881 125.127 181.868 125.127 181.855C125.127 181.842 125.14 181.83 125.152 181.83C128.627 181.916 137.209 180.167 139.564 179.268C139.999 179.13 140.395 178.889 140.714 178.561C141.377 177.786 141.102 176.641 140.753 175.707C140.697 175.5 140.581 175.315 140.426 175.168C140.275 175.069 140.103 175.009 139.926 174.983C139.026 174.789 136.895 175.086 134.737 175.285C133.945 175.362 139.84 174.152 142.398 173.287C142.802 173.179 143.177 172.981 143.496 172.705C143.918 172.206 144.068 171.534 143.9 170.905C143.53 169.05 143.547 168.804 141.73 168.761C140.83 168.735 136.74 169.441 134.544 169.829C132.524 170.182 139.978 169.153 140.942 167.728C141.261 167.25 141.334 166.651 141.14 166.109C140.727 165.011 140.826 164.128 139.663 163.947C136.701 163.478 126.664 165.342 123.68 165.794C126.156 165.562 129.605 163.826 131.616 162.625C133.067 161.755 132.968 159.155 130.974 159.073C130.63 159.06 130.281 159.099 129.949 159.18C128.042 159.654 126.113 160.644 124.171 160.907C122.478 161.135 120.386 161.161 118.788 161.962C116.657 163.03 114.155 164.395 112.403 165.975C111.572 166.78 110.904 167.741 110.448 168.804C108.583 172.774 108.303 177.304 109.668 181.472C109.94 182.282 110.288 183.1 110.921 183.685C111.554 184.271 131.142 186.919 133.183 184.693L133.196 184.684Z" fill="#C08F67"/>
<path fill-rule="evenodd" clip-rule="evenodd" d="M129.219 161.57C129.292 161.721 129.387 161.858 129.499 161.983C129.589 162.074 129.701 162.138 129.822 162.177C130.545 162.474 131.381 162.268 131.884 161.669C132.035 161.505 132.113 161.29 132.1 161.07C132.087 160.894 132.048 160.722 131.988 160.558C131.906 160.231 131.759 159.925 131.557 159.658C131.376 159.447 131.096 159.348 130.821 159.404C130.283 159.426 129.749 159.525 129.241 159.706C129.103 159.761 128.616 159.873 128.608 160.149C128.599 160.425 129.081 161.303 129.219 161.57Z" fill="#FFCA99"/>
<path fill-rule="evenodd" clip-rule="evenodd" d="M139.737 167.575C139.953 167.459 140.146 167.308 140.319 167.132C140.547 166.852 140.646 166.49 140.59 166.137C140.525 165.801 140.413 165.478 140.254 165.177C140.164 164.931 140 164.725 139.789 164.578C139.509 164.458 139.208 164.415 138.906 164.453L138.006 164.483C137.912 164.479 137.821 164.501 137.735 164.539C137.692 164.565 137.653 164.604 137.623 164.647C137.171 165.246 137.27 165.969 137.391 166.632C137.447 166.955 137.503 167.282 137.58 167.605C137.653 167.928 137.856 168.346 138.338 168.23C138.837 168.079 139.311 167.859 139.746 167.579L139.737 167.575Z" fill="#FFCA99"/>
<path fill-rule="evenodd" clip-rule="evenodd" d="M142.501 172.88C143.091 172.557 143.41 171.894 143.293 171.227C143.237 170.839 143.138 170.465 142.992 170.103C142.957 169.987 142.906 169.875 142.841 169.771C142.656 169.539 142.398 169.38 142.109 169.319C141.803 169.225 141.476 169.203 141.158 169.259C140.839 169.319 140.559 169.513 140.4 169.797C140.305 170.013 140.258 170.245 140.262 170.482C140.236 170.783 140.232 171.08 140.24 171.382C140.266 171.856 140.348 172.708 140.753 173.048C141.153 173.388 142.066 173.143 142.505 172.885L142.501 172.88Z" fill="#FFCA99"/>
<path fill-rule="evenodd" clip-rule="evenodd" d="M139.486 178.663C139.861 178.439 140.14 178.095 140.283 177.682C140.394 177.212 140.36 176.721 140.192 176.269C140.076 175.882 139.878 175.455 139.473 175.352C139.292 175.318 139.107 175.318 138.93 175.352L138.332 175.438C138.164 175.447 138 175.503 137.867 175.61C137.781 175.714 137.721 175.839 137.703 175.972C137.475 176.846 137.497 177.768 137.768 178.633C138.043 179.369 138.952 178.986 139.49 178.668L139.486 178.663Z" fill="#FFCA99"/>
<path fill-rule="evenodd" clip-rule="evenodd" d="M133 182.355C132.97 182.221 132.905 182.097 132.815 181.993C132.613 181.83 132.359 181.744 132.1 181.756C131.39 181.7 130.856 181.916 130.899 182.674C130.903 183.242 131.149 183.78 131.571 184.155C131.932 184.456 132.471 184.607 132.867 184.258C133.457 183.737 133.198 182.975 133 182.351V182.355Z" fill="#FFCA99"/>
<path fill-rule="evenodd" clip-rule="evenodd" d="M134.334 175.202C134.416 175.185 134.493 175.241 134.511 175.323C134.524 175.396 134.485 175.465 134.416 175.491L134.39 175.499L129.675 176.404C129.593 176.421 129.516 176.365 129.499 176.283C129.486 176.21 129.524 176.141 129.593 176.115L129.619 176.107L134.334 175.202Z" fill="#231F20"/>
<path fill-rule="evenodd" clip-rule="evenodd" d="M135.821 169.456C135.902 169.439 135.98 169.495 135.997 169.577C136.01 169.65 135.971 169.719 135.902 169.745L135.877 169.753L129.056 171.028C128.974 171.045 128.897 170.989 128.879 170.907C128.867 170.834 128.905 170.765 128.974 170.739L129 170.731L135.821 169.456Z" fill="#231F20"/>
<path fill-rule="evenodd" clip-rule="evenodd" d="M93.3391 135.577C86.5228 156.022 119.338 156.896 119.338 156.896C124.032 169.207 119.937 188.592 119.937 188.592C95.8709 203.267 64.3516 168.173 64.3516 168.173C51.985 154.45 61.7164 138.979 73.1658 128.641L93.3348 135.577H93.3391Z" fill="#C699FF"/>
<path fill-rule="evenodd" clip-rule="evenodd" d="M140.843 175.115C140.925 175.093 141.007 175.14 141.028 175.218C141.235 175.971 141.355 176.742 141.385 177.513C141.416 177.797 141.377 178.09 141.252 178.374C141.045 178.697 140.735 178.947 140.386 179.072C139.65 179.421 138.892 179.713 138.109 179.942C138.031 179.963 137.945 179.92 137.923 179.838C137.902 179.761 137.945 179.675 138.027 179.653C138.793 179.429 139.538 179.141 140.275 178.796C140.576 178.688 140.83 178.482 140.989 178.236C141.08 178.017 141.114 177.78 141.088 177.535C141.058 176.777 140.942 176.027 140.744 175.3C140.722 175.218 140.77 175.136 140.847 175.115H140.843Z" fill="#231F20"/>
<path fill-rule="evenodd" clip-rule="evenodd" d="M133.708 182.776C133.789 182.759 133.867 182.806 133.888 182.888C134.125 183.904 133.54 184.933 132.541 185.247C132.463 185.273 132.377 185.23 132.351 185.148C132.325 185.071 132.368 184.985 132.45 184.959C133.299 184.692 133.798 183.818 133.596 182.952C133.578 182.871 133.626 182.793 133.708 182.771V182.776Z" fill="#231F20"/>
<path fill-rule="evenodd" clip-rule="evenodd" d="M143.926 170.095C144.008 170.083 144.086 170.143 144.094 170.225C144.189 170.939 144.137 171.667 143.939 172.365C143.724 173.092 143.168 173.669 142.449 173.919C142.372 173.945 142.286 173.906 142.26 173.824C142.234 173.747 142.273 173.661 142.355 173.635C142.979 173.42 143.466 172.912 143.651 172.279C143.836 171.624 143.888 170.935 143.797 170.263C143.784 170.182 143.844 170.104 143.926 170.095Z" fill="#231F20"/>
<path fill-rule="evenodd" clip-rule="evenodd" d="M285.42 202.854H340.196C341.229 202.854 342.069 203.693 342.069 204.727C342.069 205.76 341.229 206.6 340.196 206.6H285.42C284.387 206.6 283.547 205.76 283.547 204.727C283.547 203.693 284.387 202.854 285.42 202.854Z" fill="#231F20"/>
<path fill-rule="evenodd" clip-rule="evenodd" d="M340.584 313.748L318.301 206.113C318.275 205.993 318.301 205.868 318.366 205.764C318.434 205.661 318.538 205.592 318.658 205.566L318.852 205.523C319.102 205.472 319.347 205.635 319.403 205.885L341.686 313.52C341.712 313.641 341.686 313.765 341.622 313.869C341.553 313.972 341.45 314.045 341.329 314.067L341.14 314.106C341.019 314.131 340.894 314.106 340.791 314.041C340.687 313.972 340.614 313.869 340.593 313.748H340.584Z" fill="#231F20"/>
<path fill-rule="evenodd" clip-rule="evenodd" d="M280.836 313.748L303.12 206.113C303.145 205.993 303.12 205.868 303.055 205.764C302.99 205.661 302.883 205.592 302.762 205.566L302.573 205.523C302.323 205.472 302.078 205.635 302.022 205.885L279.738 313.52C279.713 313.641 279.738 313.765 279.803 313.869C279.872 313.972 279.975 314.045 280.096 314.067L280.285 314.106C280.406 314.131 280.531 314.106 280.634 314.041C280.737 313.972 280.811 313.869 280.832 313.748H280.836Z" fill="#231F20"/>
<path fill-rule="evenodd" clip-rule="evenodd" d="M321.49 169.374C296.27 167.247 259.558 169.219 243.389 192.458C238.86 198.968 243.501 213.875 248.492 225.786C237.24 254.807 237.684 281.242 237.684 281.242C237.985 279.816 243.454 279.106 249.202 280.243C254.951 281.379 259.709 283.588 259.412 285.018V285.061C270.461 270.782 285.975 207.856 285.975 207.856C293.45 208.454 299.702 206.185 307.19 205.922C312.861 205.729 318.601 205.324 324.155 204.088C330.963 202.568 335.583 199.166 336.255 191.864C337.706 176.039 336.69 170.64 321.49 169.369V169.374Z" fill="#2A4054"/>
<path fill-rule="evenodd" clip-rule="evenodd" d="M248.182 186.473C248.243 186.413 248.337 186.413 248.393 186.473C248.454 186.533 248.454 186.628 248.393 186.684C246.598 188.484 244.961 190.443 243.506 192.531C240.281 197.169 241.469 206.452 245.926 218.815C245.956 218.892 245.913 218.978 245.836 219.008C245.758 219.039 245.672 218.996 245.642 218.918C241.155 206.461 239.954 197.113 243.256 192.359C244.72 190.258 246.365 188.286 248.178 186.473H248.182Z" fill="#231F20"/>
<path fill-rule="evenodd" clip-rule="evenodd" d="M285.999 181.564C286.081 181.546 286.159 181.602 286.176 181.684C286.193 181.766 286.137 181.844 286.055 181.861C281.818 182.688 278.046 184.216 274.735 186.244C272.927 187.351 271.368 188.539 270.067 189.723C269.663 190.094 269.31 190.438 269.008 190.753L268.832 190.938L268.711 191.067L268.556 191.243L268.509 191.295C263.238 197.707 258.661 204.661 254.85 212.032C254.812 212.106 254.721 212.136 254.648 212.097C254.575 212.058 254.545 211.968 254.583 211.895C258.321 204.665 262.79 197.844 267.927 191.532L268.289 191.088L268.38 190.985L268.487 190.864L268.612 190.731C268.634 190.709 268.655 190.684 268.681 190.658C269.013 190.309 269.409 189.917 269.869 189.5C271.183 188.302 272.759 187.105 274.584 185.986C277.926 183.941 281.732 182.399 286.004 181.564H285.999Z" fill="white"/>
<path fill-rule="evenodd" clip-rule="evenodd" d="M66.5151 189.02C66.7648 188.714 67.2083 188.654 67.5269 188.882L67.57 188.917L81.8484 200.573C82.2575 200.904 82.2015 201.537 81.758 201.8L81.7106 201.826L72.0482 206.653L90.6153 213.185C91.231 213.4 91.2913 214.24 90.7358 214.546L90.6885 214.571L65.1242 226.624L74.1839 246.564C74.4466 247.141 73.9212 247.757 73.3184 247.602L73.2753 247.589L59.0357 243.09C58.6395 242.965 58.4199 242.543 58.5448 242.147C58.6654 241.768 59.0572 241.548 59.4404 241.643L59.4878 241.656L72.1214 245.647L63.4492 226.568C63.2856 226.21 63.4277 225.788 63.7679 225.603L63.8152 225.582L88.3934 213.994L69.8823 207.48C69.2751 207.264 69.2062 206.442 69.7488 206.128L69.7962 206.102L80.0012 200.999L66.6227 190.079C66.317 189.83 66.2567 189.386 66.4849 189.067L66.5194 189.024L66.5151 189.02Z" fill="#89D5FF"/>
<path fill-rule="evenodd" clip-rule="evenodd" d="M51.0573 270.541C51.3631 270.291 51.8109 270.325 52.0779 270.61L52.1123 270.648L68.0916 290.249C68.3241 290.533 68.3155 290.942 68.0786 291.213L68.0399 291.252L60.8792 298.413L74.3481 300.097C75.0629 300.187 75.248 301.126 74.6409 301.487L74.5978 301.513L55.6044 311.257C55.2341 311.447 54.782 311.301 54.5925 310.93C54.4117 310.577 54.5365 310.147 54.8724 309.944L54.9155 309.918L71.743 301.285L59.1654 299.713C58.5626 299.636 58.2999 298.921 58.6917 298.473L58.7262 298.439L66.4898 290.675L50.9411 271.6C50.6913 271.294 50.7258 270.846 51.01 270.579L51.0487 270.545L51.0573 270.541Z" fill="#89D5FF"/>
<path fill-rule="evenodd" clip-rule="evenodd" d="M106.861 265.152C106.93 264.498 107.739 264.252 108.166 264.73L108.196 264.769L123.189 283.883C123.443 284.21 123.387 284.679 123.06 284.938C122.75 285.183 122.302 285.14 122.039 284.852L122.005 284.809L108.153 267.15L107.227 275.805C107.18 276.244 106.766 276.546 106.34 276.464L106.293 276.451L89.8354 272.158L88.4834 279.607C88.3972 280.085 87.8934 280.352 87.4542 280.167L87.4112 280.145L78.7175 275.796L78.3774 287.737C78.3645 288.133 78.0458 288.451 77.654 288.464H77.6066C77.2105 288.451 76.8918 288.133 76.8789 287.741V287.694L77.2535 274.578C77.2707 274.044 77.8133 273.704 78.2956 273.906L78.3386 273.928L87.1873 278.354L88.5049 271.094C88.5781 270.681 88.9785 270.414 89.3876 270.491L89.435 270.5L105.832 274.776L106.861 265.148V265.152Z" fill="#89D5FF"/>
<path fill-rule="evenodd" clip-rule="evenodd" d="M124.681 295.071C125.107 294.632 125.844 294.86 125.956 295.45L125.964 295.502L127.837 310.495C127.889 310.908 127.596 311.283 127.187 311.334C126.791 311.382 126.429 311.115 126.356 310.732L126.347 310.684L124.668 297.245L114.14 308.114C113.667 308.604 112.844 308.256 112.848 307.588V307.541L113.507 297.375L102.002 304.484C101.666 304.69 101.227 304.6 100.998 304.281L100.968 304.238C100.762 303.902 100.852 303.463 101.171 303.235L101.214 303.205L113.955 295.334C114.459 295.024 115.1 295.39 115.1 295.971V296.018L114.48 305.603L124.681 295.075V295.071Z" fill="#89D5FF"/>
<path fill-rule="evenodd" clip-rule="evenodd" d="M162.735 296.747C163.027 296.454 163.501 296.454 163.798 296.747C164.078 297.027 164.091 297.475 163.833 297.767L163.798 297.806L149.369 312.235C149.076 312.528 148.602 312.528 148.305 312.235C148.026 311.955 148.013 311.508 148.271 311.215L148.305 311.176L162.735 296.747Z" fill="#89D5FF"/>
<path fill-rule="evenodd" clip-rule="evenodd" d="M122.617 268.451C120.317 265.317 123.086 262.324 127.383 263.538C131.952 264.83 142.932 274.264 144.12 275.005C145.313 275.746 150.062 275.418 144.297 279.931C142.971 280.969 144.878 281.3 142.032 282.872C141.954 282.911 141.911 282.992 141.924 283.074C141.937 283.16 142.002 283.225 142.084 283.242C143.746 283.488 147.707 284.577 147.694 289.296C147.694 289.361 147.724 289.421 147.78 289.46C148.194 289.731 148.611 289.998 149.025 290.274C151.01 291.596 150.98 292.104 152.693 293.779C153.46 294.528 154.256 295.363 154.713 296.358C155.242 297.503 154.855 298.425 154.64 299.622C154.549 300.113 154.467 300.604 154.338 301.086C154.058 302.261 153.628 303.028 152.349 302.826C149.925 302.434 149.507 301.883 147.285 300.918C137.717 296.763 119.383 288.371 116.696 287.148C114.134 285.981 114.612 282.57 114.711 282.273C114.724 282.265 122.629 268.451 122.612 268.451H122.617Z" fill="#2A4054"/>
<path fill-rule="evenodd" clip-rule="evenodd" d="M95.455 129.309L95.4938 129.606C93.3365 129.881 91.3472 131.444 90.1544 133.632C88.0445 137.481 88.5785 142.67 91.274 146.709C93.5906 150.184 97.2894 152.858 101.996 154.778L102.228 154.873L102.116 155.153C97.2463 153.206 93.414 150.464 91.0242 146.881C88.2728 142.752 87.7259 137.447 89.8918 133.494C91.1061 131.268 93.1255 129.662 95.3345 129.334L95.455 129.317V129.309Z" fill="#231F20"/>
</svg>
