<svg width="380" height="295" viewBox="0 0 380 295" fill="none" xmlns="http://www.w3.org/2000/svg">
<path fill-rule="evenodd" clip-rule="evenodd" d="M184.546 259.07H47.6168L33.4688 10.7773H199.153L184.546 259.07Z" fill="#2A4054"/>
<path d="M148.327 28.2031H84.7285V32.5572H148.327V28.2031Z" fill="#A9FF22"/>
<path fill-rule="evenodd" clip-rule="evenodd" d="M116.965 234.393C115.911 235.106 114.706 234.744 114.798 233.743C114.89 232.742 116.211 231.852 117.173 232.141C118.136 232.43 118.02 233.681 116.965 234.393Z" fill="#362B42"/>
<path d="M116.314 246.653C120.313 246.653 123.555 243.411 123.555 239.411C123.555 235.412 120.313 232.17 116.314 232.17C112.314 232.17 109.072 235.412 109.072 239.411C109.072 243.411 112.314 246.653 116.314 246.653Z" fill="white"/>
<path fill-rule="evenodd" clip-rule="evenodd" d="M118.187 126.339C117.779 126.52 117.317 126.428 117.351 126.174C117.375 125.993 117.64 125.827 117.929 125.777H117.933C118.044 125.754 118.164 125.75 118.264 125.773C118.302 125.781 118.333 125.793 118.364 125.8C118.368 125.8 118.372 125.8 118.379 125.804C118.622 125.912 118.549 126.178 118.187 126.339Z" fill="#A9FF22"/>
<path fill-rule="evenodd" clip-rule="evenodd" d="M118.187 126.339C117.779 126.52 117.317 126.428 117.351 126.174C117.375 125.993 117.64 125.827 117.929 125.777H117.933C118.044 125.754 118.164 125.75 118.264 125.773C118.302 125.781 118.333 125.793 118.364 125.8C118.368 125.8 118.372 125.8 118.379 125.804C118.622 125.912 118.549 126.178 118.187 126.339Z" fill="#A9FF22"/>
<path d="M85.9941 69.8008L91.4532 132.576H144.245L149.878 69.8008H85.9941ZM118.19 126.335C117.782 126.516 117.32 126.424 117.355 126.17C117.378 125.989 117.643 125.823 117.932 125.773H117.936C118.048 125.75 118.167 125.746 118.267 125.769C118.306 125.777 118.336 125.788 118.367 125.796C118.371 125.796 118.375 125.796 118.383 125.8C118.625 125.908 118.552 126.173 118.19 126.335Z" fill="#A9FF22"/>
<path d="M118.187 126.336C117.779 126.516 117.317 126.424 117.351 126.17C117.375 125.989 117.64 125.823 117.929 125.773H117.933C118.079 125.773 118.221 125.781 118.364 125.797C118.368 125.797 118.372 125.797 118.379 125.8C118.622 125.908 118.549 126.174 118.187 126.336Z" fill="#A9FF22"/>
<path d="M223.435 55.1984C238.68 55.1984 251.038 42.8418 251.038 27.5992C251.038 12.3566 238.68 0 223.435 0C208.19 0 195.832 12.3566 195.832 27.5992C195.832 42.8418 208.19 55.1984 223.435 55.1984Z" fill="#A9FF22"/>
<path d="M238.368 35.7088C239.084 33.9187 238.718 32.0323 237.344 30.3884C235.215 27.4626 230.23 27.1276 224.959 26.7734C224.771 26.7619 224.586 26.7465 224.401 26.7349C224.52 24.2287 224.875 21.6725 225.448 19.1701C225.46 19.1701 225.467 19.1778 225.479 19.1816C229.41 20.4906 232.436 22.6965 232.466 22.7196L235.073 19.1855C234.93 19.0815 231.539 16.5946 226.98 15.0547C226.865 15.0162 226.749 14.9777 226.638 14.9392C227.073 13.6379 227.569 12.3752 228.12 11.1625C228.69 10.0422 228.189 8.65243 227.034 8.15581C225.922 7.67073 224.628 8.18275 224.143 9.29535C224.108 9.37619 224.039 9.53404 224.004 9.61488C223.427 11.0432 222.934 12.5099 222.518 13.996C218.01 13.4108 214.045 14.4618 210.888 17.122C209.572 18.1768 207.52 20.3712 208.324 23.3625C209.479 27.6589 215.808 30.1343 219.523 30.681C219.951 30.7426 220.397 30.8003 220.855 30.8465C221.009 32.4827 221.271 34.1073 221.641 35.7088C219.504 34.885 217.294 33.4066 215.585 30.7926L211.908 33.1949C213.853 36.1708 216.632 38.4422 219.939 39.755C220.082 39.8127 220.224 39.8666 220.366 39.9205C221.283 40.2593 222.226 40.5211 223.188 40.7136C223.342 41.0985 223.508 41.5105 223.593 41.7145C223.839 42.2381 224.105 42.8464 224.359 43.3584C224.682 43.9628 225.159 44.906 225.521 45.4758L226.145 46.5075C227.234 48.1398 229.594 46.6692 228.636 44.9753C228.439 44.6173 228.039 43.8935 227.839 43.5316C227.696 43.2583 227.258 42.3112 227.123 42.0495C226.988 41.7492 226.853 41.4142 226.722 41.087C227.465 41.0986 228.208 41.0678 228.955 40.9908C233.644 40.5211 237.248 38.4961 238.36 35.7127L238.368 35.7088ZM220.17 26.3384C218.511 26.092 216.624 25.4453 215.123 24.606C213.46 23.6744 212.713 22.7658 212.567 22.2268C212.417 21.6648 213.071 20.9987 213.652 20.5406L213.702 20.4983C215.804 18.7197 218.418 17.9843 221.51 18.2962C221.487 18.4078 221.467 18.5195 221.448 18.6273C220.986 21.1874 220.713 23.7975 220.678 26.4077C220.505 26.3846 220.336 26.3615 220.166 26.3384H220.17ZM225.279 36.5866C224.844 34.8118 224.574 32.9755 224.443 31.1391C224.516 31.143 224.59 31.1468 224.663 31.1545C226.853 31.3008 229.117 31.4548 230.923 31.8128C233.144 32.2556 233.687 32.8253 233.798 32.987L233.868 33.0833L233.945 33.1718C234.426 33.73 234.333 33.9649 234.287 34.0765C233.948 34.9235 231.939 36.2709 228.524 36.6135C227.87 36.679 226.699 36.7406 225.279 36.5827V36.5866Z" fill="#2A4054"/>
<path fill-rule="evenodd" clip-rule="evenodd" d="M274.487 294.123C352.8 294.123 381.138 288.722 347.572 281.507C384.461 259.814 354.255 238.209 314.999 263.182C276.944 287.39 272.905 277.276 272.151 242.594C271.396 207.911 245.429 231.729 233.726 266.909C204.167 202.251 189.761 261.369 215.077 282.162C191.875 283.398 196.179 294.123 274.491 294.123" fill="#A9FF22"/>
<path d="M257.826 184.734C258.188 183.35 253.234 180.858 246.762 179.168C240.29 177.479 234.75 177.232 234.389 178.616C234.027 180.001 238.981 182.493 245.453 184.182C251.925 185.872 257.465 186.119 257.826 184.734Z" fill="#2A4054"/>
<path d="M277.532 184.545C284.53 183.111 289.972 180.817 289.686 179.422C289.4 178.026 283.495 178.057 276.496 179.491C269.498 180.925 264.056 183.219 264.342 184.615C264.628 186.01 270.533 185.979 277.532 184.545Z" fill="#2A4054"/>
<path fill-rule="evenodd" clip-rule="evenodd" d="M285.786 176.039C286.891 177.309 287.06 181.571 287.445 183.261C290.013 194.529 291.338 205.386 294.171 216.677C295.9 223.576 297.455 230.521 298.929 237.478C300.25 243.718 302.052 249.87 303.137 256.157C304.019 261.254 305.085 266.32 306.205 271.368C306.494 272.677 308.28 276.9 307.861 278.055C307.561 278.879 306.794 278.748 305.994 278.982C305.016 279.271 293.813 281.639 293.809 281.631C290.029 266.474 284.527 252.065 281.286 236.804C280.342 232.365 266.783 179.692 266.537 179.765L281.69 176.243C282.787 176.655 284.423 176.936 285.351 177.613C285.517 177.737 285.651 175.881 285.786 176.039Z" fill="#D8D0B2"/>
<path fill-rule="evenodd" clip-rule="evenodd" d="M237.504 177.047C236.903 178.352 236.357 183.33 235.949 184.854C234.74 189.424 233.358 193.951 232.364 198.579C229.978 209.709 228.245 220.965 225.885 232.111C224.734 237.539 223.61 243.121 221.812 248.38C221.05 250.609 215.294 277.665 215.987 277.815L229.643 280.784C229.693 280.795 231.325 274.466 231.414 274.127C232.861 268.699 233.77 262.994 235.321 257.685C238.259 247.652 241.011 237.739 243.86 227.714C245.196 223.013 246.543 218.313 247.629 213.551C249.338 206.047 250.947 198.498 253.496 191.222C253.777 190.421 256.56 181.416 256.145 181.247L241.762 175.395C241.373 175.237 237.858 176.627 237.566 176.97C237.542 176.997 237.523 177.024 237.504 177.051V177.047Z" fill="#D8D0B2"/>
<path fill-rule="evenodd" clip-rule="evenodd" d="M227.255 277.708L149.432 277.484C149.432 277.484 149.951 282.277 150.009 282.716C150.202 284.306 150.552 285.939 151.306 287.382C151.922 288.556 152.827 289.557 153.77 290.493C154.744 291.459 155.707 292.156 157.104 292.156H157.474" fill="#93DD12"/>
<path fill-rule="evenodd" clip-rule="evenodd" d="M155.096 242.975H180.166V253.381H153.637L144.605 242.975" fill="#A9FF22"/>
<path fill-rule="evenodd" clip-rule="evenodd" d="M159.067 248.054C155.587 248.054 152.881 245.836 149.955 244.281C147.587 243.022 144.692 242.421 142.213 243.445C140.538 244.15 139.225 245.513 138.582 247.214C136.819 251.961 140.207 258.552 142.702 262.46C145.547 266.914 149.096 270.829 152.434 274.906C154.575 277.524 166.913 292.149 156.315 292.149H213.303C217.353 292.149 220.679 289.708 220.803 286.632C220.926 283.556 219.282 278.856 213.28 271.872C213.28 271.872 202.651 261.054 201.007 248.412C201.003 248.416 159.356 248.058 159.063 248.058L159.067 248.054Z" fill="#F9CC18"/>
<path fill-rule="evenodd" clip-rule="evenodd" d="M159.067 248.054C155.587 248.054 152.881 245.836 149.955 244.281C147.587 243.022 144.692 242.421 142.213 243.445C140.538 244.15 139.225 245.513 138.582 247.214C136.819 251.961 140.207 258.552 142.702 262.46C145.547 266.914 149.096 270.829 152.434 274.906C154.509 277.443 166.151 291.248 157.242 292.107C156.954 292.134 213.311 292.149 213.311 292.149C217.361 292.149 220.687 289.708 220.81 286.632C220.934 283.556 219.29 278.856 213.288 271.872C213.288 271.872 202.659 261.054 201.015 248.412C201.003 248.416 159.36 248.058 159.067 248.058V248.054Z" fill="#A9FF22"/>
<path fill-rule="evenodd" clip-rule="evenodd" d="M159.615 236.669C159.823 236.549 160.084 236.622 160.204 236.83L160.281 236.965L160.431 237.235C160.454 237.281 160.481 237.323 160.504 237.365L160.65 237.627C160.723 237.758 160.793 237.889 160.862 238.016L160.997 238.274C161.02 238.316 161.043 238.359 161.062 238.401L161.193 238.651L161.32 238.902C161.405 239.067 161.486 239.229 161.563 239.39L161.678 239.629L161.79 239.868L161.898 240.103C162.687 241.854 163.141 243.356 163.218 244.603C163.372 247.086 161.994 248.484 159.06 248.484C157.798 248.484 156.577 248.21 155.291 247.683L155.103 247.602L154.937 247.529L154.776 247.456L154.614 247.383L154.452 247.306L154.29 247.225L154.183 247.171L154.017 247.086L153.848 246.998L153.671 246.905L153.486 246.805L153.359 246.736L153.093 246.586L152.808 246.424L152.423 246.201L152.088 246.004L151.057 245.392L150.699 245.184L150.537 245.092L150.287 244.95L150.094 244.842L149.998 244.788C149.917 244.742 149.836 244.699 149.752 244.657C147.226 243.313 144.535 242.948 142.383 243.841C140.816 244.499 139.588 245.773 138.991 247.36C138.287 249.254 138.402 251.594 139.219 254.274C139.288 254.501 139.161 254.743 138.93 254.813C138.699 254.882 138.46 254.755 138.391 254.524C137.525 251.679 137.401 249.157 138.179 247.055C138.864 245.242 140.262 243.791 142.048 243.04C144.47 242.039 147.422 242.436 150.156 243.891L150.306 243.972L150.502 244.08L150.799 244.245L151.01 244.364L151.553 244.68L152.77 245.4L153.151 245.623L153.432 245.785L153.632 245.897L153.821 246.001L154.002 246.101L154.233 246.224L154.344 246.282L154.506 246.366L154.664 246.447L154.822 246.524L154.976 246.597L155.13 246.667L155.288 246.736L155.392 246.782L155.499 246.828C156.735 247.348 157.882 247.618 159.064 247.618C161.509 247.618 162.483 246.628 162.36 244.653C162.302 243.718 161.998 242.586 161.467 241.281L161.378 241.069C161.363 241.034 161.347 240.996 161.332 240.961L161.239 240.742C161.224 240.707 161.209 240.669 161.189 240.63L161.089 240.407L160.985 240.18C160.951 240.103 160.916 240.03 160.877 239.953L160.766 239.722C160.747 239.683 160.727 239.645 160.708 239.606L160.593 239.371C160.573 239.333 160.554 239.29 160.531 239.252L160.408 239.013C160.389 238.975 160.365 238.932 160.346 238.894L160.219 238.651L160.088 238.405C160.065 238.363 160.042 238.32 160.023 238.282L159.884 238.031L159.742 237.777L159.596 237.519L159.449 237.258C159.33 237.05 159.403 236.788 159.611 236.669H159.615Z" fill="#2A4054"/>
<path fill-rule="evenodd" clip-rule="evenodd" d="M154.308 186.678H200.899L188.175 197.858L147.54 192.268L147.232 186.678" fill="#93DD12"/>
<path fill-rule="evenodd" clip-rule="evenodd" d="M156.65 190.594C152.492 190.594 153.127 189.027 149.993 187.337C145.662 185.001 140.831 189.678 139.36 193.528C135.079 204.777 146.837 216.954 152.43 225.962C154.571 229.42 169.662 248.056 159.064 248.056L213.303 248.672C217.353 248.672 220.672 245.462 220.803 241.412C220.922 237.339 219.282 231.163 213.28 221.97C213.28 221.97 202.651 207.726 201.007 191.076C201.003 191.072 156.946 190.594 156.65 190.594Z" fill="#A9FF22"/>
<path fill-rule="evenodd" clip-rule="evenodd" d="M184.711 114.122C183.926 114.503 183.441 115.589 183.102 116.305C182.22 118.145 182.44 119.431 181.666 121.237L182.217 135.1L185.885 134.538C185.885 134.538 187.206 117.014 186.829 115.42C186.617 114.523 185.739 113.626 184.711 114.126V114.122Z" fill="#C08F67"/>
<path fill-rule="evenodd" clip-rule="evenodd" d="M185.587 115.293C185.41 115.951 185.375 116.644 185.483 117.318C185.545 117.707 185.622 117.845 186.026 117.934C186.295 117.992 186.638 117.984 186.815 117.734C187.2 117.191 187 115.674 186.707 115.066C186.422 114.481 185.81 114.546 185.626 115.15C185.61 115.197 185.599 115.247 185.587 115.293Z" fill="#2A4054"/>
<path fill-rule="evenodd" clip-rule="evenodd" d="M166.815 137.37C166.815 137.37 160.178 117.343 166.9 119.357C166.9 119.357 167.497 115.138 171.243 117.89C171.243 117.89 172.659 113.494 175.447 116.577C175.658 115.164 178.669 112.639 180.286 116.212C181.302 118.46 182.122 121.936 181.71 122.66C186.192 125.416 184.929 132.304 185.364 135.699L166.808 137.374L166.815 137.37Z" fill="#C08F67"/>
<path fill-rule="evenodd" clip-rule="evenodd" d="M236.383 182.659L254.415 188.133L255.99 182.682L237.214 178.043L236.383 182.659Z" fill="#D8D0B2"/>
<path fill-rule="evenodd" clip-rule="evenodd" d="M270.156 193.07L288.319 186.884L286.756 178.695L267.465 182.957L270.156 193.07Z" fill="#D8D0B2"/>
<path fill-rule="evenodd" clip-rule="evenodd" d="M285.751 177.181C286.852 178.451 287.01 180.715 287.395 182.409C289.963 193.677 291.287 204.534 294.12 215.825C295.849 222.724 297.404 229.669 298.879 236.625C300.199 242.866 302.001 249.018 303.087 255.305C303.968 260.402 305.035 265.468 306.151 270.515C306.44 271.824 308.226 276.055 307.806 277.202C307.506 278.026 306.74 277.895 305.939 278.13C304.958 278.419 293.759 280.787 293.755 280.779C289.974 265.618 284.473 251.212 281.231 235.952C280.288 231.509 266.483 178.594 266.236 178.663C266.259 178.663 281.636 175.387 281.636 175.387C282.733 175.795 284.369 176.08 285.297 176.757C285.462 176.88 285.612 177.023 285.751 177.181Z" fill="#C08F67"/>
<path fill-rule="evenodd" clip-rule="evenodd" d="M237.503 177.051C234.893 183.164 234.358 191.915 228.86 210.967C222.958 231.448 218.2 268.787 215.986 277.811L229.642 280.78C229.692 280.791 231.324 274.462 231.412 274.123C232.86 268.695 233.769 262.99 235.32 257.681C238.257 247.648 241.01 237.735 243.859 227.71C245.195 223.01 246.542 218.309 247.628 213.547C249.337 206.043 250.946 198.494 253.495 191.218C253.776 190.417 256.559 181.412 256.144 181.243L241.761 175.391C241.372 175.234 237.857 176.623 237.564 176.966C237.541 176.993 237.518 177.024 237.499 177.054L237.503 177.051Z" fill="#C08F67"/>
<path fill-rule="evenodd" clip-rule="evenodd" d="M250.06 155.379C249.541 155.749 238.211 164.08 234.384 178.632C234.376 178.651 234.384 178.674 234.392 178.693C234.403 178.713 234.419 178.724 234.438 178.732L257.822 184.437C257.841 184.441 257.864 184.437 257.879 184.43C257.895 184.422 257.91 184.403 257.914 184.38L260.867 172.191C260.875 172.156 260.905 172.133 260.936 172.133C260.967 172.133 261.002 172.153 261.013 172.183C261.483 173.5 263.693 179.829 264.297 183.721C264.297 183.764 264.389 184.757 264.432 184.757L289.629 179.398C289.679 179.386 289.648 179.444 289.629 179.398C289.047 178.058 281.725 160.746 272.185 154.732C272.17 154.725 272.154 154.721 272.139 154.721L250.091 155.364C250.091 155.364 250.06 155.371 250.049 155.379H250.06Z" fill="#89D5FF"/>
<path d="M269.512 111.444C269.767 108.29 265.764 105.392 260.57 104.971C255.376 104.549 250.958 106.764 250.702 109.917C250.446 113.071 254.449 115.969 259.643 116.39C264.837 116.812 269.256 114.597 269.512 111.444Z" fill="#C08F67"/>
<path fill-rule="evenodd" clip-rule="evenodd" d="M249.519 108.681C249.865 109.224 250.554 109.451 251.197 109.501C251.444 109.524 251.69 109.52 251.937 109.482C252.56 109.385 253.118 109.047 253.492 108.538C253.461 108.873 253.607 109.204 253.881 109.401C254.058 109.516 254.258 109.589 254.466 109.62C254.782 109.686 255.105 109.678 255.417 109.593C256.144 109.382 256.537 108.758 256.937 108.111C257.245 108.858 257.827 109.589 258.627 109.666C259.055 109.69 259.474 109.578 259.836 109.355C260.125 109.204 260.391 109.004 260.618 108.769C260.776 109.089 260.984 109.382 261.238 109.632C261.603 109.951 262.096 110.086 262.574 110.001C263.043 109.913 263.424 109.755 263.64 109.328C263.782 109.582 263.99 109.797 264.24 109.944C264.972 110.425 265.984 110.637 266.708 110.148C267.401 109.674 267.601 108.743 267.744 107.899C265.041 107.28 262.343 106.444 259.636 105.847C258.323 105.536 256.999 105.289 255.659 105.112C255.07 105.035 254.474 105.016 253.881 105.054C253.284 105.124 248.572 107.187 249.515 108.669L249.519 108.681Z" fill="#2A4054"/>
<path fill-rule="evenodd" clip-rule="evenodd" d="M270.47 106.942C270.524 107.026 270.566 107.119 270.593 107.215C270.782 107.916 270.17 108.917 269.438 109.094C269.046 109.19 268.626 109.094 268.23 108.994C262.432 107.581 256.153 106.676 250.205 107.142C249.493 107.196 249.138 106.565 249.119 105.887C249.123 105.175 249.562 104.54 250.224 104.285C250.648 104.151 251.09 104.089 251.537 104.112C255.133 104.085 258.728 104.247 262.312 104.593C264.53 104.809 266.77 105.155 268.846 105.975C269.373 106.195 270.147 106.434 270.474 106.942H270.47Z" fill="#79CFFF"/>
<path fill-rule="evenodd" clip-rule="evenodd" d="M270.47 106.942C270.524 107.026 270.566 107.119 270.593 107.215C270.782 107.916 270.17 108.917 269.438 109.094C269.046 109.19 268.626 109.094 268.23 108.994C262.432 107.581 256.153 106.676 250.205 107.142C249.493 107.196 249.138 106.565 249.119 105.887C249.123 105.175 249.562 104.54 250.224 104.285C250.648 104.151 251.09 104.089 251.537 104.112C255.133 104.085 258.728 104.247 262.312 104.593C264.53 104.809 266.77 105.155 268.846 105.975C269.373 106.195 270.147 106.434 270.474 106.942H270.47Z" fill="black" fill-opacity="0.2"/>
<path fill-rule="evenodd" clip-rule="evenodd" d="M268.378 104.087C268.324 103.798 268.247 103.478 268.005 103.305C267.874 103.228 267.731 103.174 267.581 103.151C263.747 102.281 259.851 101.7 255.928 101.422C255.308 101.376 254.669 101.345 254.084 101.553C252.69 102.054 252.109 103.705 251.936 105.18C256.463 105.087 260.898 106.316 265.302 107.37C266.007 107.544 268.178 108.298 268.736 107.624C269.256 107.009 268.513 104.806 268.374 104.083L268.378 104.087Z" fill="#79CFFF"/>
<path fill-rule="evenodd" clip-rule="evenodd" d="M268.378 104.087C268.324 103.798 268.247 103.478 268.005 103.305C267.874 103.228 267.731 103.174 267.581 103.151C263.747 102.281 259.851 101.7 255.928 101.422C255.308 101.376 254.669 101.345 254.084 101.553C252.69 102.054 252.109 103.705 251.936 105.18C256.463 105.087 260.898 106.316 265.302 107.37C266.007 107.544 268.178 108.298 268.736 107.624C269.256 107.009 268.513 104.806 268.374 104.083L268.378 104.087Z" fill="black" fill-opacity="0.2"/>
<path fill-rule="evenodd" clip-rule="evenodd" d="M253.447 108.622C253.516 108.395 253.755 108.264 253.986 108.333C254.213 108.402 254.344 108.641 254.275 108.872C254.024 109.704 253.982 110.666 254.074 111.659C254.094 111.848 254.251 111.99 254.44 111.99C254.76 111.99 255.148 112.029 255.591 112.098C255.853 112.14 256.13 112.191 256.411 112.248C256.681 112.302 256.946 112.364 257.193 112.422L257.512 112.502C257.743 112.564 257.882 112.799 257.82 113.03C257.759 113.261 257.524 113.399 257.293 113.338L257.162 113.303L256.989 113.261C256.75 113.203 256.496 113.145 256.234 113.091C255.965 113.037 255.703 112.987 255.453 112.949C255.337 112.93 255.225 112.914 255.121 112.903L254.967 112.883C254.79 112.864 254.633 112.853 254.49 112.849H254.432C253.801 112.849 253.274 112.368 253.212 111.736C253.108 110.643 253.158 109.573 253.443 108.618L253.447 108.622Z" fill="#2A4054"/>
<path fill-rule="evenodd" clip-rule="evenodd" d="M292.679 216.462C292.825 216.273 293.099 216.238 293.287 216.389C293.476 216.539 293.511 216.808 293.36 216.997C291.666 219.168 288.49 220.011 285.942 218.968C285.722 218.879 285.615 218.625 285.707 218.406C285.799 218.186 286.05 218.079 286.269 218.171C288.46 219.068 291.224 218.333 292.679 216.469V216.462Z" fill="#2A4054"/>
<path fill-rule="evenodd" clip-rule="evenodd" d="M231.541 216.199C231.768 216.122 232.011 216.241 232.091 216.469C232.858 218.709 235.229 220.315 237.589 220.184C237.828 220.172 238.032 220.353 238.043 220.592C238.055 220.83 237.874 221.034 237.635 221.046C234.886 221.2 232.161 219.356 231.271 216.75C231.194 216.523 231.314 216.28 231.541 216.199Z" fill="#2A4054"/>
<path fill-rule="evenodd" clip-rule="evenodd" d="M264.721 114.934L265.764 122.048L266.334 127.646L262.253 129.925L253.903 128.501L253.814 121.436L258.642 114.83L264.721 114.934Z" fill="#C08F67"/>
<path fill-rule="evenodd" clip-rule="evenodd" d="M279.53 163.268C277.239 165.554 275.795 168.453 275.457 171.445C275.372 172.168 275.364 172.938 275.772 173.577C276.219 174.278 277.077 174.698 277.905 175.063C282.948 177.262 288.569 177.762 293.917 176.488C294.729 176.291 295.557 176.045 296.165 175.548C297.123 174.778 297.505 173.354 297.331 172.276C297.32 172.099 297.239 171.933 297.108 171.818C296.962 171.729 296.792 171.683 296.623 171.679C295.399 171.549 294.055 171.826 292.9 171.606C291.865 171.41 290.748 170.84 289.809 170.432C287.849 169.589 286.063 168.392 284.542 166.894C283.16 165.535 281.247 164.319 279.53 163.271V163.268Z" fill="#C08F67"/>
<path fill-rule="evenodd" clip-rule="evenodd" d="M187.458 141.336C187.458 141.336 184.097 125.964 199.816 125.964C199.816 125.964 207.057 124.929 225.136 134.103C225.136 134.103 245.971 119.265 253.813 121.437L254.768 127.777H264.327L265.666 121.271C265.863 120.32 285.913 125.283 287.179 125.66C297.939 128.871 310.905 134.033 316.391 144.613C318.582 148.84 316.642 153.579 314.289 157.336C310.293 163.731 303.918 168.397 297.427 172.012C296.284 172.651 295.125 173.255 293.955 173.836C293.955 173.836 276.354 167.307 278.456 159.966C278.456 159.966 284.761 149.367 288.935 148.501C288.977 148.497 289.012 148.466 289.019 148.424C289.031 148.381 289.012 148.339 288.977 148.316L276.053 139.615C275.961 139.554 275.83 139.616 275.845 139.719C276.153 141.764 276.538 143.793 276.75 145.852C277.081 148.963 277.612 152.755 276.577 155.796C276.323 156.539 275.826 157.232 275.102 157.532C273.073 158.379 269.732 157.136 268.535 155.457C268.535 155.457 265.443 160.358 261.051 156.058C261.051 156.058 257.513 160.077 253.871 155.685C253.871 155.685 248.165 159.6 246.244 154.553C246.244 154.553 245.209 145.209 246.063 140.428C246.125 140.081 245.69 139.854 245.37 140.058C242.26 142.06 235.28 154.187 222.075 155.4C206.283 156.855 188.197 146.915 187.45 141.325L187.458 141.336Z" fill="#C699FF"/>
<path fill-rule="evenodd" clip-rule="evenodd" d="M289.748 278.832C287.096 277.349 288.097 274.323 291.546 273.792C294.206 273.384 297.594 273.865 300.297 273.665C303.619 273.419 306.533 273.38 309.794 273.145C312.162 272.972 310.872 275.444 310.198 276.741C309.594 277.904 310.976 279.32 309.463 281.361C309.421 281.411 309.417 281.484 309.451 281.542C309.486 281.6 309.551 281.626 309.617 281.611C310.88 281.249 314.048 280.749 315.569 284.098C315.588 284.144 315.63 284.179 315.68 284.187C316.062 284.248 316.446 284.298 316.828 284.36C318.668 284.66 318.81 285.03 320.57 285.665C321.359 285.95 322.194 286.285 322.841 286.843C323.588 287.486 323.615 288.267 323.846 289.184C323.942 289.561 324.042 289.938 324.119 290.319C324.3 291.243 324.246 291.929 323.272 292.198C321.42 292.718 320.943 292.452 319.053 292.487C310.907 292.633 295.149 292.606 292.843 292.61C290.641 292.61 289.879 290.031 289.852 289.788C289.852 289.788 289.767 278.843 289.748 278.832Z" fill="#2A4054"/>
<path d="M192.663 257.112C196.152 257.112 198.981 254.283 198.981 250.794C198.981 247.305 196.152 244.477 192.663 244.477C189.174 244.477 186.346 247.305 186.346 250.794C186.346 254.283 189.174 257.112 192.663 257.112Z" fill="#2A4054"/>
<path fill-rule="evenodd" clip-rule="evenodd" d="M195.36 250.361H193.096V248.097C193.096 248.013 193.027 247.943 192.942 247.943H192.38C192.296 247.943 192.23 248.013 192.226 248.097V250.361H189.963C189.878 250.361 189.812 250.43 189.809 250.515V251.077C189.809 251.162 189.878 251.227 189.963 251.231H192.226V253.495C192.226 253.579 192.296 253.645 192.38 253.649H192.942C193.027 253.649 193.096 253.579 193.096 253.495V251.231H195.36C195.445 251.231 195.514 251.162 195.514 251.077V250.515C195.514 250.477 195.499 250.434 195.468 250.407C195.437 250.38 195.402 250.361 195.36 250.361Z" fill="white"/>
<path fill-rule="evenodd" clip-rule="evenodd" d="M150.066 121.631H204.178C204.363 121.631 204.536 121.735 204.617 121.9C204.698 122.066 204.687 122.266 204.575 122.416C202.623 125.007 201.052 133.176 200.887 134.381C200.175 139.598 200.683 144.926 201.999 150.012C202.881 153.345 204.063 156.595 205.53 159.717C208.529 166.181 212.494 171.605 213.707 178.731C214.646 184.252 213.88 191.586 206.654 191.505L159.478 190.985C159.259 190.981 159.07 190.831 159.013 190.623C158.955 190.415 159.043 190.188 159.232 190.073C161.923 188.375 164.826 183.385 157.53 168.779C157.519 168.752 157.503 168.729 157.488 168.706C156.764 167.724 140.245 144.88 149.615 121.939C149.692 121.754 149.869 121.635 150.066 121.631Z" fill="#F9CC18"/>
<path d="M192.11 199.225C195.6 199.225 198.428 196.396 198.428 192.907C198.428 189.418 195.6 186.59 192.11 186.59C188.621 186.59 185.793 189.418 185.793 192.907C185.793 196.396 188.621 199.225 192.11 199.225Z" fill="#2A4054"/>
<path fill-rule="evenodd" clip-rule="evenodd" d="M194.81 192.475H192.546V190.211C192.546 190.169 192.531 190.13 192.504 190.103C192.477 190.076 192.435 190.057 192.396 190.061H191.834C191.792 190.061 191.753 190.076 191.726 190.103C191.699 190.13 191.68 190.173 191.684 190.211V192.475H189.42C189.378 192.475 189.339 192.49 189.312 192.517C189.285 192.544 189.266 192.586 189.27 192.625V193.187C189.27 193.229 189.285 193.268 189.312 193.295C189.339 193.322 189.382 193.341 189.42 193.337H191.684V195.601C191.684 195.643 191.699 195.682 191.726 195.709C191.753 195.736 191.796 195.755 191.834 195.751H192.396C192.438 195.751 192.477 195.736 192.504 195.709C192.531 195.682 192.55 195.639 192.546 195.601V193.337H194.81C194.852 193.337 194.891 193.322 194.918 193.295C194.945 193.268 194.964 193.226 194.96 193.187V192.625C194.96 192.583 194.945 192.544 194.918 192.517C194.891 192.49 194.848 192.471 194.81 192.475Z" fill="white"/>
<path fill-rule="evenodd" clip-rule="evenodd" d="M150.134 121.631H203.965C204.189 121.631 204.396 121.754 204.5 121.95C204.604 122.147 204.593 122.389 204.466 122.574C202.564 125.319 201.055 133.2 200.893 134.381C200.181 139.598 200.689 144.926 202.006 150.012C202.887 153.345 204.069 156.595 205.536 159.717C208.535 166.181 212.5 171.605 213.713 178.731C214.652 184.252 213.886 191.586 206.66 191.505L159.839 190.989C159.577 190.989 159.35 190.816 159.269 190.569C159.192 190.319 159.281 190.05 159.492 189.899C162.099 188.036 164.586 182.908 157.537 168.783C157.521 168.752 157.502 168.722 157.483 168.695C156.682 167.605 140.301 144.861 149.579 122C149.675 121.777 149.891 121.631 150.134 121.631Z" fill="#A9FF22"/>
<path fill-rule="evenodd" clip-rule="evenodd" d="M167.099 190.641L198.614 190.987C198.852 190.987 199.045 191.183 199.041 191.422C199.041 191.653 198.856 191.838 198.633 191.849H198.606L167.091 191.503C166.853 191.503 166.66 191.307 166.664 191.068C166.664 190.837 166.849 190.652 167.072 190.641H167.099Z" fill="#2A4054"/>
<path fill-rule="evenodd" clip-rule="evenodd" d="M154.112 121.199C154.35 121.199 154.543 121.392 154.543 121.63C154.543 121.869 154.366 122.046 154.139 122.062H154.112H150.027L149.969 122.204C147.297 128.814 146.597 136.186 147.748 143.786L147.783 144.021C147.821 144.256 147.659 144.479 147.421 144.514C147.182 144.548 146.963 144.39 146.928 144.152C145.677 136.159 146.435 128.398 149.338 121.461C149.399 121.311 149.546 121.207 149.707 121.195H149.738H154.112V121.199Z" fill="#2A4054"/>
<path fill-rule="evenodd" clip-rule="evenodd" d="M158.734 171.347C158.95 171.247 159.208 171.339 159.308 171.555C160.436 173.961 161.325 176.471 161.96 179.058C162.503 181.368 162.7 183.57 162.415 185.48C162.049 187.924 160.913 189.757 158.877 190.765C156.933 191.732 154.207 191.478 152.644 190.08L152.49 189.942L152.382 189.845L151.693 189.195L151.547 189.06L151.408 188.933L151.273 188.814C151.25 188.794 151.231 188.775 151.208 188.756L151.081 188.644C151.039 188.609 151 188.575 150.962 188.54L150.842 188.444C150.476 188.144 150.153 187.924 149.78 187.724C147.936 186.731 145.861 187.054 143.843 188.475C142.053 189.73 140.494 191.759 139.759 193.691C139.674 193.915 139.424 194.026 139.2 193.941C138.977 193.857 138.865 193.607 138.95 193.383C139.747 191.293 141.414 189.125 143.347 187.766C145.61 186.176 148.028 185.795 150.192 186.966C150.7 187.239 151.119 187.539 151.628 187.978L151.762 188.097L151.901 188.225L152.047 188.359L152.197 188.502L152.794 189.068L152.96 189.222L153.11 189.36L153.206 189.449C154.496 190.6 156.836 190.819 158.48 190.003C160.24 189.129 161.221 187.547 161.549 185.364C161.814 183.578 161.626 181.484 161.106 179.274C160.486 176.748 159.616 174.288 158.511 171.936C158.411 171.72 158.503 171.462 158.719 171.362L158.734 171.347Z" fill="#2A4054"/>
<path fill-rule="evenodd" clip-rule="evenodd" d="M207.712 264.884C207.909 264.749 208.178 264.799 208.313 265C209.522 266.774 210.773 268.387 211.993 269.812L212.174 270.02L212.436 270.32L212.606 270.512L212.771 270.697L212.929 270.874L213.083 271.044L213.26 271.232L213.441 271.421L213.591 271.575L213.614 271.598C219.05 277.919 221.391 282.893 221.241 286.659C221.106 289.992 217.576 292.587 213.31 292.587C213.071 292.587 212.879 292.395 212.879 292.156C212.879 291.917 213.071 291.725 213.31 291.725C217.152 291.725 220.263 289.438 220.378 286.624C220.517 283.151 218.311 278.428 213.118 272.345L212.967 272.172L212.86 272.06L212.729 271.921L212.582 271.764L212.452 271.625L212.294 271.452C212.267 271.421 212.24 271.394 212.213 271.363L212.047 271.178L211.878 270.986C211.851 270.955 211.82 270.921 211.789 270.886L211.612 270.682L211.431 270.47C211.401 270.435 211.37 270.397 211.339 270.362C210.099 268.915 208.833 267.275 207.601 265.473C207.466 265.277 207.516 265.007 207.716 264.873L207.712 264.884Z" fill="#2A4054"/>
<path fill-rule="evenodd" clip-rule="evenodd" d="M152.765 274.636L153.636 275.683L154.151 276.31L154.421 276.641C155.299 277.723 156.107 278.767 156.869 279.818C157.701 280.961 158.44 282.062 159.068 283.105C159.137 283.225 159.206 283.34 159.276 283.456L159.41 283.687C159.518 283.879 159.626 284.068 159.726 284.252L159.845 284.476C160.877 286.431 161.404 288.091 161.335 289.415C161.224 291.463 159.691 292.58 156.754 292.58C156.515 292.58 156.323 292.387 156.323 292.148C156.323 291.91 156.515 291.717 156.754 291.717C156.866 291.717 156.973 291.717 157.077 291.713L157.235 291.706C157.262 291.706 157.285 291.706 157.312 291.706L157.462 291.698L157.609 291.686C159.53 291.513 160.4 290.724 160.473 289.373C160.538 288.141 159.961 286.458 158.837 284.43L158.717 284.214C158.698 284.179 158.675 284.141 158.656 284.106L158.529 283.887L158.398 283.667C158.375 283.629 158.355 283.594 158.332 283.556C157.72 282.532 156.996 281.454 156.176 280.33C155.48 279.371 154.744 278.42 153.955 277.438L153.451 276.819L152.103 275.186L151.68 274.674C151.399 274.332 151.114 273.993 150.833 273.65C150.679 273.465 150.706 273.196 150.887 273.042C151.068 272.888 151.341 272.915 151.495 273.096C151.922 273.608 152.346 274.124 152.769 274.64L152.765 274.636Z" fill="#2A4054"/>
<path fill-rule="evenodd" clip-rule="evenodd" d="M232.51 279.398C235.162 277.916 234.165 274.89 230.712 274.359C228.052 273.951 225.353 273.862 222.666 273.666C219.344 273.42 216.252 272.111 212.988 271.872C210.62 271.699 211.91 274.174 212.583 275.468C213.188 276.634 211.983 279.321 213.496 281.362C213.538 281.412 213.542 281.485 213.507 281.543C213.473 281.6 213.407 281.627 213.342 281.612C212.079 281.25 208.911 280.75 207.39 284.099C207.371 284.145 207.328 284.18 207.278 284.187C206.897 284.249 206.512 284.299 206.131 284.361C204.291 284.661 204.148 285.031 202.385 285.666C201.6 285.951 200.761 286.286 200.114 286.844C199.367 287.487 199.34 288.268 199.109 289.184C199.013 289.562 198.913 289.939 198.836 290.32C198.655 291.244 198.709 291.929 199.683 292.199C201.534 292.719 202.008 292.453 203.902 292.488C212.048 292.634 227.805 292.607 230.111 292.611C232.314 292.611 233.076 290.031 233.103 289.789C233.11 289.785 232.491 279.406 232.51 279.394V279.398Z" fill="#2A4054"/>
<path fill-rule="evenodd" clip-rule="evenodd" d="M167.923 122.801C168.2 123.729 168.393 124.68 168.497 125.642C168.52 125.758 168.508 125.877 168.474 125.989C168.293 126.293 168.019 126.528 167.692 126.662C166.657 127.059 165.271 126.816 164.882 126.17C164.778 125.969 164.712 125.754 164.689 125.53C164.689 125.53 163.134 121.153 165.067 119.967L167.249 119.748L167.927 122.805L167.923 122.801Z" fill="#C08F67"/>
<path fill-rule="evenodd" clip-rule="evenodd" d="M168.629 126.4C168.671 126.635 168.767 126.855 168.906 127.051C169.129 127.294 169.434 127.451 169.761 127.501C170.573 127.675 171.689 127.521 172.398 127.082C172.563 126.986 172.714 126.862 172.841 126.716C173.241 126.239 173.218 125.553 173.133 124.941C173.01 124.075 172.802 123.228 172.509 122.404" fill="#C08F67"/>
<path fill-rule="evenodd" clip-rule="evenodd" d="M176.159 117.74C176.625 118.83 177.406 123.503 177.587 124.778C177.672 125.363 177.91 125.898 177.587 126.345C177.364 126.649 176.832 126.907 176.494 127.022C175.928 127.211 175.343 127.399 174.75 127.311C174.099 127.222 173.568 126.749 173.406 126.114C173.406 126.114 171.181 120.173 171.612 119.126C172.039 118.079 176.163 117.74 176.163 117.74H176.159Z" fill="#C08F67"/>
<path fill-rule="evenodd" clip-rule="evenodd" d="M181.995 122.917C182.068 123.437 182.122 124.018 181.787 124.415C181.556 124.688 181.194 124.808 180.855 124.915C180.289 125.089 179.7 125.27 179.111 125.204C178.522 125.139 177.922 124.758 177.795 124.176C177.795 124.176 175.935 120.23 176.77 117.705L180.139 115.953C180.697 116.742 181.213 118.679 181.252 118.848C181.39 119.464 181.49 120.088 181.598 120.711C181.717 121.447 181.86 122.182 181.995 122.917Z" fill="#C08F67"/>
<path fill-rule="evenodd" clip-rule="evenodd" d="M172.374 122.338C172.42 122.322 172.47 122.345 172.486 122.392C172.778 123.223 172.986 124.078 173.109 124.948C173.229 125.776 173.167 126.353 172.813 126.784C172.698 126.919 172.563 127.034 172.416 127.131L172.359 127.165C171.639 127.612 170.776 127.766 169.953 127.589C169.61 127.535 169.298 127.366 169.056 127.1C168.913 126.892 168.817 126.661 168.771 126.415C168.763 126.368 168.794 126.322 168.84 126.315C168.886 126.307 168.932 126.338 168.94 126.384C168.982 126.607 169.071 126.815 169.19 126.992C169.398 127.219 169.675 127.369 169.983 127.416C170.769 127.581 171.589 127.439 172.27 127.011C172.424 126.919 172.563 126.803 172.678 126.665C172.994 126.28 173.048 125.745 172.936 124.963C172.813 124.105 172.609 123.258 172.32 122.438C172.305 122.392 172.328 122.342 172.374 122.326V122.338Z" fill="#231F20"/>
<path fill-rule="evenodd" clip-rule="evenodd" d="M176.408 118.773C176.451 118.754 176.505 118.773 176.524 118.815L176.535 118.842L176.562 118.904L176.589 118.973L176.616 119.05L176.643 119.131L176.67 119.22L176.701 119.316L176.732 119.416L176.778 119.582L176.824 119.759L176.87 119.947L176.936 120.213L176.986 120.425L177.036 120.644L177.101 120.948L177.167 121.264L177.232 121.587L177.298 121.918L177.363 122.257L177.398 122.438L177.432 122.619L177.498 122.981L177.552 123.289L177.602 123.593L177.652 123.893L177.698 124.186L177.74 124.471L177.783 124.748C177.79 124.794 177.794 124.837 177.802 124.883L177.821 125.014C177.929 125.784 177.894 126.219 177.594 126.58C177.413 126.796 177.194 126.915 176.797 127.05L176.685 127.089L176.47 127.154L176.324 127.196L176.185 127.235L176.058 127.27L175.935 127.3C175.5 127.408 175.192 127.435 174.841 127.397C174.168 127.324 173.579 126.888 173.452 126.303C173.44 126.257 173.471 126.211 173.517 126.199C173.563 126.188 173.609 126.219 173.621 126.265C173.733 126.769 174.256 127.158 174.861 127.223C175.099 127.25 175.319 127.243 175.584 127.196L175.685 127.177C175.719 127.17 175.754 127.162 175.792 127.154L175.904 127.127C175.904 127.127 175.942 127.119 175.962 127.112L176.085 127.081L176.212 127.046C176.235 127.039 176.258 127.035 176.281 127.027L176.424 126.985L176.574 126.939L176.689 126.9C177.094 126.769 177.301 126.657 177.463 126.465C177.698 126.184 177.744 125.83 177.675 125.229L177.659 125.102C177.659 125.079 177.652 125.056 177.652 125.037L177.613 124.775C177.606 124.729 177.602 124.686 177.594 124.64L177.552 124.363L177.505 124.074L177.459 123.778L177.409 123.478L177.355 123.173L177.282 122.754L177.201 122.323L177.121 121.895L177.055 121.56L176.99 121.233L176.924 120.914L176.89 120.76L176.839 120.536L176.805 120.39L176.77 120.248L176.72 120.044L176.674 119.851L176.628 119.67L176.597 119.558L176.566 119.451L176.535 119.351L176.505 119.258L176.478 119.17C176.478 119.17 176.47 119.143 176.462 119.127L176.435 119.05L176.408 118.981L176.381 118.919C176.381 118.919 176.374 118.9 176.37 118.892C176.351 118.85 176.37 118.796 176.412 118.777L176.408 118.773Z" fill="#231F20"/>
<path fill-rule="evenodd" clip-rule="evenodd" d="M181.973 122.83C182.019 122.822 182.065 122.857 182.069 122.903C182.077 122.949 182.081 122.996 182.089 123.038L182.104 123.165C182.166 123.769 182.108 124.15 181.846 124.466C181.665 124.682 181.446 124.801 181.049 124.936L180.937 124.974L180.722 125.04L180.576 125.082L180.437 125.121L180.31 125.155L180.187 125.186C179.752 125.294 179.444 125.321 179.093 125.282C178.42 125.209 177.831 124.774 177.704 124.189C177.692 124.143 177.723 124.097 177.769 124.085C177.815 124.073 177.861 124.104 177.873 124.15C177.985 124.655 178.508 125.044 179.113 125.109C179.351 125.136 179.571 125.128 179.836 125.082L179.936 125.063C179.971 125.055 180.006 125.047 180.044 125.04L180.156 125.013C180.156 125.013 180.194 125.005 180.214 124.997L180.337 124.967L180.464 124.932C180.487 124.924 180.51 124.92 180.533 124.913L180.676 124.87L180.826 124.824L180.941 124.786C181.346 124.655 181.553 124.543 181.715 124.351C181.942 124.077 181.992 123.735 181.935 123.173L181.919 123.049C181.915 123.007 181.908 122.965 181.9 122.919C181.892 122.872 181.927 122.826 181.973 122.822V122.83Z" fill="#231F20"/>
<path fill-rule="evenodd" clip-rule="evenodd" d="M168.624 126.403L167.242 119.773L169.448 118.703L171.535 118.707L172.424 123.431" fill="#C08F67"/>
<path fill-rule="evenodd" clip-rule="evenodd" d="M165.693 125.889C165.908 126.032 166.155 126.124 166.412 126.159C166.663 126.216 166.921 126.216 167.171 126.159C167.425 126.101 167.629 125.916 167.714 125.67C167.741 125.539 167.745 125.408 167.725 125.277C167.71 125.104 167.683 124.931 167.652 124.757C167.641 124.569 167.552 124.395 167.406 124.272C167.021 124.022 166.428 124.226 166.024 124.322C165.835 124.361 165.65 124.43 165.485 124.53C165.408 124.576 165.346 124.646 165.311 124.734C165.288 124.834 165.292 124.938 165.327 125.035C165.415 125.362 165.419 125.681 165.696 125.885L165.693 125.889Z" fill="#2A4054"/>
<path fill-rule="evenodd" clip-rule="evenodd" d="M169.976 126.795C170.322 126.895 170.688 126.895 171.034 126.795C171.523 126.683 172.039 126.429 172.212 125.96C172.293 125.679 172.305 125.382 172.243 125.097C172.201 124.816 172.124 124.493 171.866 124.37C171.704 124.312 171.531 124.3 171.365 124.339L170.796 124.416C170.464 124.439 170.145 124.527 169.848 124.678C169.032 125.17 169.028 126.456 169.976 126.795Z" fill="#2A4054"/>
<path fill-rule="evenodd" clip-rule="evenodd" d="M174.911 126.792C175.288 126.838 175.669 126.803 176.031 126.688C176.458 126.588 176.851 126.372 177.163 126.06C177.213 126.007 177.251 125.945 177.278 125.88C177.301 125.795 177.309 125.702 177.294 125.614C177.271 125.306 177.217 125.002 177.136 124.705C177.109 124.582 177.059 124.467 176.99 124.359C176.862 124.197 176.662 124.109 176.454 124.12C176.162 124.12 175.888 124.274 175.6 124.313C175.253 124.363 174.899 124.432 174.549 124.486C174.325 124.505 174.11 124.578 173.917 124.69C173.825 124.752 173.752 124.84 173.709 124.944C173.667 125.098 173.667 125.256 173.709 125.41C173.748 125.672 173.833 125.926 173.96 126.157C174.16 126.503 174.514 126.738 174.911 126.788V126.792Z" fill="#2A4054"/>
<path fill-rule="evenodd" clip-rule="evenodd" d="M179.179 124.52C179.556 124.555 179.937 124.52 180.295 124.405C180.719 124.308 181.112 124.112 181.435 123.823C181.485 123.777 181.524 123.723 181.554 123.662C181.577 123.585 181.585 123.504 181.577 123.423C181.558 123.15 181.512 122.876 181.439 122.614C181.254 121.968 180.908 122.283 180.438 122.43C179.934 122.587 179.41 122.649 178.883 122.622C178.671 122.587 178.451 122.607 178.247 122.68C177.782 122.911 178.036 123.658 178.24 123.973C178.455 124.289 178.802 124.489 179.183 124.516L179.179 124.52Z" fill="#2A4054"/>
<path fill-rule="evenodd" clip-rule="evenodd" d="M167.692 122.069C167.739 122.058 167.785 122.084 167.8 122.131C168.116 123.274 168.339 124.437 168.478 125.607C168.505 125.757 168.501 125.915 168.462 126.069C168.374 126.342 168.097 126.573 167.723 126.735C166.649 127.197 165.213 126.843 164.767 125.988C164.651 125.734 164.574 125.461 164.543 125.184C164.539 125.137 164.57 125.095 164.62 125.087C164.666 125.083 164.709 125.114 164.717 125.164C164.747 125.426 164.817 125.68 164.924 125.915C165.321 126.677 166.657 127.008 167.658 126.577C167.993 126.435 168.231 126.231 168.301 126.023C168.331 125.896 168.335 125.765 168.312 125.634C168.178 124.468 167.95 123.313 167.639 122.177C167.627 122.131 167.654 122.084 167.7 122.069H167.692Z" fill="#231F20"/>
<path d="M192.235 137.612C195.725 137.612 198.553 134.783 198.553 131.294C198.553 127.805 195.725 124.977 192.235 124.977C188.746 124.977 185.918 127.805 185.918 131.294C185.918 134.783 188.746 137.612 192.235 137.612Z" fill="#2A4054"/>
<path fill-rule="evenodd" clip-rule="evenodd" d="M194.932 130.865H192.669V128.601C192.669 128.517 192.599 128.447 192.515 128.447H191.953C191.868 128.447 191.799 128.517 191.799 128.601V130.865H189.535C189.45 130.865 189.381 130.934 189.381 131.019V131.581C189.381 131.666 189.45 131.735 189.535 131.735H191.791V133.999C191.791 134.083 191.86 134.153 191.945 134.153H192.507C192.592 134.153 192.661 134.083 192.661 133.999V131.735H194.925C195.009 131.735 195.079 131.666 195.079 131.581V131.019C195.079 130.938 195.013 130.869 194.932 130.865Z" fill="white"/>
<path fill-rule="evenodd" clip-rule="evenodd" d="M186.178 248.217L199.902 248.333L198.178 240.926L182.447 242.647L186.178 248.217Z" fill="#A9FF22"/>
<path fill-rule="evenodd" clip-rule="evenodd" d="M168.732 247.736L198.818 248.079C199.057 248.079 199.249 248.279 199.245 248.518C199.245 248.749 199.061 248.934 198.837 248.945H198.81L168.724 248.603C168.486 248.603 168.293 248.402 168.297 248.164C168.297 247.933 168.482 247.748 168.705 247.736H168.732Z" fill="#2A4054"/>
<path d="M247.149 73.2738V89.7509C247.149 91.8029 245.471 93.4814 243.419 93.4814C242.072 93.6662 240.724 93.8317 239.377 93.9895V104.049L233.494 94.594C217.109 96.0684 200.729 95.695 184.348 93.4775C182.296 93.4775 180.617 91.799 180.617 89.7471V73.2699C180.617 71.218 182.296 69.5395 184.348 69.5395C202.646 67.4798 222.511 67.7378 243.419 69.5395C245.471 69.5395 247.149 71.218 247.149 73.2699V73.2738Z" fill="#A9FF22"/>
<path fill-rule="evenodd" clip-rule="evenodd" d="M314.742 242.576L323.693 202.854L329.599 204.37L318.284 243.484L314.742 242.576Z" fill="#A9FF22"/>
<path fill-rule="evenodd" clip-rule="evenodd" d="M329.344 237.849L344.793 213.9L348.701 214.454L353.324 227.278L353.397 227.428L374.798 199.201L379.999 203.22L354.764 235.22L349.709 234.327L345.698 219.975L345.79 220.125L332.104 239.705L329.344 237.849Z" fill="#A9FF22"/>
<path fill-rule="evenodd" clip-rule="evenodd" d="M361.989 190.913C362.99 199.552 354.262 206.035 346.282 202.582C338.301 199.129 337.05 188.33 344.029 183.144C351.009 177.958 360.988 182.274 361.989 190.913Z" fill="#A9FF22"/>
<path d="M199.07 84.3258C200.622 84.3258 201.88 83.0675 201.88 81.5154C201.88 79.9633 200.622 78.7051 199.07 78.7051C197.518 78.7051 196.26 79.9633 196.26 81.5154C196.26 83.0675 197.518 84.3258 199.07 84.3258Z" fill="#2A4054"/>
<path d="M212.652 84.3258C214.204 84.3258 215.463 83.0675 215.463 81.5154C215.463 79.9633 214.204 78.7051 212.652 78.7051C211.1 78.7051 209.842 79.9633 209.842 81.5154C209.842 83.0675 211.1 84.3258 212.652 84.3258Z" fill="#2A4054"/>
<path d="M226.242 84.3258C227.794 84.3258 229.052 83.0675 229.052 81.5154C229.052 79.9633 227.794 78.7051 226.242 78.7051C224.69 78.7051 223.432 79.9633 223.432 81.5154C223.432 83.0675 224.69 84.3258 226.242 84.3258Z" fill="#2A4054"/>
<path d="M123.125 104.217L119.163 104.4C119.137 103.372 119.099 102.336 119.052 101.313C118.912 98.1096 118.68 94.3927 117.64 90.8425C116.45 86.8034 114.126 84.2658 111.092 83.6973C108.233 83.1659 105.093 84.6612 103.277 87.4231C101.837 89.6086 101.376 92.1701 101.034 94.0477C100.404 97.5293 99.7617 101.334 99.4097 105.288L96.9442 105.403L97.0359 109.654L99.1535 109.66C99.1098 111.334 99.1324 113.025 99.2503 114.712L104.782 114.337C104.673 112.787 104.658 111.237 104.702 109.683L113.695 109.719C113.696 110.556 113.693 111.393 113.677 112.23L113.59 112.23L113.602 115.665L119.151 115.738C119.215 113.745 119.242 111.747 119.239 109.741L123.247 109.758L123.129 104.217L123.125 104.217ZM104.996 105.037C105.344 101.548 105.92 98.1531 106.489 95.032C106.831 93.1503 107.152 91.6167 107.905 90.4721C108.476 89.6095 109.42 89.0324 110.071 89.1477C110.9 89.3043 111.776 90.5838 112.312 92.4024C113.177 95.3561 113.38 98.5426 113.508 101.547C113.554 102.575 113.589 103.61 113.61 104.642L104.991 105.033L104.996 105.037Z" fill="#2A4054"/>
<path d="M131.498 93.8281C131.789 101.215 131.703 108.602 131.239 115.95L127.579 115.852C127.508 108.614 127.064 101.392 126.25 94.2252L131.498 93.8281Z" fill="#2A4054"/>
<path d="M127.822 91.6346C129.672 91.6346 131.172 90.135 131.172 88.2851C131.172 86.4352 129.672 84.9355 127.822 84.9355C125.972 84.9355 124.473 86.4352 124.473 88.2851C124.473 90.135 125.972 91.6346 127.822 91.6346Z" fill="#2A4054"/>
<path d="M31.8965 162.587C38.5797 160.817 45.8867 158.872 50.0521 153.217C52.0001 150.549 53.2167 147.173 54.3139 143.677C57.617 133.221 59.103 122.195 58.7103 111.231C58.5679 108.613 58.3331 104.567 55.3957 103.759C52.6777 103.308 49.5632 105.949 48.1349 108.34C46.391 111.162 45.6018 114.677 45.4709 118.18C45.4593 120.667 45.3977 123.296 46.6913 125.345C48.0233 127.239 50.4833 127.635 52.8086 127.581C62.1636 126.934 67.3916 117.991 72.1153 110.823C76.0729 104.817 86.5136 88.9601 90.5905 82.7734L92.4769 83.9977C88.4231 90.3421 78.2904 106.184 74.3867 112.298C71.3454 117.002 68.3618 122.161 63.9499 125.907C59.3725 129.833 52.4814 132.309 46.7105 129.479C42.5489 127.396 42.0869 122.192 42.1601 118.092C42.2986 112.082 44.2274 105.468 49.4978 101.938C51.3765 100.644 53.6748 99.7742 56.0925 100.213C60.9933 101.133 62.3907 106.954 62.4754 111.073C63.0953 124.405 61.1973 137.891 56.4775 150.414C54.1907 156.42 49.8866 160.732 44.058 163.369C40.4469 165.059 36.7241 166.118 33.113 167.123L31.8965 162.599V162.587Z" fill="#A9FF22"/>
<path d="M134.143 71.5066C131.687 68.038 128.342 65.1891 126.548 61.0506C123.845 54.6291 126.286 47.6764 133.858 46.9834C137.15 46.6639 140.349 47.0027 143.598 47.0873C155.733 47.6071 168.857 48.3924 179.941 43.253C186.97 40.0576 193.357 34.4831 195.652 26.9375L200.125 28.3234C199.386 30.5217 198.396 32.6198 197.168 34.564C193.453 40.2501 187.836 44.4425 181.681 47.1335C167.625 53.3125 151.964 50.9795 137.15 50.3558C135.14 50.2827 133.192 50.3597 131.699 51.018C127.348 52.9852 128.461 59.0525 130.836 62.3287C132.576 64.9581 134.725 67.1025 136.58 69.8089L134.139 71.5028L134.143 71.5066Z" fill="#A9FF22"/>
<path d="M119.007 126.867C120.166 134.401 118.156 142.316 113.59 148.418C111.288 151.487 108.154 154.347 104.297 155.429C97.733 157.615 89.533 151.406 92.8361 144.372C94.5608 141.023 98.3105 139.198 101.983 139.26C107.342 139.406 111.854 142.994 115.781 146.116C123.084 152.064 130.152 158.474 139.665 159.871C144.115 160.603 148.724 160.376 153.062 159.175L154.275 163.698C144.277 166.312 133.244 164.214 124.824 158.285C120.651 155.452 117.028 152.137 113.356 149.08C109.948 146.305 106.26 143.067 101.86 142.801C99.5347 142.705 96.9631 143.837 95.8389 145.889C94.1874 149.03 97.4597 152.291 100.524 152.684C102.514 152.988 104.667 152.299 106.414 151.225C112.151 147.564 115.646 140.769 116.609 134.109C116.909 131.822 116.92 129.496 116.62 127.21L119.003 126.859L119.007 126.867Z" fill="#A9FF22"/>
<path d="M82.0121 202.906C87.0224 182.766 74.7557 162.377 54.6138 157.366C34.4719 152.356 14.0821 164.62 9.07182 184.76C4.06159 204.9 16.3282 225.289 36.4702 230.299C56.6121 235.31 77.0019 223.045 82.0121 202.906Z" fill="#C699FF"/>
<path d="M62.5982 209.466C64.1304 207.333 64.269 204.723 62.9947 202.101C61.1429 197.531 54.6676 195.452 47.8188 193.25C47.5762 193.173 47.3337 193.092 47.095 193.019C48.0767 189.747 49.3856 186.486 50.9641 183.368C50.9756 183.376 50.9872 183.383 51.0026 183.391C55.7648 186.413 59.0409 190.321 59.0717 190.363L63.6799 186.552C63.526 186.367 59.8609 181.967 54.348 178.432C54.2094 178.344 54.0708 178.255 53.9323 178.171C54.9371 176.596 56.0073 175.087 57.1353 173.666C58.2556 172.373 58.0554 170.375 56.6887 169.339C55.3759 168.334 53.5011 168.585 52.4963 169.894C52.4231 169.99 52.2807 170.175 52.2075 170.271C50.9718 171.969 49.8438 173.743 48.8043 175.568C43.0373 173.312 37.4551 173.401 32.4119 175.876C30.3253 176.839 26.8913 179.064 26.9721 183.283C27.0876 189.343 34.6371 194.69 39.3685 196.634C39.9151 196.858 40.4849 197.077 41.0739 197.293C40.7428 199.502 40.5504 201.739 40.5119 203.976C37.9594 202.186 35.5225 199.502 34.125 195.487L28.4774 197.45C30.0712 202.024 32.9932 205.935 36.9315 208.757C37.1009 208.881 37.2742 208.996 37.4436 209.115C38.5408 209.862 39.7034 210.521 40.9122 211.09C40.9892 211.649 41.0739 212.249 41.1201 212.546C41.2741 213.319 41.4243 214.205 41.5898 214.971C41.8169 215.876 42.1403 217.277 42.4329 218.147L42.918 219.718C43.8227 222.232 47.4261 221.065 46.71 218.509C46.5714 217.97 46.2788 216.884 46.1326 216.338C46.0325 215.93 45.763 214.536 45.6744 214.143C45.5974 213.7 45.5281 213.215 45.4588 212.742C46.4367 213 47.4299 213.204 48.4386 213.35C54.7908 214.27 60.219 212.784 62.602 209.466H62.5982ZM41.6321 191.102C39.5225 190.232 37.2434 188.758 35.5341 187.152C33.6438 185.377 32.9547 183.926 32.9393 183.168C32.9239 182.375 34.0095 181.712 34.9258 181.297L35.0066 181.258C38.3675 179.599 42.0672 179.487 46.0479 180.919C45.9824 181.058 45.9208 181.2 45.8554 181.339C44.4001 184.569 43.1836 187.93 42.2828 191.368C42.0595 191.283 41.8439 191.195 41.6321 191.106V191.102ZM45.0123 206.32C45.0238 203.833 45.2702 201.316 45.7014 198.852C45.7976 198.883 45.89 198.913 45.9863 198.944C48.8313 199.86 51.7725 200.804 54.0439 201.874C56.8311 203.187 57.3624 204.118 57.4548 204.372L57.5126 204.523L57.5857 204.669C58.04 205.562 57.836 205.843 57.7397 205.978C57.0159 206.986 53.913 208.107 49.2894 207.437C48.4039 207.31 46.8332 207.006 45.0123 206.328V206.32Z" fill="white"/>
</svg>
