<svg width="303" height="281" viewBox="0 0 303 281" fill="none" xmlns="http://www.w3.org/2000/svg">
<path fill-rule="evenodd" clip-rule="evenodd" d="M107.551 236.537C145.097 269.682 244.832 272.795 274.624 244.61C304.412 216.425 266.054 224.987 253.707 242.497C254.594 200.094 257.974 191.548 225.155 233.218C192.336 274.888 161.523 228.125 154.56 213.962C147.597 199.799 139.747 207.153 147.028 230.731C108.893 181.458 70.0081 203.392 107.554 236.537" fill="#A9FF22"/>
<path fill-rule="evenodd" clip-rule="evenodd" d="M107.551 236.537C145.097 269.682 244.832 272.795 274.624 244.61C304.412 216.425 266.054 224.987 253.707 242.497C254.594 200.094 257.974 191.548 225.155 233.218C192.336 274.888 161.523 228.125 154.56 213.962C147.597 199.799 139.747 207.153 147.028 230.731C108.893 181.458 70.0081 203.392 107.554 236.537" fill="black"/>
<path fill-rule="evenodd" clip-rule="evenodd" d="M272.21 218.471C269.313 221.927 264.901 221.914 264.274 218.441C263.648 214.971 267.271 210.648 270.799 210.662C274.327 210.676 275.111 215.015 272.21 218.471Z" fill="#A9FF22"/>
<path fill-rule="evenodd" clip-rule="evenodd" d="M128.796 198.428C127.258 200.445 124.11 200.041 123.134 197.698C122.158 195.359 124.079 192.835 126.597 193.157C129.114 193.482 130.337 196.407 128.796 198.425" fill="#A9FF22"/>
<path fill-rule="evenodd" clip-rule="evenodd" d="M272.21 218.471C269.313 221.927 264.901 221.914 264.274 218.441C263.648 214.971 267.271 210.648 270.799 210.662C274.327 210.676 275.111 215.015 272.21 218.471Z" fill="#A9FF22"/>
<path fill-rule="evenodd" clip-rule="evenodd" d="M128.796 198.428C127.258 200.445 124.11 200.041 123.134 197.698C122.158 195.359 124.079 192.835 126.597 193.157C129.114 193.482 130.337 196.407 128.796 198.425V198.428Z" fill="#A9FF22"/>
<path fill-rule="evenodd" clip-rule="evenodd" d="M218.291 263.2L263.554 252.209C302.281 249.839 268.643 265.717 218.291 263.2Z" fill="#A9FF22"/>
<path d="M302.124 260.351L187.713 260.73L187.719 262.429L302.13 262.05L302.124 260.351Z" fill="#A9FF22"/>
<path fill-rule="evenodd" clip-rule="evenodd" d="M207.263 99.5771C178.711 159.958 191.627 212.034 230.513 193.305C269.398 174.58 305.094 99.101 294.757 57.4449C284.424 15.7854 235.811 39.196 207.26 99.5771" fill="#A9FF22"/>
<path fill-rule="evenodd" clip-rule="evenodd" d="M46.2836 52.4848C61.0801 83.78 54.3874 110.77 34.2341 101.063C14.0808 91.3563 -4.41817 52.2382 0.935265 30.6498C6.29213 9.05794 31.4872 21.1897 46.2836 52.4848Z" fill="#A9FF22"/>
<path fill-rule="evenodd" clip-rule="evenodd" d="M188.708 56.8404L167.301 35.2863L170.623 32.1797L190.701 54.9772L188.708 56.8404Z" fill="#C699FF"/>
<path fill-rule="evenodd" clip-rule="evenodd" d="M191.583 45.756L182.705 26.435L184.62 24.1984L194.546 26.4281L194.666 26.4418L185.479 1.66118L190.096 0L200.118 28.7058L197.529 31.5281L186.891 28.3016H187.021L193.857 44.7627L191.583 45.756Z" fill="#C699FF"/>
<path fill-rule="evenodd" clip-rule="evenodd" d="M175.137 6.39575C180.974 9.22831 181.556 17.3184 176.186 20.9559C170.815 24.5933 163.516 21.0552 163.05 14.5818C162.584 8.11173 169.301 3.56319 175.137 6.39575Z" fill="#C699FF"/>
<path fill-rule="evenodd" clip-rule="evenodd" d="M134.038 260.133H213.99L208.472 249.947L215.278 232.29L194.004 220.148L175.971 225.279L164.021 229.715L151.882 227.691L137.716 231.369L127.047 245.35V260.133H134.038Z" fill="#C699FF"/>
<path fill-rule="evenodd" clip-rule="evenodd" d="M198.624 229.89C199.247 228.907 200.384 228.383 201.535 228.547C201.891 228.599 202.141 228.931 202.09 229.287C202.042 229.63 201.734 229.873 201.395 229.846H201.354C200.734 229.753 200.121 230.024 199.768 230.534L199.737 230.579L199.703 230.644C199.566 230.904 199.487 231.192 199.463 231.5V231.592C199.412 232.247 199.634 232.89 200.069 233.367C200.46 233.784 201.049 233.959 201.6 233.826L201.648 233.812L201.689 233.798C202.152 233.62 202.443 233.154 202.402 232.661V232.623L202.391 232.596C202.292 232.202 201.809 231.904 201.456 232L201.419 232.014C201.08 232.14 200.703 231.966 200.58 231.627C200.456 231.288 200.628 230.911 200.967 230.787C202.1 230.37 203.422 231.168 203.676 232.342L203.69 232.404V232.438C203.84 233.569 203.183 234.644 202.121 235.031L202.052 235.055L202.025 235.062C200.98 235.363 199.853 235.052 199.107 234.25C198.425 233.5 198.083 232.507 198.151 231.52C198.168 230.993 198.305 230.476 198.555 230.007L198.61 229.907L198.624 229.883V229.89Z" fill="white"/>
<path fill-rule="evenodd" clip-rule="evenodd" d="M172.57 233.708C172.995 233.276 173.488 233.215 174.197 233.331L174.348 233.358L174.458 233.376C174.985 233.461 175.496 233.626 175.982 233.869L176.102 233.93C176.79 234.314 177.218 235.04 177.222 235.831C177.222 236.191 176.931 236.486 176.571 236.486C176.225 236.486 175.941 236.218 175.917 235.876V235.831C175.917 235.516 175.742 235.222 175.478 235.074C175.102 234.876 174.697 234.739 174.28 234.667L174.119 234.643C173.899 234.602 173.749 234.585 173.632 234.591C173.591 234.591 173.56 234.598 173.54 234.605L173.523 234.612L173.502 234.646C173.454 234.739 173.427 234.838 173.427 234.941V234.992C173.427 235.016 173.427 235.04 173.427 235.064L173.416 235.259V235.444C173.396 236.246 173.495 236.705 173.769 237.003L173.786 237.023L173.845 237.071C174.04 237.229 174.259 237.356 174.495 237.441L174.619 237.482C175.444 237.794 176.287 238.047 177.146 238.239C177.499 238.318 177.718 238.667 177.64 239.02C177.561 239.373 177.211 239.592 176.859 239.513C176.033 239.325 175.218 239.089 174.423 238.801L174.17 238.705L174.084 238.678C173.687 238.537 173.321 238.328 172.999 238.061L172.913 237.986L172.886 237.958C172.262 237.335 172.088 236.602 172.111 235.42L172.118 235.215L172.125 235.03V234.989C172.115 234.578 172.238 234.174 172.471 233.835L172.519 233.766C172.536 233.742 172.553 233.721 172.574 233.701L172.57 233.708Z" fill="white"/>
<path fill-rule="evenodd" clip-rule="evenodd" d="M188.92 251.397C189.053 251.062 189.434 250.897 189.769 251.031C190.105 251.164 190.269 251.545 190.136 251.88C189.882 252.521 190.05 253.329 190.578 254.298L190.629 254.391L190.622 254.319C190.54 253.466 191.006 252.685 191.787 251.997L191.848 251.942L191.917 251.877C192.318 251.521 192.794 251.257 193.318 251.099L193.431 251.069C194.143 250.89 194.897 251.116 195.397 251.647L195.448 251.702L195.476 251.736C195.965 252.384 195.945 253.127 195.637 254.11L195.613 254.182L195.592 254.268C195.438 254.826 195.154 255.34 194.763 255.768L194.684 255.853L194.643 255.891C193.89 256.542 193.003 256.634 191.701 256.401L191.499 256.364C191.465 256.357 191.431 256.35 191.396 256.343L191.198 256.302L191.136 256.292C190.824 256.234 190.53 256.121 190.259 255.956L190.18 255.905C190.156 255.888 190.136 255.874 190.115 255.853C189.903 255.668 189.725 255.449 189.588 255.206L189.55 255.134L189.499 255.045C188.769 253.754 188.495 252.579 188.889 251.486L188.92 251.401V251.397ZM194.431 252.524C194.253 252.346 193.996 252.274 193.76 252.332C193.403 252.425 193.078 252.6 192.801 252.843L192.708 252.925C192.17 253.384 191.889 253.839 191.927 254.206L191.934 254.25C191.992 254.593 191.773 254.918 191.441 254.997L191.403 255.004L191.472 255.018C192.64 255.275 193.328 255.268 193.756 254.932L193.773 254.918L193.814 254.874C194.058 254.607 194.232 254.285 194.332 253.935L194.356 253.846L194.369 253.798C194.571 253.175 194.599 252.778 194.458 252.555L194.451 252.545L194.434 252.524H194.431Z" fill="white"/>
<path fill-rule="evenodd" clip-rule="evenodd" d="M203.037 253.499C203.924 252.695 205.287 252.496 206.263 253.119C207.051 253.616 207.482 254.506 207.623 255.589L207.633 255.678L207.647 255.757C207.722 256.284 207.657 256.822 207.455 257.329L207.414 257.428C207.085 258.13 206.338 258.534 205.571 258.428C205.215 258.377 204.965 258.045 205.016 257.688C205.064 257.346 205.373 257.103 205.712 257.13H205.753C205.951 257.164 206.143 257.058 206.222 256.89C206.352 256.596 206.397 256.274 206.356 255.955L206.338 255.835C206.249 255.061 205.982 254.486 205.564 254.222C205.126 253.945 204.437 254.03 203.968 254.424L203.927 254.458L203.879 254.506C203.434 254.979 203.187 255.606 203.187 256.27V256.356C203.201 257.538 203.773 258.647 204.729 259.346C205.02 259.558 205.085 259.969 204.872 260.261C204.66 260.552 204.249 260.617 203.958 260.404C202.698 259.483 201.934 258.034 201.886 256.493V256.39C201.845 255.349 202.228 254.342 202.948 253.592L203.02 253.52L203.04 253.499H203.037Z" fill="white"/>
<path fill-rule="evenodd" clip-rule="evenodd" d="M204.359 240.484C206.136 240.069 208.041 241.415 208.366 243.203L208.38 243.279C208.544 244.131 208.301 245.008 207.729 245.659L207.667 245.724L207.647 245.745C206.914 246.454 205.705 246.57 204.917 245.912C204.366 245.436 204.143 244.683 204.349 243.981C204.451 243.635 204.814 243.436 205.16 243.535C205.492 243.631 205.688 243.97 205.616 244.306L205.606 244.347C205.544 244.556 205.612 244.779 205.767 244.916C205.993 245.104 206.424 245.073 206.702 244.84L206.729 244.813L206.763 244.775C207.044 244.447 207.167 244.015 207.102 243.57L207.092 243.498C206.917 242.385 205.701 241.511 204.657 241.754C203.629 241.994 202.975 243.32 203.417 244.214L203.434 244.244L203.513 244.364C203.646 244.57 203.773 244.782 203.89 244.998L203.975 245.162C203.985 245.183 203.996 245.203 204.003 245.224C204.071 245.406 204.112 245.56 204.14 245.762L204.157 245.892C204.157 245.916 204.164 245.94 204.164 245.964L204.177 246.118L204.201 246.385L204.215 246.502L204.229 246.597C204.273 246.861 204.383 247.026 204.448 247.046C204.797 247.139 205.006 247.495 204.914 247.844C204.821 248.194 204.465 248.403 204.116 248.31C203.451 248.135 203.061 247.533 202.937 246.817L202.924 246.724L202.91 246.632L202.9 246.529L202.865 246.142L202.855 246.046L202.845 245.964L202.835 245.892L202.821 245.83C202.821 245.83 202.818 245.81 202.814 245.803L202.8 245.751L202.794 245.728L202.722 245.591C202.633 245.426 202.537 245.265 202.434 245.108L202.331 244.95C202.317 244.933 202.307 244.916 202.297 244.895C201.376 243.224 202.485 240.915 204.359 240.48V240.484Z" fill="white"/>
<path fill-rule="evenodd" clip-rule="evenodd" d="M160.634 229.379C161.127 229.18 161.669 229.122 162.193 229.215L162.247 229.225L162.343 229.235C163.1 229.314 163.83 229.561 164.484 229.951L164.597 230.023L164.624 230.04C165.453 230.626 165.967 231.571 165.861 232.544C165.703 233.647 164.84 234.513 163.71 234.671C162.665 234.777 161.645 234.315 161.035 233.458C160.826 233.164 160.894 232.756 161.189 232.547C161.484 232.338 161.891 232.407 162.1 232.702C162.436 233.174 163.001 233.431 163.552 233.376C164.08 233.301 164.491 232.89 164.563 232.386C164.607 231.965 164.357 231.482 163.926 231.153L163.881 231.119L163.796 231.064C163.313 230.78 162.778 230.602 162.223 230.54L162.062 230.523L162.021 230.516C161.744 230.458 161.46 230.475 161.192 230.568L161.165 230.578L161.148 230.588C160.984 230.694 160.85 230.845 160.757 231.023L160.727 231.085C160.086 232.458 160.614 234.096 161.932 234.839C162.247 235.017 162.357 235.414 162.179 235.729C162.001 236.044 161.603 236.154 161.288 235.976C159.374 234.894 158.613 232.523 159.535 230.537C159.747 230.068 160.1 229.674 160.549 229.417C160.576 229.403 160.603 229.389 160.631 229.376L160.634 229.379Z" fill="white"/>
<path fill-rule="evenodd" clip-rule="evenodd" d="M145.145 234.971C145.71 233.515 147.505 232.775 149.132 233.135C150.327 233.399 151.314 234.063 152.536 235.245L152.636 235.344L152.68 235.382C152.947 235.622 153.16 235.92 153.297 236.255L153.331 236.341C153.345 236.375 153.351 236.409 153.358 236.444C153.502 237.187 153.187 237.944 152.55 238.368C152.07 238.68 151.529 238.889 150.968 238.988C150.611 239.05 150.272 238.81 150.211 238.454C150.152 238.112 150.368 237.786 150.7 237.707L150.742 237.697C151.132 237.629 151.505 237.485 151.827 237.276C151.995 237.166 152.088 236.978 152.081 236.783V236.742L152.074 236.735C152.012 236.598 151.927 236.474 151.817 236.372L151.731 236.293C150.615 235.197 149.776 234.621 148.844 234.412C147.799 234.183 146.669 234.649 146.361 235.443C146.121 236.06 146.272 236.759 146.816 237.779L146.912 237.957C146.929 237.988 146.947 238.019 146.964 238.05L147.073 238.238C147.111 238.303 147.149 238.368 147.19 238.434C147.378 238.742 147.279 239.146 146.971 239.331C146.662 239.519 146.258 239.42 146.073 239.112L145.95 238.903L145.833 238.701C145.796 238.632 145.758 238.567 145.724 238.502L145.621 238.31C144.936 237.005 144.737 236.022 145.148 234.974L145.145 234.971Z" fill="white"/>
<path fill-rule="evenodd" clip-rule="evenodd" d="M61.4565 69.8864L54.918 52.1375C54.7913 51.9936 54.7193 51.8052 54.7228 51.6134L55.3907 32.0664C55.3907 31.8574 55.4797 31.6622 55.6373 31.5286C55.7948 31.3951 56.0038 31.3334 56.2093 31.3677L64.8268 33.0014C65.1419 33.0562 65.4536 32.885 65.5769 32.587L71.3174 19.7189C71.403 19.5065 71.5914 19.3524 71.814 19.3079C72.0367 19.2633 72.2696 19.3353 72.4306 19.4997L79.7534 26.9356C79.8425 27.028 79.9589 27.0897 80.0822 27.1205L96.8207 31.1142C97.0913 31.1861 97.2968 31.4088 97.3448 31.6828L98.9135 39.6941C98.982 40.016 98.8313 40.3483 98.5436 40.5058L62.2717 70.0405C61.9977 70.1809 61.662 70.1159 61.46 69.8829L61.4565 69.8864Z" fill="#C699FF"/>
<path fill-rule="evenodd" clip-rule="evenodd" d="M71.4785 25.3921C71.8381 25.3852 72.1395 25.673 72.1464 26.0326C72.1567 26.5121 72.1806 26.9882 72.2252 27.4643L72.2526 27.7417L72.2594 27.7314C72.4684 27.4403 72.6567 27.1389 72.8314 26.8272L72.917 26.6697C73.2459 26.0463 74.1946 26.3134 74.1467 27.0156C74.0953 27.8205 74.359 28.6562 74.9344 29.6701L74.9721 29.7386L75.1297 29.6392C75.5852 29.3481 76.027 29.0433 76.462 28.7213L76.7189 28.5261C77.0066 28.3069 77.4176 28.3617 77.6368 28.6494C77.856 28.9371 77.8012 29.3481 77.5135 29.5673C76.8696 30.0605 76.2017 30.5195 75.5133 30.9476L75.2701 31.0949L75.2598 31.1017C75.1125 31.1976 74.9344 31.2456 74.7597 31.2388H74.7015C74.681 31.2319 74.6604 31.2285 74.6399 31.225C74.4686 31.1908 74.335 31.1052 74.2289 30.9956C74.1741 30.9373 74.1364 30.886 74.0987 30.8243C73.6637 30.129 73.3383 29.4885 73.1225 28.872L73.0986 28.8001L73.0335 28.8823C72.8383 29.1323 72.6293 29.3755 72.4101 29.605L72.2765 29.742C71.9066 30.1222 71.2593 29.9235 71.1668 29.3995C70.9682 28.2966 70.8586 27.1766 70.838 26.0566C70.8312 25.6969 71.1189 25.3955 71.4785 25.3887V25.3921Z" fill="white"/>
<path fill-rule="evenodd" clip-rule="evenodd" d="M79.8779 31.5228C80.2307 31.4509 80.5766 31.6838 80.6485 32.0366C80.8095 32.8483 81.1315 33.619 81.5905 34.3074L81.6213 34.352L81.7925 34.1978C82.0939 33.9204 82.3919 33.6361 82.6865 33.3416L82.9057 33.1189C83.2962 32.7216 83.9743 32.9614 84.0223 33.5162C84.0668 33.9992 84.2312 34.4581 84.4984 34.852L84.5429 34.9137L84.5497 34.9068C85.156 34.0368 85.7006 33.1223 86.1801 32.177L86.3102 31.9167C86.4712 31.5913 86.8617 31.4612 87.1871 31.6187C87.5125 31.7797 87.6426 32.1702 87.4851 32.4955C86.8548 33.7765 86.115 34.9993 85.2622 36.1604C85.2039 36.2358 85.1457 36.2974 85.0704 36.3591C84.9334 36.4618 84.7689 36.5303 84.5806 36.5303C84.5463 36.5303 84.5086 36.5303 84.4744 36.52C84.2963 36.4892 84.1319 36.4036 84.0051 36.2769L83.9983 36.27L83.9367 36.2118C83.5702 35.8453 83.2756 35.4206 83.0667 34.9513L83.0187 34.8417L82.9091 34.9445C82.7516 35.0918 82.594 35.2356 82.4365 35.3795L82.2138 35.5747L82.2035 35.585C82.0597 35.722 81.8782 35.8145 81.6829 35.8521L81.6247 35.8624C81.5596 35.8693 81.4945 35.8693 81.4295 35.8556C81.176 35.811 80.95 35.6706 80.8027 35.4617L80.7684 35.4103L80.7034 35.3247C80.0663 34.465 79.621 33.482 79.3915 32.4373L79.3607 32.2935C79.2888 31.9407 79.5217 31.5947 79.8745 31.5228H79.8779Z" fill="white"/>
<path fill-rule="evenodd" clip-rule="evenodd" d="M60.7063 34.5129C61.0659 34.4684 61.3913 34.7185 61.4393 35.0781C61.5215 35.7152 61.5557 36.3556 61.542 36.9961L61.5352 37.2188V37.2393C61.5352 37.4106 61.4906 37.5784 61.4084 37.7291L61.3742 37.7839C61.3639 37.801 61.3502 37.8216 61.3365 37.8387C61.0694 38.1812 60.7234 38.2258 60.3467 38.147L60.2953 38.1367L60.172 38.1059L60.1583 38.1401L60.1309 38.1915L60.1 38.2395C60.0692 38.2874 60.0316 38.3319 59.9905 38.373C59.8123 38.5374 59.5794 38.6196 59.3397 38.6128H59.2815L59.2232 38.6059C57.8361 38.5409 56.5859 37.7599 55.918 36.5406L55.8735 36.4584C55.7091 36.1364 55.8324 35.7426 56.1543 35.5782C56.4763 35.4137 56.8702 35.5371 57.0346 35.859C57.2024 36.181 57.4285 36.4584 57.6991 36.6845L57.7573 36.7324L57.7504 36.7187C57.5278 36.27 57.9114 35.6878 58.4628 35.7905L58.504 35.8008C58.9869 35.9207 59.4082 36.1878 59.7164 36.5509L59.7267 36.5646L59.7815 36.592C59.8911 36.6399 60.0041 36.6879 60.1172 36.7256L60.2302 36.7632V36.753C60.2302 36.3214 60.2097 35.8898 60.1617 35.4617L60.1377 35.2459C60.0932 34.8863 60.3432 34.5609 60.7029 34.5129H60.7063Z" fill="white"/>
<path fill-rule="evenodd" clip-rule="evenodd" d="M56.2847 46.9688C56.6444 46.9825 56.9286 47.2839 56.9149 47.6435C56.9115 47.7668 56.9081 47.8867 56.9115 48.01V48.1984L56.9903 48.1127C57.028 48.0682 57.0622 48.0237 57.0999 47.9791L57.2061 47.8421C57.5383 47.4072 58.1822 47.5579 58.3432 48.0168L58.3501 48.0442C58.535 47.9449 58.7645 47.938 58.9631 48.0442L59.0008 48.0682C59.2954 48.2497 59.3913 48.6299 59.2337 48.9313L59.2098 48.969L58.6891 49.8013C58.6241 49.9075 58.583 49.9657 58.4973 50.0479C58.3329 50.202 58.1103 50.2877 57.8671 50.2603C57.576 50.2294 57.367 50.0582 57.2506 49.8287L57.2369 49.7979L57.2198 49.7602L57.1102 49.8595C57.0656 49.9006 57.0177 49.9417 56.9697 49.9828L56.8259 50.1027C56.4423 50.4144 55.8669 50.2055 55.771 49.7225C55.6339 49.0272 55.5791 48.3148 55.6031 47.6058C55.6168 47.2462 55.9182 46.9619 56.2779 46.9756L56.2847 46.9688Z" fill="white"/>
<path fill-rule="evenodd" clip-rule="evenodd" d="M92.5247 33.4211C92.874 33.3355 93.2302 33.5513 93.3159 33.9006C93.3775 34.1506 93.4529 34.3973 93.5419 34.6404L93.583 34.7466L93.6447 34.6576C93.7954 34.4418 93.9495 34.2294 94.1105 34.0239L94.2715 33.8184C94.59 33.4211 95.2168 33.5273 95.3915 33.9965L95.4052 34.041L95.5251 34.4384L95.5799 34.4144C95.7545 34.3322 95.9258 34.2397 96.0936 34.1404L96.2169 34.065C96.5218 33.8698 96.9259 33.9588 97.1212 34.2637C97.3164 34.5685 97.2273 34.9727 96.9225 35.1679C96.6211 35.3631 96.3025 35.531 95.9737 35.6748L95.8299 35.733L95.8059 35.7433C95.6072 35.8324 95.388 35.8666 95.1723 35.8392L95.1072 35.8289C95.0832 35.8255 95.0627 35.8187 95.0387 35.8118C94.8777 35.7639 94.7544 35.6954 94.6551 35.6029L94.6105 35.5584L94.5797 35.6029C94.4461 35.8015 94.3194 36.0036 94.1995 36.2091L94.0797 36.4146C93.833 36.8496 93.2097 36.8599 92.9494 36.4318C92.5349 35.7433 92.2267 34.9932 92.0383 34.2123C91.9527 33.8629 92.1684 33.5067 92.5178 33.4211H92.5247Z" fill="white"/>
<path fill-rule="evenodd" clip-rule="evenodd" d="M74.0693 35.3883C74.3125 35.1212 74.727 35.104 74.9941 35.3472C75.2476 35.5801 75.275 35.9706 75.0626 36.2343L75.0318 36.2686L74.0008 37.392C73.881 37.5359 73.72 37.6352 73.5384 37.6729L73.4837 37.6831C73.4631 37.6831 73.4425 37.6866 73.422 37.69C73.3466 37.6934 73.2747 37.6866 73.2062 37.6695L73.172 37.6592L73.1583 37.7071V37.7311C73.1035 37.9298 73.0041 38.1147 72.8671 38.2654L72.8192 38.3134C72.7747 38.3579 72.7233 38.3956 72.6685 38.423C72.3294 38.6011 71.9252 38.6011 71.5861 38.423L71.5724 38.4161L71.5108 38.3887C70.6956 38.0222 70.0209 37.4023 69.5859 36.6214L69.5379 36.5289C69.3701 36.2104 69.4934 35.813 69.8119 35.6452C70.1305 35.4774 70.5278 35.6007 70.6956 35.9192C70.9593 36.4227 71.3669 36.8337 71.8636 37.1009L71.9629 37.1523L72.2951 36.0117C72.4664 35.426 73.2644 35.3746 73.5145 35.9124L73.5384 35.9706L74.0796 35.3815L74.0693 35.3883Z" fill="white"/>
<path fill-rule="evenodd" clip-rule="evenodd" d="M38.3406 152.241C38.3406 152.241 46.5197 151.48 47.4719 156.806C47.4719 156.806 51.2772 154.902 53.3699 159.279C53.3699 159.279 59.0796 156.806 61.3607 162.132L66.31 172.034H43.6666L36.8164 155.094L38.3372 152.241H38.3406Z" fill="#C699FF"/>
<path d="M139.583 192.565C141.821 191.806 141.426 184.676 138.701 176.64C135.976 168.603 131.953 162.704 129.715 163.462C127.478 164.221 127.873 171.351 130.598 179.387C133.323 187.424 137.346 193.324 139.583 192.565Z" fill="#231F20"/>
<path d="M146.169 39.2168H63.3225C61.5728 39.2168 60.1543 40.6353 60.1543 42.385V176.074C60.1543 177.823 61.5728 179.242 63.3225 179.242H146.169C147.919 179.242 149.337 177.823 149.337 176.074V42.385C149.337 40.6353 147.919 39.2168 146.169 39.2168Z" fill="#2A4054"/>
<path fill-rule="evenodd" clip-rule="evenodd" d="M32.4706 130.546C30.4258 124.819 28.0899 119.202 25.4697 113.715C23.8804 110.403 22.2193 106.533 19.6744 103.816C16.2493 100.155 11.8823 104.649 15.7527 107.406C15.6979 107.368 8.30307 102.121 9.79641 110.389C9.79641 110.389 3.87783 109.413 6.2617 113.328C6.2617 113.328 0.428753 112.948 5.66916 117.671C5.66916 117.671 26.4082 126.563 27.9837 131.197L32.4706 130.543V130.546Z" fill="#2A4054"/>
<path fill-rule="evenodd" clip-rule="evenodd" d="M33.1512 132.637C32.4833 132.98 31.5825 132.918 30.8906 133.161C30.0549 133.446 29.3356 134.017 28.4622 134.206C27.3183 134.452 26.0715 133.894 25.5852 132.918C24.0439 129.842 30.3597 127.575 32.6477 128.421C33.2231 128.606 33.7095 129 34.0075 129.527C34.2883 130.103 34.2233 130.794 34.0349 131.425C33.939 131.867 33.6889 132.26 33.3327 132.541C33.2745 132.576 33.2129 132.61 33.1512 132.637Z" fill="#C699FF"/>
<path fill-rule="evenodd" clip-rule="evenodd" d="M24.7383 150.207C24.7383 150.207 27.451 147.47 28.2113 143.651L30.3041 144.271L33.9895 142.949C33.9895 142.949 33.5374 149.457 38.2537 151.807C38.24 151.807 31.0645 160.349 24.7417 150.207H24.7383Z" fill="#C08F67"/>
<path d="M34.5031 144.236C39.7546 142.464 43.1236 138.396 42.0281 135.15C40.9326 131.904 35.7874 130.71 30.5359 132.482C25.2845 134.255 21.9154 138.323 23.0109 141.569C24.1064 144.814 29.2517 146.009 34.5031 144.236Z" fill="#C08F67"/>
<path fill-rule="evenodd" clip-rule="evenodd" d="M36.2907 132.262C36.6229 132.166 36.9723 132.344 37.0887 132.666L37.1024 132.708L38.7773 138.455C38.8698 138.77 38.7122 139.106 38.4143 139.236L38.3732 139.253L35.2289 140.393C34.8898 140.517 34.5131 140.342 34.3898 140.003C34.2699 139.678 34.4274 139.318 34.7425 139.181L34.7837 139.164L37.3525 138.232L35.8489 133.074C35.753 132.742 35.9311 132.392 36.253 132.276L36.2941 132.262H36.2907Z" fill="#2A4054"/>
<path fill-rule="evenodd" clip-rule="evenodd" d="M39.6352 132.544C38.4159 131.972 37.0869 131.67 35.7374 131.663C31.987 131.225 26.1095 134.147 25.0717 135.681C24.7668 136.133 25.1333 137.469 25.2429 137.633C25.4279 137.894 25.7533 138.017 26.065 137.942C26.065 137.942 26.589 137.925 27.411 137.87L28.0515 135.822L29.1544 137.74C32.2233 137.479 36.7376 136.897 38.594 135.712C39.8476 133.523 39.6318 132.544 39.6318 132.544H39.6352Z" fill="#2A4054"/>
<path d="M196.577 122.425C198.981 120.665 196.724 113.495 191.537 106.41C186.35 99.325 180.196 95.0082 177.792 96.7683C175.388 98.5283 177.645 105.699 182.832 112.784C188.019 119.869 194.173 124.185 196.577 122.425Z" fill="#2A4054"/>
<path fill-rule="evenodd" clip-rule="evenodd" d="M249.461 123.988C250.081 126.903 245.015 129.311 236.048 130.308C227.317 131.277 217.48 129.893 216.867 126.982C216.254 124.067 224.735 120.132 233.496 119.556C243.583 118.888 248.841 121.077 249.461 123.988Z" fill="#2A4054"/>
<path d="M233.875 49.304C234.486 46.1699 230.795 42.8133 225.632 41.8068C220.468 40.8003 215.787 42.5251 215.176 45.6592C214.566 48.7933 218.256 52.1499 223.42 53.1564C228.583 54.1629 233.264 52.4381 233.875 49.304Z" fill="#C08F67"/>
<path fill-rule="evenodd" clip-rule="evenodd" d="M214.161 44.3022C214.449 44.8879 215.11 45.1928 215.75 45.3161C215.994 45.3674 216.244 45.388 216.494 45.3777C217.127 45.3503 217.727 45.0729 218.158 44.6071C218.086 44.9427 218.199 45.2887 218.453 45.5182C218.617 45.6552 218.809 45.7511 219.015 45.8059C219.323 45.9052 219.648 45.9326 219.97 45.8881C220.724 45.7579 221.19 45.1756 221.662 44.5797C221.888 45.364 222.388 46.1655 223.183 46.3368C223.611 46.4087 224.049 46.3436 224.437 46.1587C224.745 46.0388 225.029 45.8709 225.286 45.662C225.406 46.0045 225.584 46.3231 225.81 46.6039C226.142 46.9704 226.625 47.1622 227.118 47.128C227.598 47.0903 227.999 46.9773 228.266 46.5731C228.375 46.8437 228.557 47.08 228.79 47.2615C229.471 47.8267 230.461 48.1521 231.242 47.7411C232.023 47.33 232.287 46.4327 232.527 45.6106C229.886 44.6859 227.273 43.5453 224.625 42.6376C223.344 42.1753 222.042 41.7814 220.72 41.456C220.138 41.3087 219.539 41.2231 218.939 41.1957C218.336 41.1683 213.377 42.7061 214.165 44.2988L214.161 44.3022Z" fill="#2A4054"/>
<path fill-rule="evenodd" clip-rule="evenodd" d="M235.37 44.9011C235.418 44.9935 235.453 45.0929 235.466 45.1956C235.579 45.9217 234.85 46.8534 234.096 46.9527C233.682 46.9698 233.271 46.891 232.894 46.7164C227.239 44.6476 221.043 43.0378 215.022 42.8323C214.303 42.8049 214.015 42.1301 214.076 41.4486C214.159 40.7361 214.672 40.147 215.364 39.9655C215.803 39.8764 216.255 39.8696 216.697 39.9415C220.307 40.3183 223.893 40.8834 227.441 41.6301C229.647 42.0959 231.853 42.6987 233.839 43.7605C234.353 44.0277 235.096 44.353 235.37 44.8942V44.9011Z" fill="#89D5FF"/>
<path fill-rule="evenodd" clip-rule="evenodd" d="M233.592 41.797C233.677 41.3243 233.369 40.8654 232.9 40.766C229.146 39.4611 225.3 38.4404 221.395 37.7211C220.785 37.567 220.152 37.5396 219.532 37.6458C218.076 37.9917 217.312 39.5878 216.977 41.0469C221.529 41.4613 225.841 43.1944 230.139 44.746C230.831 44.996 232.92 45.9996 233.557 45.3865C234.16 44.8351 233.653 42.5402 233.595 41.797H233.592Z" fill="#89D5FF"/>
<path fill-rule="evenodd" clip-rule="evenodd" d="M217.892 44.6127C218.022 44.2771 218.402 44.1093 218.738 44.2394C219.073 44.3696 219.241 44.7498 219.111 45.0854C218.775 45.9485 218.604 46.863 218.607 47.7947C218.607 47.8734 218.666 47.9419 218.744 47.9488C219.07 47.9865 219.45 48.0653 219.881 48.1817C220.097 48.2399 220.327 48.305 220.56 48.3804C220.865 48.4763 221.166 48.579 221.454 48.6818L221.663 48.7571L221.827 48.8188C222.163 48.9489 222.33 49.3291 222.2 49.6648C222.074 49.9867 221.721 50.1546 221.395 50.0518L221.077 49.9354L221.008 49.9114C220.738 49.8155 220.453 49.7162 220.166 49.6271C219.95 49.5586 219.741 49.4969 219.542 49.4456C219.207 49.3565 218.912 49.2914 218.672 49.2572L218.594 49.2469C217.85 49.1613 217.289 48.5276 217.299 47.7878C217.299 46.7021 217.501 45.6232 217.892 44.6127Z" fill="#2A4054"/>
<path fill-rule="evenodd" clip-rule="evenodd" d="M229.407 51.7727C229.509 54.958 231.393 61.1438 232.808 64.0106L226.917 66.9048L218.487 65.4662L218.398 58.3386L223.272 51.6699L229.407 51.7761V51.7727Z" fill="#C08F67"/>
<path fill-rule="evenodd" clip-rule="evenodd" d="M10.0711 164.866C8.89284 170.097 2.35774 197.61 6.27264 199.707L47.0074 199.803C47.1581 199.803 47.2814 199.69 47.2985 199.542C47.4629 197.932 48.5453 189.397 48.6069 188.801C49.2748 182.667 49.7338 176.447 48.8672 170.306C47.9836 164.096 45.586 157.605 41.0546 153.112C35.8416 147.946 14.2189 146.542 10.0677 164.863L10.0711 164.866Z" fill="#C699FF"/>
<path fill-rule="evenodd" clip-rule="evenodd" d="M193.271 98.4537C193.271 98.4537 161.79 97.5734 160.612 116.401C159.434 135.229 156.786 202.608 160.907 210.547L175.912 208.783C175.912 208.783 182.571 153.457 180.358 129.321C180.098 126.526 181.772 123.916 184.42 122.984L204.745 115.812L193.271 98.4571V98.4537Z" fill="#C08F67"/>
<path fill-rule="evenodd" clip-rule="evenodd" d="M219.326 113.801C219.326 113.801 222.275 155.642 230.512 176.364C239.102 197.969 265.352 232.912 265.352 232.912L276.522 220.554C276.522 220.554 251.765 177.299 251.47 162.882C251.47 162.882 242.055 108.163 241.315 108.413C240.575 108.666 219.322 113.797 219.322 113.797L219.326 113.801Z" fill="#C08F67"/>
<path fill-rule="evenodd" clip-rule="evenodd" d="M252.857 160.884C252.011 162.566 243.386 160.884 234.108 156.219C224.826 151.554 222.771 143.872 223.617 142.19C224.463 140.508 230.049 143.646 239.328 148.307C248.606 152.969 253.703 159.202 252.857 160.884Z" fill="#2A4054"/>
<path fill-rule="evenodd" clip-rule="evenodd" d="M132.505 51.6238C129.039 50.3154 124.967 48.4522 122.439 45.1607C121.439 43.8523 119.891 40.6087 120.593 38.951C120.723 38.5913 120.963 38.2796 121.281 38.0639C121.638 37.8857 122.052 37.8652 122.422 38.009C123.158 38.2351 125.412 40.5333 126.049 41.0334C126.535 41.4136 126.542 41.7904 127.005 42.2082L134.417 50.3154L132.505 51.6238Z" fill="#C08F67"/>
<path fill-rule="evenodd" clip-rule="evenodd" d="M133.422 52.2322C133.422 52.2322 120.28 39.5593 127.668 36.9425C127.668 36.9425 129.466 35.7335 130.189 38.5523C130.189 38.5523 132.168 32.7194 135.768 37.9495C135.768 37.9495 138.121 32.7194 141.522 37.9495C141.522 37.9495 144.399 32.7194 147.102 37.9495C148.684 40.9841 150.01 44.1489 151.061 47.4062L133.422 52.2322Z" fill="#C08F67"/>
<path fill-rule="evenodd" clip-rule="evenodd" d="M122.372 39.5678C122.574 40.037 122.676 40.5405 122.676 41.0475C122.694 41.3146 122.666 41.5852 122.594 41.8455C122.108 43.332 120.793 42.7326 120.443 41.4379C120.262 40.746 119.971 39.2424 120.584 38.7629C121.197 38.2834 122.08 38.9684 122.368 39.5678H122.372Z" fill="#2A4054"/>
<path fill-rule="evenodd" clip-rule="evenodd" d="M126.899 38.6281C127.245 38.2377 127.779 38.0767 128.283 38.2103C128.351 38.2274 128.392 38.2993 128.375 38.3713C128.358 38.4398 128.286 38.4809 128.214 38.4637C127.806 38.3541 127.371 38.4843 127.094 38.7994C127.046 38.8542 126.964 38.8576 126.909 38.8097C126.854 38.7617 126.851 38.6795 126.899 38.6247V38.6281Z" fill="#231F20"/>
<path fill-rule="evenodd" clip-rule="evenodd" d="M132.127 37.4603C132.422 36.991 132.973 36.741 133.521 36.8335C133.593 36.8438 133.641 36.9123 133.627 36.9842C133.617 37.0561 133.549 37.1041 133.477 37.0904C133.032 37.0185 132.586 37.2171 132.35 37.5973C132.312 37.6589 132.23 37.6761 132.168 37.6384C132.107 37.6007 132.09 37.5185 132.127 37.4569V37.4603Z" fill="#231F20"/>
<path fill-rule="evenodd" clip-rule="evenodd" d="M137.901 36.7073C138.343 36.5052 138.832 36.4333 139.312 36.5018C139.384 36.5121 139.432 36.5771 139.422 36.6491C139.411 36.721 139.346 36.7689 139.274 36.7587C138.843 36.697 138.404 36.7587 138.007 36.9402C137.942 36.971 137.863 36.9402 137.832 36.8751C137.802 36.81 137.832 36.7313 137.897 36.7004L137.901 36.7073Z" fill="#231F20"/>
<path fill-rule="evenodd" clip-rule="evenodd" d="M143.647 36.15C144.068 36.0609 144.503 36.0746 144.917 36.1876C144.986 36.2082 145.027 36.2801 145.01 36.3486C144.989 36.4171 144.917 36.4582 144.849 36.4411C144.476 36.3383 144.082 36.3281 143.702 36.4068C143.63 36.4205 143.561 36.376 143.547 36.3041C143.534 36.2322 143.578 36.1637 143.65 36.15H143.647Z" fill="#231F20"/>
<path fill-rule="evenodd" clip-rule="evenodd" d="M128.809 53.4693C134.388 44.4989 142.677 39.5702 153.675 38.6797C153.675 38.6797 168.454 51.7773 175.842 70.5845C175.842 70.5845 203.02 57.576 218.827 57.802L208.083 82.0038C208.083 82.0038 184.908 99.4684 162.073 93.4231C139.238 87.3778 128.812 53.4693 128.812 53.4693H128.809Z" fill="#C699FF"/>
<path fill-rule="evenodd" clip-rule="evenodd" d="M251.915 152.06C251.915 152.06 242.267 165.873 241.839 169.613C241.414 173.354 236.249 173.08 237.571 168.37L237.722 167.75C237.722 167.75 236.057 177.234 232.752 175.95C232.752 175.95 230.923 175.799 230.55 172.59L234.002 164.376C233.3 166.26 232.516 168.12 231.68 169.946C230.546 172.422 228.721 179.484 224.693 176.361C222.511 174.672 225.659 170.405 226.505 168.579C227.697 165.986 228.93 163.4 230.104 160.787C228.906 163.458 228.241 166.277 226.703 168.829C225.981 170.028 224.843 171.942 223.302 172.175C221.538 172.436 220.425 170.915 220.531 169.24C220.737 165.966 223.963 160.468 225.905 157.591C225.905 157.591 218.921 167.161 217.36 161.845C215.798 156.533 233.447 141 233.447 141L251.915 152.063V152.06Z" fill="#C08F67"/>
<path fill-rule="evenodd" clip-rule="evenodd" d="M224.738 171.261C224.789 171.21 224.871 171.21 224.923 171.261C224.974 171.313 224.974 171.395 224.923 171.446C224.484 171.885 223.926 172.183 223.313 172.302C222.693 172.409 222.053 172.268 221.535 171.909C221.477 171.867 221.46 171.785 221.501 171.727C221.542 171.669 221.624 171.652 221.683 171.693C222.145 172.011 222.714 172.138 223.265 172.042C223.823 171.932 224.334 171.662 224.734 171.261H224.738Z" fill="#231F20"/>
<path fill-rule="evenodd" clip-rule="evenodd" d="M230.051 173.529C230.082 173.464 230.161 173.436 230.226 173.464C230.291 173.491 230.318 173.573 230.291 173.638C229.589 175.156 228.873 176.211 228.047 176.793C227.016 177.519 225.869 177.454 224.598 176.467C224.458 176.361 224.334 176.238 224.225 176.098C224.18 176.039 224.191 175.957 224.249 175.913C224.307 175.868 224.389 175.878 224.434 175.937C224.526 176.056 224.636 176.166 224.759 176.259C225.941 177.173 226.965 177.235 227.897 176.577C228.674 176.026 229.366 175.005 230.051 173.525V173.529Z" fill="#231F20"/>
<path fill-rule="evenodd" clip-rule="evenodd" d="M239.6 164.682C239.627 164.617 239.706 164.586 239.771 164.614C239.83 164.637 239.86 164.703 239.847 164.764L239.84 164.788L236.11 173.539C236.079 173.604 236.048 173.669 236.017 173.731L235.925 173.916L235.829 174.094C234.942 175.738 233.918 176.505 232.757 176.101L232.712 176.084H232.702C232.627 176.074 232.524 176.05 232.394 176.002L232.339 175.981C232.058 175.868 231.774 175.68 231.513 175.406C231.236 175.111 230.996 174.735 230.804 174.262C230.777 174.194 230.811 174.118 230.876 174.091C230.945 174.063 231.02 174.098 231.048 174.163C231.226 174.605 231.445 174.954 231.702 175.225C231.938 175.471 232.188 175.639 232.435 175.738C232.52 175.773 232.599 175.796 232.671 175.814L232.729 175.824H232.75L232.788 175.834C233.904 176.262 234.921 175.403 235.826 173.526L235.87 173.43L239.6 164.682Z" fill="#231F20"/>
<path fill-rule="evenodd" clip-rule="evenodd" d="M243.824 164.592C243.861 164.53 243.94 164.51 244.002 164.544C244.063 164.582 244.084 164.66 244.05 164.722C244.002 164.804 243.954 164.89 243.909 164.972L243.82 165.143L243.735 165.318C243.676 165.434 243.622 165.558 243.567 165.684L243.485 165.876C243.471 165.91 243.457 165.941 243.443 165.976L243.361 166.181L243.279 166.4L243.193 166.63L243.108 166.873C243.094 166.914 243.077 166.959 243.063 167L242.974 167.263L242.69 168.12L242.563 168.493L242.481 168.726L242.402 168.949L242.323 169.161L242.248 169.363L242.173 169.555C242.159 169.586 242.149 169.616 242.135 169.647L242.06 169.825C242.046 169.853 242.036 169.884 242.022 169.911L241.947 170.079C241.899 170.188 241.847 170.291 241.796 170.39L241.721 170.538L241.642 170.678C241.522 170.887 241.399 171.082 241.258 171.271L241.166 171.397C241.101 171.48 241.036 171.562 240.967 171.648C240.467 172.22 239.689 172.463 238.953 172.278C238.885 172.261 238.84 172.189 238.857 172.12C238.874 172.052 238.946 172.007 239.015 172.024C239.655 172.185 240.333 171.973 240.768 171.476C240.833 171.397 240.899 171.319 240.96 171.237L241.049 171.117C241.166 170.956 241.275 170.788 241.381 170.61L241.457 170.473L241.532 170.332C241.594 170.212 241.655 170.089 241.717 169.956L241.789 169.795L241.861 169.623L241.933 169.445C241.947 169.414 241.957 169.384 241.971 169.353L242.046 169.161C242.06 169.127 242.07 169.096 242.084 169.062L242.159 168.853L242.238 168.633L242.358 168.284L242.484 167.907L242.676 167.322L242.769 167.044L242.858 166.784L242.943 166.537L243.029 166.304L243.115 166.082C243.337 165.506 243.556 165.044 243.824 164.588V164.592Z" fill="#231F20"/>
<path fill-rule="evenodd" clip-rule="evenodd" d="M233.189 165.522C233.22 165.457 233.295 165.427 233.36 165.457C233.418 165.485 233.449 165.546 233.435 165.608L233.429 165.632L231.045 171.023C231.014 171.088 230.939 171.119 230.874 171.088C230.815 171.061 230.784 170.999 230.798 170.938L230.805 170.914L233.189 165.522Z" fill="#231F20"/>
<path fill-rule="evenodd" clip-rule="evenodd" d="M228.308 164.308C228.339 164.242 228.414 164.212 228.479 164.242C228.538 164.27 228.568 164.332 228.555 164.393L228.548 164.417L226.164 169.808C226.133 169.873 226.058 169.904 225.993 169.873C225.934 169.846 225.904 169.784 225.917 169.723L225.924 169.699L228.308 164.308Z" fill="#231F20"/>
<path fill-rule="evenodd" clip-rule="evenodd" d="M217.926 159.905C217.738 160.405 217.649 160.939 217.666 161.473C217.882 163.95 220.718 162.566 220.595 160.809C220.519 160.281 220.303 159.781 219.971 159.367C219.786 159.076 219.509 158.856 219.187 158.733C218.495 158.528 218.105 159.36 217.93 159.901L217.926 159.905Z" fill="#2A4054"/>
<path fill-rule="evenodd" clip-rule="evenodd" d="M221.603 171.006C221.058 170.448 221.103 169.276 221.298 168.523C221.332 168.348 221.445 168.194 221.603 168.108C221.74 168.07 221.884 168.077 222.017 168.125L223.086 168.406C223.767 168.584 224.507 168.803 224.891 169.393C225.028 169.567 225.069 169.8 224.997 170.013C224.942 170.115 224.864 170.204 224.771 170.273C224.326 170.66 223.726 171.458 223.11 171.537C222.555 171.598 222 171.403 221.606 171.006H221.603Z" fill="#2A4054"/>
<path fill-rule="evenodd" clip-rule="evenodd" d="M225.125 175.853C224.684 175.339 224.519 174.643 224.684 173.986C224.714 173.818 224.779 173.657 224.872 173.513C225.002 173.349 225.16 173.208 225.341 173.106C225.554 172.945 225.804 172.838 226.067 172.801C226.413 172.808 226.742 172.965 226.965 173.232C227.177 173.493 227.424 173.726 227.698 173.924C227.982 174.095 228.355 174.167 228.523 174.448C228.664 174.733 228.626 175.072 228.427 175.315C227.694 176.37 226.023 176.791 225.125 175.853Z" fill="#2A4054"/>
<path fill-rule="evenodd" clip-rule="evenodd" d="M232.586 175.201C232.339 175.067 232.123 174.885 231.955 174.663C231.733 174.444 231.555 174.183 231.431 173.896C231.339 173.491 231.346 173.074 231.455 172.673C231.469 172.553 231.514 172.44 231.589 172.347C231.657 172.286 231.743 172.245 231.836 172.231C232.332 172.125 232.798 172.423 233.206 172.7L234.274 173.437C234.473 173.553 234.641 173.714 234.761 173.909C235.329 175.022 233.295 175.516 232.589 175.204L232.586 175.201Z" fill="#2A4054"/>
<path fill-rule="evenodd" clip-rule="evenodd" d="M238.291 170.301C238.236 170.157 238.215 170.003 238.232 169.849C238.274 169.671 238.366 169.503 238.493 169.373C238.637 169.181 238.828 169.033 239.048 168.934C239.349 168.849 239.674 168.89 239.945 169.054C240.222 169.222 240.476 169.431 240.692 169.674C241.411 170.424 240.901 171.03 240.127 171.328C239.866 171.434 239.373 171.606 239.082 171.479C238.719 171.304 238.411 170.674 238.291 170.301Z" fill="#2A4054"/>
<path fill-rule="evenodd" clip-rule="evenodd" d="M232.527 119.994C242.463 119.152 246.577 120.577 247.196 123.491L247.827 124.536C248.501 115.672 239.952 99.6048 239.952 99.6048L205.212 95.5529C203.698 94.2069 183.507 94.8268 178.91 96.3989C181.787 96.19 187.017 100.259 191.542 106.424C196.728 113.511 198.985 120.683 196.58 122.443C203.143 119.775 210.109 115.381 213.209 111.86C213.353 111.671 213.603 111.6 213.826 111.692C214.048 111.784 214.178 112.007 214.148 112.243C213.86 117.515 216.874 126.989 216.874 126.989C216.254 124.074 223.779 120.734 232.53 119.994H232.527Z" fill="#89D5FF"/>
<path fill-rule="evenodd" clip-rule="evenodd" d="M230.798 58.1208C230.74 58.1139 230.682 58.1379 230.641 58.179C230.599 58.2201 230.582 58.2783 230.589 58.3365L231.305 61.8336C231.339 62.1453 231.25 62.4604 231.055 62.7035C230.86 62.9502 230.572 63.1077 230.26 63.1385L219.927 63.1625C219.608 63.1968 219.286 63.1009 219.04 62.8954C218.793 62.6898 218.642 62.3919 218.618 62.0699L218.824 57.8125L213.885 58.4804L204.832 81.5485C204.832 81.5485 198.914 95.8757 205.093 98.3109C205.093 98.3109 208.871 99.9516 209.374 96.6737C209.374 96.6737 213.405 103.473 217.187 98.1876C217.187 98.1876 219.961 105.25 226.767 98.6911C226.767 98.6911 229.541 104.993 235.086 98.9514C235.086 98.9514 238.868 105.75 242.649 99.7084C242.649 99.7084 245.002 96.797 245.266 87.2752L253.414 104.418C241.659 114.83 223.616 142.132 223.616 142.132C223.616 142.132 223.629 142.159 223.633 142.176C224.523 140.549 230.096 143.676 239.323 148.317C248.605 152.982 253.705 159.213 252.852 160.894C252.852 160.894 276.588 134.412 280.62 107.877C284.319 83.4905 253.068 62.3576 230.791 58.1173L230.798 58.1208Z" fill="#C699FF"/>
<path fill-rule="evenodd" clip-rule="evenodd" d="M178.314 211.046C181.106 209.234 179.79 206.001 175.985 205.672C173.05 205.412 169.371 206.196 166.415 206.172C162.754 206.141 159.575 206.313 156.003 206.296C153.403 206.296 154.993 208.888 155.822 210.255C156.568 211.481 155.16 213.132 156.962 215.249C157.01 215.304 157.02 215.379 156.986 215.444C156.952 215.509 156.88 215.543 156.811 215.533C155.407 215.228 151.907 214.903 150.492 218.67C150.475 218.722 150.43 218.763 150.376 218.777C149.961 218.869 149.547 218.958 149.132 219.051C147.142 219.51 147.016 219.927 145.135 220.749C144.296 221.119 143.406 221.534 142.738 222.205C141.97 222.962 141.994 223.815 141.809 224.839C141.734 225.257 141.648 225.675 141.594 226.099C141.46 227.12 141.573 227.867 142.659 228.089C144.721 228.511 145.217 228.196 147.286 228.089C156.198 227.654 173.457 225.435 175.978 225.267C178.383 225.11 179.027 222.233 179.037 221.965C179.037 221.986 178.29 211.067 178.311 211.05L178.314 211.046Z" fill="#79CFFF"/>
<path fill-rule="evenodd" clip-rule="evenodd" d="M178.314 211.046C181.106 209.234 179.79 206.001 175.985 205.672C173.05 205.412 169.371 206.196 166.415 206.172C162.754 206.141 159.575 206.313 156.003 206.296C153.403 206.296 154.993 208.888 155.822 210.255C156.568 211.481 155.16 213.132 156.962 215.249C157.01 215.304 157.02 215.379 156.986 215.444C156.952 215.509 156.88 215.543 156.811 215.533C155.407 215.228 151.907 214.903 150.492 218.67C150.475 218.722 150.43 218.763 150.376 218.777C149.961 218.869 149.547 218.958 149.132 219.051C147.142 219.51 147.016 219.927 145.135 220.749C144.296 221.119 143.406 221.534 142.738 222.205C141.97 222.962 141.994 223.815 141.809 224.839C141.734 225.257 141.648 225.675 141.594 226.099C141.46 227.12 141.573 227.867 142.659 228.089C144.721 228.511 145.217 228.196 147.286 228.089C156.198 227.654 173.457 225.435 175.978 225.267C178.383 225.11 179.027 222.233 179.037 221.965C179.037 221.986 178.29 211.067 178.311 211.05L178.314 211.046Z" fill="black" fill-opacity="0.2"/>
<path fill-rule="evenodd" clip-rule="evenodd" d="M281.774 222.503C282.517 219.256 279.325 217.848 276.362 220.263C274.078 222.123 271.978 225.232 269.824 227.277C267.183 229.795 265.011 232.138 262.432 234.614C260.555 236.412 263.511 237.176 265.049 237.583C266.436 237.946 266.573 240.111 269.344 240.375C269.416 240.378 269.478 240.43 269.495 240.498C269.515 240.567 269.488 240.642 269.43 240.683C268.211 241.44 265.467 243.642 267.077 247.345C267.104 247.393 267.104 247.455 267.077 247.503C266.844 247.855 266.608 248.205 266.375 248.564C265.265 250.277 265.464 250.657 264.686 252.561C264.34 253.411 263.998 254.336 263.977 255.274C263.95 256.353 264.563 256.949 265.142 257.812C265.378 258.165 265.611 258.525 265.864 258.857C266.481 259.682 267.08 260.141 268.015 259.549C269.789 258.418 269.93 257.843 271.344 256.332C277.445 249.821 288.299 236.22 289.994 234.343C291.611 232.559 290.076 230.045 289.898 229.843C289.912 229.856 281.777 222.534 281.784 222.506L281.774 222.503Z" fill="#79CFFF"/>
<path fill-rule="evenodd" clip-rule="evenodd" d="M281.774 222.503C282.517 219.256 279.325 217.848 276.362 220.263C274.078 222.123 271.978 225.232 269.824 227.277C267.183 229.795 265.011 232.138 262.432 234.614C260.555 236.412 263.511 237.176 265.049 237.583C266.436 237.946 266.573 240.111 269.344 240.375C269.416 240.378 269.478 240.43 269.495 240.498C269.515 240.567 269.488 240.642 269.43 240.683C268.211 241.44 265.467 243.642 267.077 247.345C267.104 247.393 267.104 247.455 267.077 247.503C266.844 247.855 266.608 248.205 266.375 248.564C265.265 250.277 265.464 250.657 264.686 252.561C264.34 253.411 263.998 254.336 263.977 255.274C263.95 256.353 264.563 256.949 265.142 257.812C265.378 258.165 265.611 258.525 265.864 258.857C266.481 259.682 267.08 260.141 268.015 259.549C269.789 258.418 269.93 257.843 271.344 256.332C277.445 249.821 288.299 236.22 289.994 234.343C291.611 232.559 290.076 230.045 289.898 229.843C289.912 229.856 281.777 222.534 281.784 222.506L281.774 222.503Z" fill="black" fill-opacity="0.2"/>
<path d="M165.979 249.918C166.282 243.467 165.091 238.17 163.319 238.087C161.546 238.004 159.864 243.166 159.561 249.616C159.257 256.067 160.449 261.364 162.221 261.448C163.993 261.531 165.676 256.369 165.979 249.918Z" fill="#231F20"/>
<path fill-rule="evenodd" clip-rule="evenodd" d="M143.123 259.332L175.624 258.079L176.651 249.845L175.877 243.138L138.633 242.08L143.123 259.332Z" fill="#C08F67"/>
<path fill-rule="evenodd" clip-rule="evenodd" d="M171.217 258.252C172.262 255.636 174.399 247.908 169.563 243.028C169.505 242.969 169.477 242.891 169.481 242.812C169.488 242.73 169.525 242.658 169.59 242.606L179.342 235.746L181.708 227.32C182.092 225.954 183.212 224.919 184.603 224.645C186.993 224.169 190.538 223.929 191.765 226.265L191.932 243.881L185.918 251.416C185.764 251.608 185.723 251.864 185.808 252.097C185.894 252.327 186.093 252.498 186.336 252.543L191.107 253.457C191.699 253.57 192.104 254.125 192.028 254.724L191.326 260.342C191.247 260.962 190.689 261.407 190.066 261.338L171.902 259.386C171.645 259.359 171.416 259.211 171.282 258.992C171.149 258.769 171.128 258.499 171.224 258.259L171.217 258.252Z" fill="#A9FF22"/>
<path fill-rule="evenodd" clip-rule="evenodd" d="M159.572 249.636C159.876 243.2 161.548 238.052 163.315 238.103C162.171 237.987 96.8922 231.243 40.724 230.233L47.3002 199.547C34.8431 195.293 19.8411 193.447 5.08232 197.331C5.08232 197.331 -12.9611 254.76 34.2916 258.315C34.2916 258.315 152.071 265.785 162.233 261.469C160.459 261.387 159.267 256.089 159.572 249.636Z" fill="#2A4054"/>
<path d="M116.623 255.9C121.296 253.196 124.508 250.008 123.797 248.778C123.085 247.549 118.72 248.743 114.047 251.447C109.374 254.15 106.163 257.339 106.874 258.568C107.585 259.798 111.95 258.603 116.623 255.9Z" fill="#231F20"/>
<path fill-rule="evenodd" clip-rule="evenodd" d="M107.348 253.657L114.773 266.878L121.939 264.411L127.155 260.993L119.86 243.871L107.348 253.657Z" fill="#C08F67"/>
<path fill-rule="evenodd" clip-rule="evenodd" d="M112.493 262.115C115.048 262.139 122.244 261.05 124.751 254.953C124.782 254.884 124.837 254.833 124.906 254.809C124.974 254.785 125.053 254.792 125.118 254.826L134.191 261.433L142.086 260.57C143.391 260.443 144.651 261.091 145.309 262.228C146.508 264.214 147.891 267.321 146.326 269.256L131.516 275.671L123.148 272.924C122.926 272.859 122.683 272.921 122.515 273.082C122.347 273.243 122.278 273.483 122.337 273.709L123.152 278.329C123.261 278.888 122.933 279.442 122.388 279.61L117.418 280.973C117.148 281.039 116.86 280.991 116.624 280.843C116.387 280.696 116.219 280.46 116.158 280.189L111.767 263.122C111.698 262.889 111.739 262.635 111.88 262.44C112.02 262.242 112.246 262.122 112.49 262.115H112.493Z" fill="#A9FF22"/>
<path d="M141.19 192.95C143.427 192.192 143.022 185.033 140.285 176.961C137.548 168.888 133.516 162.959 131.278 163.718C129.04 164.477 129.445 171.636 132.182 179.708C134.919 187.78 138.952 193.709 141.19 192.95Z" fill="#2A4054"/>
<path fill-rule="evenodd" clip-rule="evenodd" d="M124.082 172.105C124.082 172.105 142.262 159.925 149.832 158.062C151.086 157.764 152.377 158.37 152.952 159.521C153.572 160.709 153.641 162.569 151.431 165.241C151.431 165.241 156.662 165.093 151.969 171.485C151.969 171.485 156.785 172.077 151.565 177.729C151.565 177.729 157.58 180.698 148.089 183.373C138.594 186.048 133.23 188.723 133.23 188.723L124.082 172.108V172.105Z" fill="#C08F67"/>
<path fill-rule="evenodd" clip-rule="evenodd" d="M141.814 192.736C141.732 192.788 141.643 192.829 141.554 192.86C139.314 193.616 135.293 187.718 132.57 179.683C129.843 171.648 129.449 164.517 131.689 163.76C131.864 163.705 132.049 163.684 132.231 163.705L132.21 163.643C132.21 163.643 119.075 159.026 113.903 166.312C113.903 166.312 111.618 158.554 101.922 167.312C101.922 167.312 99.1065 161.369 88.475 167.935C88.475 167.935 86.1219 163.243 76.1206 168.25C76.1206 168.25 71.4282 163.715 64.3931 169.034C64.3931 169.034 59.5431 163.719 53.9157 165.75C53.9157 165.75 52.0387 160.9 43.9075 161.828C43.9075 161.828 40.6228 157.608 36.5572 158.858L19.0139 171.836C19.0139 171.836 18.5994 179.981 26.1038 179.2C26.1038 179.2 26.5731 188.112 34.3926 184.985C34.3926 184.985 37.0539 195.932 44.5583 192.024C44.5583 192.024 47.0757 202.803 51.2989 198.268C51.2989 198.268 63.7937 207.19 68.6436 199.997C68.6436 199.997 78.8093 207.502 82.8715 200.309C82.8715 200.309 96.4692 207.19 97.8837 199.997C97.8837 199.997 115.711 206.098 113.208 198.901C113.208 198.901 129.946 203.905 128.066 196.244C128.066 196.244 139.718 195.925 141.821 192.743L141.814 192.736Z" fill="#C699FF"/>
<path fill-rule="evenodd" clip-rule="evenodd" d="M148.827 165.683C148.888 165.641 148.967 165.659 149.008 165.72C149.049 165.782 149.032 165.861 148.971 165.902C148.494 166.213 147.922 166.347 147.357 166.282C147.285 166.275 147.234 166.21 147.241 166.138C147.248 166.066 147.313 166.015 147.385 166.022C147.892 166.08 148.399 165.96 148.827 165.683Z" fill="#231F20"/>
<path fill-rule="evenodd" clip-rule="evenodd" d="M149.921 171.261C149.969 171.206 150.051 171.199 150.106 171.247C150.161 171.295 150.167 171.377 150.119 171.432C149.78 171.829 149.27 172.042 148.749 172C148.677 171.994 148.623 171.932 148.629 171.86C148.636 171.788 148.698 171.733 148.77 171.74C149.208 171.774 149.636 171.596 149.921 171.264V171.261Z" fill="#231F20"/>
<path fill-rule="evenodd" clip-rule="evenodd" d="M150.319 177.205C150.374 177.16 150.456 177.167 150.504 177.225C150.549 177.28 150.542 177.362 150.484 177.41C150.066 177.749 149.525 177.897 148.994 177.818C148.922 177.808 148.874 177.739 148.884 177.671C148.894 177.599 148.963 177.551 149.031 177.561C149.49 177.629 149.956 177.503 150.319 177.208V177.205Z" fill="#231F20"/>
<path fill-rule="evenodd" clip-rule="evenodd" d="M113.926 251.381C117.964 249.07 121.725 247.902 123.095 248.436L123.218 248.364C123.218 248.364 111.368 193.816 85.0935 189.219C83.9804 189.031 82.8398 189.045 81.7335 189.264C76.1369 190.332 46.1672 194.518 20.7324 209.924L22.8594 247.241C22.8594 247.241 63.649 236.451 79.5278 217.459C79.7607 217.161 80.1237 217 80.5005 217.024C80.8772 217.048 81.2163 217.261 81.4047 217.583C85.3265 223.922 98.9823 253.217 106.524 258.146C106.583 256.687 109.676 253.817 113.929 251.381H113.926Z" fill="#2A4054"/>
<path fill-rule="evenodd" clip-rule="evenodd" d="M119.743 236.416C119.802 236.375 119.884 236.389 119.925 236.447C120.1 236.694 120.274 236.978 120.446 237.303L120.548 237.502C120.668 237.738 120.788 237.995 120.905 238.269L121.007 238.509L121.11 238.756L121.209 239.013C121.244 239.098 121.278 239.187 121.309 239.276L121.408 239.55L121.507 239.831C121.525 239.879 121.542 239.927 121.559 239.975L121.658 240.27L121.757 240.574L121.857 240.886L121.956 241.208L122.055 241.537C122.073 241.592 122.09 241.65 122.107 241.705L122.206 242.047C122.223 242.105 122.24 242.164 122.258 242.222L122.36 242.592L122.466 242.982L122.573 243.38L122.682 243.787L122.792 244.208L122.96 244.866L123.662 247.743C123.679 247.812 123.638 247.884 123.566 247.901C123.497 247.918 123.425 247.877 123.408 247.805L122.823 245.387L122.71 244.928L122.6 244.486L122.49 244.061L122.381 243.65L122.275 243.249C122.258 243.184 122.24 243.119 122.22 243.051L122.114 242.664C122.097 242.599 122.079 242.537 122.059 242.472L121.96 242.126L121.86 241.787L121.761 241.458L121.662 241.136L121.562 240.824L121.463 240.52L121.364 240.222L121.264 239.934L121.165 239.653L121.066 239.382C120.983 239.16 120.901 238.947 120.816 238.745L120.716 238.506C120.384 237.721 120.048 237.084 119.709 236.605C119.668 236.546 119.682 236.464 119.74 236.423L119.743 236.416Z" fill="#231F20"/>
<path fill-rule="evenodd" clip-rule="evenodd" d="M94.0386 239.879C94.1003 239.842 94.1825 239.866 94.2167 239.927L94.8196 240.969L95.2682 241.732L95.5628 242.236L96.0012 242.979L96.5801 243.948L97.0082 244.661L97.4295 245.36L97.8473 246.045L98.2618 246.716L98.6694 247.373L98.94 247.805L99.4708 248.651L99.8647 249.271L100.255 249.877C100.3 249.942 100.341 250.011 100.385 250.076L100.769 250.662L101.146 251.237L101.396 251.614L101.642 251.984L102.009 252.525L102.372 253.052L102.732 253.566L102.968 253.902L103.201 254.231L103.434 254.553L103.663 254.871L103.893 255.183L104.119 255.488L104.341 255.786L104.564 256.08L104.783 256.368L105.002 256.649L105.218 256.923L105.434 257.19C105.468 257.234 105.506 257.279 105.54 257.323L105.752 257.584C105.787 257.625 105.821 257.669 105.859 257.71L106.068 257.96C106.102 258.002 106.136 258.043 106.17 258.084L106.376 258.324C106.41 258.365 106.444 258.402 106.479 258.44L106.681 258.673C106.715 258.711 106.749 258.748 106.78 258.786C106.828 258.841 106.825 258.923 106.77 258.971C106.715 259.019 106.633 259.015 106.585 258.961L106.482 258.848L106.28 258.615L106.074 258.375C106.04 258.334 106.006 258.293 105.972 258.252L105.763 258.005L105.554 257.752C105.52 257.707 105.482 257.666 105.448 257.621L105.235 257.358L105.02 257.087L104.804 256.813L104.585 256.532C104.547 256.484 104.513 256.436 104.475 256.388L104.252 256.097L104.03 255.799L103.804 255.494L103.574 255.186L103.345 254.871L103.112 254.549L102.879 254.22L102.642 253.888L102.406 253.549L102.166 253.203L101.803 252.672L101.557 252.312L101.31 251.946L100.937 251.384L100.557 250.809L100.3 250.418L99.9127 249.822L99.6524 249.418L99.2585 248.798L98.8577 248.165L98.4536 247.517L97.9056 246.634L97.4911 245.955L97.2103 245.497L96.6451 244.561L96.2136 243.842L95.7786 243.113L95.3402 242.369L94.8949 241.612L94.2955 240.581L93.9907 240.057C93.953 239.996 93.977 239.914 94.0386 239.879Z" fill="#231F20"/>
<path fill-rule="evenodd" clip-rule="evenodd" d="M36.539 158.73C38.5564 158.11 40.5326 158.723 42.3445 160.12C42.8035 160.477 43.2179 160.853 43.581 161.233C43.6837 161.34 43.7728 161.439 43.855 161.535L43.9646 161.665L43.9852 161.689L44.0879 161.679C47.7939 161.288 50.4963 162.045 52.3458 163.559L52.4315 163.631C52.9658 164.083 53.3836 164.566 53.7022 165.049C53.7946 165.189 53.8734 165.323 53.9385 165.446L53.9933 165.556L54.0104 165.59L54.055 165.573C54.7537 165.337 55.4867 165.2 56.2231 165.166L56.3943 165.159C56.4662 165.159 56.5279 165.213 56.5279 165.285C56.5279 165.357 56.4731 165.419 56.4012 165.419C55.5757 165.436 54.7605 165.59 53.9865 165.871C53.918 165.895 53.846 165.861 53.8186 165.796L53.7981 165.744L53.7604 165.666L53.7433 165.635C53.6748 165.501 53.5891 165.35 53.4864 165.189C53.185 164.727 52.7808 164.261 52.2671 163.83C50.4415 162.292 47.7322 161.525 43.9475 161.956C43.9029 161.963 43.8584 161.942 43.831 161.908L43.7454 161.805L43.718 161.775C43.6632 161.71 43.6015 161.641 43.5365 161.569L43.396 161.418C43.0432 161.049 42.6391 160.679 42.1904 160.333C40.4367 158.983 38.5427 158.394 36.6212 158.983C36.5527 159.004 36.4773 158.966 36.4568 158.898C36.4362 158.829 36.4739 158.754 36.5424 158.733L36.539 158.73Z" fill="#231F20"/>
<path fill-rule="evenodd" clip-rule="evenodd" d="M19.0163 171.696C19.0883 171.7 19.1431 171.762 19.1396 171.833V171.888C19.1294 172.224 19.1431 172.673 19.2047 173.197C19.2972 173.984 19.4719 174.762 19.7527 175.488C20.7323 178.026 22.736 179.41 26.0857 179.06C26.1611 179.054 26.2262 179.108 26.2296 179.184L26.2365 179.286L26.2467 179.406V179.454C26.2741 179.67 26.3084 179.913 26.3563 180.177C26.4899 180.924 26.6988 181.67 27.0002 182.366C28.2367 185.219 30.5555 186.366 34.3368 184.856C34.4122 184.825 34.4944 184.869 34.5115 184.945L34.5492 185.085L34.5834 185.208L34.604 185.277C34.6245 185.352 34.6485 185.431 34.6759 185.513L34.7547 185.763C34.7958 185.89 34.8403 186.024 34.8917 186.164C35.2136 187.082 35.6178 187.997 36.1042 188.853C36.4261 189.418 36.7686 189.928 37.1283 190.377L37.2653 190.545C39.1354 192.781 41.5227 193.446 44.4957 191.898C44.5608 191.863 44.6395 191.891 44.6704 191.953C44.7046 192.018 44.6772 192.096 44.6156 192.127C40.8411 194.093 37.9537 192.614 35.8781 188.98C35.3815 188.11 34.9739 187.178 34.6451 186.25C34.5457 185.972 34.4635 185.709 34.3916 185.469L34.3368 185.28L34.2991 185.15L34.2032 185.188C30.648 186.531 28.3189 185.524 27.0037 182.972L26.9215 182.807C26.8804 182.725 26.8427 182.64 26.805 182.554L26.7673 182.465C26.4557 181.749 26.2433 180.985 26.1029 180.218C26.0618 179.995 26.0309 179.787 26.0104 179.591L25.9933 179.42L25.9864 179.328L25.8802 179.338C22.5887 179.605 20.561 178.19 19.5541 175.67L19.5164 175.577C19.2287 174.827 19.0472 174.029 18.9513 173.221C18.893 172.727 18.8759 172.296 18.8793 171.957V171.813C18.8862 171.741 18.9478 171.686 19.0198 171.69L19.0163 171.696Z" fill="#231F20"/>
<path fill-rule="evenodd" clip-rule="evenodd" d="M164.311 109.88C164.39 109.528 164.743 109.308 165.096 109.387C165.435 109.466 165.651 109.791 165.596 110.127L165.589 110.168C165.469 110.699 165.914 111.37 166.589 111.658C166.928 111.802 167.26 111.874 167.719 111.898L167.87 111.905C167.897 111.905 167.921 111.905 167.949 111.905H168.113H168.288H168.476L168.675 111.891L168.887 111.881L169.117 111.867C169.476 111.846 169.785 112.12 169.809 112.483C169.829 112.843 169.555 113.151 169.192 113.175L168.935 113.189L168.579 113.206L168.36 113.213H168.151C167.274 113.223 166.712 113.134 166.079 112.864C164.866 112.35 164.034 111.096 164.311 109.88Z" fill="#231F20"/>
<path fill-rule="evenodd" clip-rule="evenodd" d="M54.7069 233.855C54.772 233.821 54.8507 233.845 54.885 233.91C54.9192 233.975 54.8953 234.054 54.8302 234.088C54.4192 234.308 54.0219 234.527 53.628 234.746L53.145 235.02L52.6655 235.297L52.0764 235.647L51.6688 235.893L51.2475 236.15L50.6995 236.489L49.8741 237.007L49.1068 237.496L48.1273 238.127L44.7535 240.315L44.0343 240.778L43.2979 241.243L42.5443 241.716L42.3834 241.815C42.1025 241.99 41.8251 242.158 41.5408 242.329L41.003 242.651L40.5064 242.946L40.0132 243.23C35.0913 246.042 30.7688 247.689 26.3847 248.165C26.3128 248.172 26.2477 248.121 26.2408 248.049C26.234 247.977 26.2854 247.912 26.3573 247.905C30.9915 247.398 35.5674 245.573 40.8763 242.425L41.4517 242.079L41.9312 241.788L42.4827 241.449L43.1369 241.038L43.5753 240.76L44.6542 240.069L48.1375 237.808L49.1068 237.185L49.9871 236.626L50.4563 236.332L50.905 236.054L51.4393 235.726L51.8504 235.475L52.1518 235.297L52.6416 235.01L53.1211 234.732L53.4088 234.568L53.6074 234.458C53.9705 234.256 54.337 234.054 54.7137 233.852L54.7069 233.855Z" fill="white"/>
<path d="M103.567 87.4448C103.913 87.4448 104.255 87.4448 104.601 87.4448C104.618 87.4551 104.632 87.4688 104.653 87.4722C107.465 87.873 109.218 90.363 108.958 92.7983C108.944 92.9147 109.081 93.1271 109.194 93.1716C110.133 93.5381 111.078 93.8772 112.037 94.2265C112.123 94.0758 112.195 93.9662 112.256 93.8498C113.633 91.2775 115.637 89.3732 118.353 88.3045C119.387 87.8969 120.514 87.7223 121.597 87.4414C122.364 87.4414 123.128 87.4414 123.895 87.4414C124.039 87.4825 124.179 87.5373 124.323 87.5613C126.734 87.9209 128.848 88.9073 130.646 90.5617C134.311 93.9285 135.472 99.2614 133.513 103.81C131.529 108.42 126.769 111.349 121.857 110.886C121.121 110.818 120.391 110.694 119.624 110.592C118.038 114.99 116.456 119.38 114.859 123.809C116.623 124.645 118.045 125.806 119.237 127.275C120.98 126.145 122.665 125.022 124.388 123.953C124.885 123.645 125.039 123.36 124.816 122.812C124.696 122.521 124.696 122.175 124.686 121.853C124.611 119.555 126.241 117.469 128.491 116.966C130.776 116.455 133.204 117.712 134.081 119.86C134.944 121.966 134.252 124.357 132.379 125.731C130.656 126.995 128.169 126.909 126.471 125.494C126.166 125.241 125.971 125.224 125.638 125.446C124.21 126.405 122.758 127.33 121.316 128.272C120.984 128.488 120.658 128.71 120.333 128.926C123.597 135.372 120.672 142.164 115.394 144.887C112.602 146.326 109.667 146.655 106.66 145.747C102.772 144.572 100.2 141.962 98.7752 138.15C97.2579 138.51 95.7782 138.862 94.302 139.212C94.2712 139.51 94.2541 139.76 94.2232 140.003C93.8362 142.849 91.1543 144.747 88.3492 144.158C86.301 143.726 84.698 141.907 84.5233 139.815C84.3418 137.653 85.6022 135.598 87.5717 134.841C89.6541 134.043 91.9764 134.609 93.2026 136.414C93.7437 137.208 94.2232 137.297 95.0418 137.044C96.1105 136.712 97.2133 136.499 98.3299 136.229C97.8573 132.488 98.8916 129.258 101.358 126.47C100.06 125.042 98.7992 123.658 97.5216 122.254C93.7882 124.919 89.798 125.374 85.5303 123.652C85.0576 124.504 84.6261 125.354 84.1226 126.159C83.8143 126.652 83.7458 127.018 84.2528 127.416C84.4822 127.597 84.6295 127.892 84.7871 128.152C86.0783 130.265 85.4618 133.047 83.3657 134.564C81.4373 135.965 78.5054 135.619 76.9436 133.834C76.2414 133.03 75.8784 132.091 75.666 131.074C75.666 130.728 75.666 130.385 75.666 130.039C75.7003 129.916 75.7379 129.793 75.7653 129.666C76.0805 128.132 76.9128 126.984 78.2931 126.241C79.4782 125.604 80.7249 125.522 82.0367 125.895C82.6361 124.816 83.2252 123.754 83.8075 122.699C76.9059 118.062 76.7244 107.259 84.4309 102.724C83.5335 100.844 82.6361 98.9566 81.749 97.0933C79.5604 97.4633 77.8512 96.881 76.6662 95.2232C76.1969 94.5656 75.9914 93.7128 75.6694 92.9524C75.6694 92.5688 75.6694 92.1852 75.6694 91.805C76.0017 91.0069 76.2346 90.1438 76.6935 89.4245C77.4471 88.2326 78.687 87.712 80.033 87.4414C80.4166 87.4414 80.8002 87.4414 81.1804 87.4414C81.2113 87.4654 81.2387 87.4996 81.2695 87.5065C83.3485 87.8901 84.7391 89.0855 85.2803 91.1234C85.7872 93.0243 85.2358 94.6786 83.7732 96.0007C83.5198 96.2302 83.5849 96.4049 83.7013 96.6447C84.3555 98.0044 85.0028 99.3676 85.6502 100.731C85.8351 101.121 86.0235 101.515 86.1914 101.865C92.4901 100.07 97.3058 101.974 100.82 107.417C104.358 105.916 107.924 104.406 111.537 102.878C110.808 100.611 110.749 98.3504 111.39 96.0864C110.297 95.6822 109.28 95.3089 108.249 94.9287C108.136 95.0725 108.044 95.1924 107.951 95.3123C106.304 97.453 103.204 97.8777 101.152 96.2473C98.8985 94.456 98.5457 91.3974 100.334 89.2293C101.18 88.1984 102.303 87.6949 103.57 87.4483L103.567 87.4448ZM112.301 104.68C108.67 106.221 105.112 107.728 101.55 109.242C102.793 113.64 101.937 117.507 98.9704 120.932C100.248 122.336 101.519 123.734 102.813 125.155C105.906 122.898 109.29 122.206 113.017 123.141C114.62 118.695 116.209 114.291 117.802 109.879C115.384 108.715 113.582 107.006 112.304 104.68H112.301ZM106.403 136.931C104.581 134.201 104.666 131.67 106.612 129.923C108.52 128.21 111.198 128.166 113.144 129.82C114.037 130.581 114.568 131.557 114.753 132.714C115.01 134.307 114.52 135.684 113.445 136.917C115.284 137.715 116.555 139.027 117.332 140.839C120.583 137.273 120.73 131.197 116.695 127.388C112.589 123.515 106.273 123.826 102.567 128.07C98.9602 132.201 99.813 137.979 102.58 140.77C103.348 138.979 104.629 137.701 106.403 136.927V136.931ZM119.155 101.635C116.901 98.9429 117.856 96.0487 119.336 94.6821C121.124 93.0277 123.826 92.8873 125.645 94.3293C126.632 95.1102 127.275 96.1001 127.498 97.3365C127.793 98.9635 127.31 100.388 126.2 101.645C128.043 102.44 129.307 103.752 130.091 105.557C133.711 101.57 133.143 95.1308 128.93 91.6474C124.59 88.0579 118.182 88.8628 114.805 93.4182C111.633 97.6962 112.887 103.204 115.329 105.478C116.425 103.392 116.952 102.861 119.151 101.635H119.155ZM97.7305 119.291C100.957 115.757 101.128 109.711 97.1791 105.903C93.2505 102.111 87.0168 102.245 83.3074 106.132C79.4747 110.15 79.9953 116.089 82.9752 119.243C83.7356 117.435 85.0268 116.147 86.8216 115.363C84.7117 112.904 85.3111 110.04 86.9175 108.461C88.63 106.78 91.3735 106.595 93.2265 107.999C94.2301 108.759 94.8946 109.749 95.1309 110.975C95.4426 112.609 95.0076 114.072 93.8499 115.359C95.6789 116.178 96.9599 117.456 97.7305 119.295V119.291ZM96.0728 120.802C95.6926 118.922 94.415 117.483 92.5723 117.041C91.0721 116.682 89.524 116.661 88.0306 117.069C86.2941 117.538 85.1947 118.73 84.6946 120.453C84.6501 120.607 84.7528 120.901 84.8864 121.001C88.0067 123.35 93.069 123.254 96.0728 120.802ZM109.897 138.428C109.516 138.428 109.054 138.407 108.598 138.431C106.673 138.537 104.903 139.969 104.327 141.815C104.194 142.243 104.283 142.455 104.649 142.695C107.91 144.836 112.123 144.795 115.404 142.596C115.675 142.414 115.688 142.247 115.613 141.983C115.305 140.942 114.729 140.092 113.876 139.421C112.722 138.513 111.39 138.314 109.903 138.428H109.897ZM122.744 103.169C122.247 103.169 121.751 103.142 121.254 103.173C119.343 103.296 117.524 104.831 117.034 106.694C116.952 107.002 117.017 107.167 117.284 107.352C120.425 109.533 125.046 109.523 128.142 107.331C128.389 107.156 128.447 106.999 128.368 106.721C128.06 105.656 127.464 104.796 126.59 104.118C125.45 103.231 124.128 103.056 122.741 103.169H122.744ZM104.081 95.2678C105.69 95.2678 107.006 93.9696 107.016 92.3599C107.026 90.7603 105.718 89.428 104.118 89.404C102.505 89.38 101.152 90.7261 101.159 92.353C101.162 93.9628 102.471 95.2678 104.084 95.2678H104.081ZM122.706 101.145C124.323 101.145 125.625 99.8471 125.628 98.2305C125.631 96.6001 124.282 95.2506 122.672 95.2815C121.069 95.3089 119.761 96.6447 119.768 98.2373C119.778 99.8403 121.097 101.149 122.706 101.145ZM83.4958 130.529C83.4821 128.919 82.1703 127.621 80.5571 127.628C78.9575 127.635 77.632 128.961 77.632 130.557C77.632 132.173 78.9918 133.512 80.6119 133.488C82.2182 133.465 83.5061 132.146 83.4958 130.529ZM86.4619 139.363C86.4551 140.966 87.7601 142.294 89.363 142.315C90.9694 142.336 92.3291 140.979 92.3223 139.359C92.312 137.749 91.0002 136.451 89.387 136.451C87.7703 136.451 86.4654 137.753 86.4619 139.363ZM83.4958 92.3564C83.5027 90.7501 82.2045 89.4245 80.6016 89.404C78.9952 89.3834 77.6218 90.7466 77.6355 92.3564C77.6457 93.956 78.9678 95.2678 80.5742 95.2678C82.1908 95.2678 83.4924 93.9697 83.4992 92.3564H83.4958ZM129.57 124.662C131.173 124.662 132.495 123.343 132.502 121.744C132.509 120.158 131.177 118.812 129.584 118.798C127.967 118.785 126.628 120.127 126.638 121.758C126.649 123.371 127.954 124.665 129.57 124.662ZM107.016 133.509C107.023 135.112 108.348 136.434 109.944 136.434C111.541 136.434 112.866 135.112 112.876 133.509C112.883 131.875 111.544 130.543 109.917 130.567C108.297 130.591 107.009 131.896 107.016 133.509ZM93.271 111.941C93.271 110.325 91.9798 109.02 90.3631 109.013C88.7362 109.006 87.3799 110.355 87.4038 111.962C87.4244 113.558 88.767 114.88 90.3563 114.876C91.9558 114.87 93.2676 113.548 93.271 111.941Z" fill="#A9FF22"/>
</svg>
