<svg width="323" height="75" viewBox="0 0 323 75" fill="none" xmlns="http://www.w3.org/2000/svg">
<path d="M119.887 21.0765C119.492 21.3739 118.914 21.0981 118.914 20.6036V18.0398C118.914 17.7161 118.652 17.4536 118.328 17.4536H106.149C105.825 17.4536 105.562 17.7161 105.562 18.0398V46.4454V73.8974C105.562 74.2211 105.825 74.4835 106.149 74.4835H118.328C118.652 74.4835 118.914 74.2211 118.914 73.8974V46.4454C118.914 42.1539 120.44 37.1948 123.587 33.9523C126.593 30.9462 130.208 29.4193 134.349 29.2884C134.673 29.2782 134.936 29.0168 134.936 28.6931V16.5139C134.936 16.1902 134.673 15.9271 134.35 15.9337C131.25 15.9972 128.484 16.5674 125.971 17.6444C123.708 18.5336 121.718 19.697 119.887 21.0765Z" fill="#A9FF22"/>
<path d="M153.896 17.6445H141.717C141.393 17.6445 141.131 17.907 141.131 18.2307V73.9929C141.131 74.3166 141.393 74.579 141.717 74.579H153.896C154.22 74.579 154.482 74.3166 154.482 73.9929V18.2307C154.482 17.907 154.22 17.6445 153.896 17.6445Z" fill="#A9FF22"/>
<path d="M153.904 0.00976562H141.725C141.401 0.00976562 141.139 0.272193 141.139 0.595913V12.7751C141.139 13.0988 141.401 13.3612 141.725 13.3612H153.904C154.228 13.3612 154.49 13.0988 154.49 12.7751V0.595912C154.49 0.272192 154.228 0.00976562 153.904 0.00976562Z" fill="#A9FF22"/>
<path d="M205.983 31.376C203.79 29.0872 201.215 27.2752 198.259 25.94C195.302 24.6049 192.06 23.9373 188.531 23.9373C185.384 23.9373 182.618 24.4142 180.234 25.3678C178.261 26.1571 176.418 27.1424 174.814 28.2696C174.414 28.5512 173.845 28.272 173.845 27.7822V0.586144C173.845 0.262425 173.582 0 173.258 0H162.987C162.663 0 162.4 0.262427 162.4 0.586146V73.147V73.8007C162.4 74.1244 162.663 74.3868 162.987 74.3868H188.722C192.155 74.3868 195.398 73.7193 198.354 72.3841C201.31 71.049 203.885 69.237 206.079 66.9481C208.272 64.6593 209.894 61.989 211.133 58.9373C212.373 55.8855 212.945 52.643 212.945 49.2098C212.945 45.6812 212.373 42.4386 211.133 39.3869C209.798 36.4305 208.082 33.7602 205.983 31.376ZM197.305 59.0326C194.825 61.6076 191.678 62.9427 188.054 63.0381H174.335C174.012 63.0381 173.749 62.7757 173.749 62.4519V49.4005C173.749 45.5858 175.084 42.3433 177.755 39.673C180.52 37.0027 183.858 35.6675 187.482 35.6675C191.297 35.6675 194.539 37.0027 197.21 39.673C199.88 42.3433 201.215 45.5858 201.215 49.4005C201.31 53.1198 199.975 56.267 197.305 59.0326Z" fill="#A9FF22"/>
<path d="M261.87 31.376C259.677 29.0872 257.102 27.2752 254.145 25.94C251.189 24.6049 247.946 23.9373 244.418 23.9373C241.271 23.9373 238.505 24.4142 236.121 25.3678C234.148 26.1571 232.305 27.1424 230.701 28.2696C230.301 28.5512 229.731 28.272 229.731 27.7823V0.586144C229.731 0.262425 229.469 0 229.145 0H218.873C218.55 0 218.287 0.262426 218.287 0.586146V73.1471V73.8007C218.287 74.1244 218.55 74.3869 218.873 74.3869H244.513C247.946 74.3869 251.189 73.7193 254.145 72.3841C257.102 71.049 259.677 69.237 261.87 66.9482C264.064 64.6593 265.685 61.989 266.925 58.9373C268.164 55.8855 268.737 52.643 268.737 49.2098C268.737 45.6812 268.164 42.4386 266.925 39.3869C265.78 36.4305 264.064 33.7602 261.87 31.376ZM253.287 59.0326C250.808 61.6076 247.66 62.9427 244.036 63.0381H230.317C229.994 63.0381 229.731 62.7757 229.731 62.452V49.4005C229.731 45.5858 231.066 42.3433 233.737 39.673C236.502 37.0027 239.84 35.6675 243.464 35.6675C247.279 35.6675 250.521 37.0027 253.192 39.673C255.862 42.3433 257.197 45.5858 257.197 49.4005C257.292 53.1198 255.957 56.267 253.287 59.0326Z" fill="#A9FF22"/>
<path d="M297.728 63.0406C295.916 63.0406 294.104 62.6591 292.482 61.9915C290.861 61.3239 289.335 60.2749 288 58.9397C287.001 58.0178 286.25 56.972 285.647 55.8524C285.443 55.4748 285.726 55.0297 286.155 55.0297H310.316H321.881C322.147 55.0297 322.381 54.8504 322.442 54.5913C322.839 52.9107 323 51.1495 323 49.3076C323 45.779 322.332 42.5365 320.997 39.4847C319.662 36.433 317.85 33.7627 315.561 31.4739C313.272 29.185 310.602 27.373 307.55 26.0379C304.499 24.7027 301.161 24.0352 297.728 24.0352C294.199 24.0352 290.956 24.7027 287.905 26.0379C284.853 27.373 282.183 29.185 279.894 31.4739C277.605 33.7627 275.793 36.433 274.458 39.4847C273.123 42.5365 272.455 45.8744 272.455 49.3076C272.455 52.7408 273.123 55.9834 274.458 59.0351C275.793 62.0869 277.605 64.7572 279.894 67.046C282.183 69.3348 284.853 71.1468 287.905 72.482C290.956 73.8171 294.294 74.4847 297.728 74.4847C301.542 74.4847 305.071 73.7217 308.313 72.1959C311.556 70.67 314.321 68.5719 316.61 65.9016L318.106 63.8859C318.394 63.4981 318.115 62.9483 317.632 62.9505L297.728 63.0406ZM288 39.5801C290.766 36.9098 294.104 35.5747 297.728 35.5747C301.542 35.5747 304.785 36.9098 307.455 39.5801C308.454 40.5791 309.205 41.6399 309.809 42.7627C310.012 43.1404 309.729 43.5855 309.3 43.5855H286.116C285.673 43.5855 285.391 43.1142 285.614 42.7321C286.263 41.6207 287.01 40.57 288 39.5801Z" fill="#A9FF22"/>
<path d="M101.076 73.7416C101.171 74.1125 100.891 74.4737 100.508 74.4737H89.0567C86.5771 74.4737 84.193 73.9969 81.9041 73.0432C79.7107 72.0896 77.7079 70.7544 76.0867 69.1331C74.4654 67.4165 73.1303 65.5092 72.1766 63.3157C71.2229 61.1223 70.7461 58.7381 70.7461 56.1631V6.93419C70.7461 6.66523 70.9291 6.43078 71.1901 6.36555L83.3693 3.32075C83.7392 3.22826 84.0976 3.50806 84.0976 3.88939V23.8195C84.0976 24.1433 84.36 24.4057 84.6837 24.4057H91.4601C91.7291 24.4057 91.9635 24.5887 92.0287 24.8497L95.0735 37.0289C95.166 37.3988 94.8862 37.7572 94.5049 37.7572H84.6837C84.36 37.7572 84.0976 38.0196 84.0976 38.3433V56.1631C84.0976 57.5936 84.5744 58.7381 85.5281 59.6917C86.4818 60.6454 87.6262 61.1223 88.9613 61.1223H97.3761C97.6436 61.1223 97.8771 61.3034 97.9437 61.5624L101.076 73.7416Z" fill="#A9FF22"/>
<path d="M54.9044 47.2034C54.9044 47.2034 55.4276 52.2413 44.4101 58.4004C43.7822 58.7492 43.1144 59.103 42.4068 59.4618C40.299 60.5382 38.5499 61.5846 37.1148 62.6311C29.5804 68.0128 30.255 72.8416 31.9443 74.4412C30.4789 74.4412 29.0273 74.441 27.2184 74.441C24.677 74.441 22.6211 74.4412 20.8075 74.4412C17.5837 74.4412 16.1184 74.4412 15.2391 74.441C14.9551 74.3513 13.6744 71.5857 13.5399 71.3315C13.8089 71.496 13.7738 71.4745 13.5399 71.3315C13.5399 71.3315 7.82925 63.6327 17.1277 55.9039C17.7256 55.4056 18.3884 54.9123 19.1159 54.4239C24.4378 50.8062 30.6119 47.8014 35.6199 44.5275C41.8537 40.4464 46.2787 35.9317 44.9931 29.2793C47.2205 32.3289 49.5376 35.4832 51.4212 38.7272C53.0208 41.4928 54.2915 44.3182 54.9642 47.2184C54.9243 47.2084 54.9044 47.2034 54.9044 47.2034Z" fill="#A9FF22"/>
<path d="M41.6383 24.0412C41.6284 24.0711 41.6184 24.101 41.6084 24.1309C40.3377 31.157 34.3879 34.0721 29.0361 37.2414C28.9863 37.2613 28.9414 37.2862 28.9016 37.3161C22.2193 41.2777 14.0719 43.7593 8.73506 48.5729C-0.757715 57.1089 2.93473 64.0005 3.18887 64.4341C2.57595 63.5969 2.27697 63.0886 2.27697 63.0886C0.169127 59.2467 -0.339151 55.5243 0.199022 51.8917C0.288717 51.3036 0.403335 50.7107 0.542862 50.1127C0.811948 48.9466 1.18568 47.7956 1.64911 46.6445C2.97959 43.2958 4.99774 40.0369 7.18033 36.8976C10.4991 33.0257 16.5535 29.7668 24.0132 25.7305C24.0132 25.7305 24.2823 25.5511 24.7457 25.2371C27.5562 23.3386 37.617 17.0749 40.0836 11.6333C40.4424 10.841 40.9656 9.54043 41.2198 8.79297C41.2198 8.79297 41.5785 9.1667 40.8311 12.7695C40.4424 14.6381 40.4125 17.4486 40.7862 19.8554C41.1301 22.1725 41.6383 24.0412 41.6383 24.0412Z" fill="#A9FF22"/>
<path d="M32.3646 7.58738C31.6769 9.54573 30.1521 11.5788 28.134 13.582C26.639 15.0769 24.875 16.5569 22.9914 17.9771C21.4666 19.1132 19.8521 20.2195 18.2675 21.251C12.5569 24.9733 10.2248 28.1127 9.92578 28.5313C12.0635 25.1826 13.4389 22.1031 14.2461 19.3076C16.6081 11.1901 14.291 5.38984 12.4971 2.42989C11.8841 1.42829 12.6764 0.1875 13.9322 0.1875H24.9049C35.6534 0.1875 32.3646 7.58738 32.3646 7.58738Z" fill="#A9FF22"/>
</svg>
