<svg width="381" height="263" viewBox="0 0 381 263" fill="none" xmlns="http://www.w3.org/2000/svg">
<path d="M355.625 199.203C363.159 199.203 369.266 193.096 369.266 185.563C369.266 178.029 363.159 171.922 355.625 171.922C348.092 171.922 341.984 178.029 341.984 185.563C341.984 193.096 348.092 199.203 355.625 199.203Z" fill="#C699FF"/>
<g style="mix-blend-mode:multiply">
<path d="M143.212 232.761C152.209 232.761 159.503 225.467 159.503 216.47C159.503 207.473 152.209 200.18 143.212 200.18C134.215 200.18 126.922 207.473 126.922 216.47C126.922 225.467 134.215 232.761 143.212 232.761Z" fill="#A9FF22"/>
</g>
<path fill-rule="evenodd" clip-rule="evenodd" d="M353.039 31.5501C348.351 26.039 343.212 20.9237 337.505 16.6669C334.659 14.5345 331.672 12.6217 328.568 11.0342C325.464 9.45455 322.234 8.18064 318.972 7.46725C315.739 6.7617 312.411 6.60882 309.679 7.39669C309.008 7.60052 308.373 7.84746 307.805 8.1532C307.245 8.46678 306.747 8.81956 306.323 9.21937C305.469 10.0151 304.948 10.995 304.654 12.1396C304.524 12.7197 304.462 13.3429 304.454 13.9975C304.462 14.656 304.532 15.342 304.661 16.0436C304.928 17.4469 305.449 18.9051 306.124 20.3358C307.484 23.205 309.479 25.9567 311.713 28.5358L311.733 28.5594C313.242 30.2958 313.054 32.922 311.321 34.4311C309.585 35.9402 306.958 35.756 305.449 34.0196C305.418 33.9843 305.375 33.9333 305.344 33.8941C302.862 30.7975 300.573 27.4422 298.907 23.5578C298.084 21.6136 297.41 19.54 297.073 17.298C296.912 16.173 296.83 15.0127 296.869 13.8251C296.924 12.6295 297.096 11.4144 297.43 10.2071C298.116 7.79651 299.538 5.45642 301.479 3.81405C302.435 2.98699 303.486 2.31279 304.567 1.77579C305.653 1.25054 306.766 0.874248 307.876 0.588107C310.094 0.0550222 312.293 -0.0821684 314.406 0.0432632C316.519 0.164775 318.561 0.521473 320.525 1.03104C324.456 2.05409 328.09 3.67294 331.5 5.57402C334.906 7.48293 338.081 9.69759 341.06 12.1082C347.03 16.9295 352.216 22.519 356.876 28.4418C357.719 29.5158 357.535 31.068 356.465 31.9147C355.418 32.7378 353.913 32.581 353.055 31.5776L353.043 31.5619L353.039 31.5501Z" fill="#2A4054"/>
<path fill-rule="evenodd" clip-rule="evenodd" d="M356.573 20.5723C328.934 30.0149 315.639 54.1448 315.639 54.1448C336.958 86.957 375.83 86.2749 377.457 61.8667C379.084 37.4585 356.573 20.5723 356.573 20.5723Z" fill="#C699FF"/>
<path fill-rule="evenodd" clip-rule="evenodd" d="M324.209 42.5469C325.22 44.5381 326.263 46.4235 327.329 48.207L327.823 49.0223C334.859 60.4797 343.024 67.5392 351.819 70.3261C360.878 73.1953 370.403 71.4119 379.093 65.6224L379.414 65.4068L380.806 67.4568C371.434 73.8225 361.007 75.8372 351.071 72.6897C340.131 69.2246 330.261 59.7232 322.237 44.1422L321.994 43.6679L324.205 42.543L324.209 42.5469Z" fill="#2A4054"/>
<path fill-rule="evenodd" clip-rule="evenodd" d="M353.544 39.327C356.977 42.9998 356.08 48.1425 351.929 48.5815C347.778 49.0205 343.482 44.4305 344.203 40.3148C344.92 36.203 350.11 35.6503 353.547 39.3231" fill="#362B42"/>
<path fill-rule="evenodd" clip-rule="evenodd" d="M352.481 43.0684L363.12 55.298C363.9 56.1956 363.751 57.5714 362.794 58.277C361.92 58.9237 360.697 58.7708 360.007 57.9359L349.357 45.0204L352.481 43.0684Z" fill="#2A4054"/>
<path fill-rule="evenodd" clip-rule="evenodd" d="M139.602 42.7429L205.194 246.561L321.552 214.482L272.492 11.3301L139.602 42.7429Z" fill="#2A4054"/>
<path d="M267.574 219.565C270.707 218.711 272.38 214.834 271.309 210.905C270.239 206.977 266.831 204.484 263.698 205.337C260.565 206.191 258.893 210.068 259.963 213.997C261.034 217.925 264.441 220.418 267.574 219.565Z" fill="white"/>
<path d="M244.258 27.7878L179.017 43.0541C178.49 43.1774 178.162 43.7045 178.286 44.2315L178.448 44.9261C178.572 45.4531 179.099 45.7803 179.626 45.657L244.867 30.3908C245.394 30.2674 245.722 29.7403 245.598 29.2133L245.436 28.5187C245.313 27.9917 244.785 27.6645 244.258 27.7878Z" fill="white"/>
<path fill-rule="evenodd" clip-rule="evenodd" d="M284.432 108.332L272.273 55.5566L171.477 80.639L192.655 145.593L284.432 108.332Z" fill="#79CFFF"/>
<path fill-rule="evenodd" clip-rule="evenodd" d="M284.432 108.332L272.273 55.5566L171.477 80.639L192.655 145.593L284.432 108.332Z" fill="black" fill-opacity="0.2"/>
<path fill-rule="evenodd" clip-rule="evenodd" d="M252.834 124.736L192.658 145.589C192.658 145.589 209.533 116.113 233.055 117.183L252.834 124.736Z" fill="#93DD12"/>
<path fill-rule="evenodd" clip-rule="evenodd" d="M192.658 145.589C192.658 145.589 215.71 110.335 257.263 136.746C298.817 163.158 340.585 159.834 340.585 159.834L376.208 90.7993C376.208 90.7993 349.601 103.817 321.798 91.791C303.41 83.8378 220.155 95.405 192.658 145.589Z" fill="#A9FF22"/>
<path fill-rule="evenodd" clip-rule="evenodd" d="M268.344 99.5421C268.344 99.5421 286.453 93.2038 297.177 94.5013C307.902 95.7987 316.458 102.215 312.715 107.025C308.972 111.838 300.779 123.221 290.976 122.073C281.173 120.924 239.475 113.438 268.344 99.5381V99.5421Z" fill="#2A4054"/>
<path d="M247.262 132.285C247.262 132.285 230.117 123.176 209.801 131.729" stroke="#2A4054" stroke-width="1.17592" stroke-miterlimit="10"/>
<path d="M331.874 160.308C312.192 160.308 296.161 155.526 295.984 155.471L296.161 155.04C296.361 155.099 316.363 161.065 339.086 159.626L348.901 143.359L349.375 143.567L339.423 160.061L339.274 160.069C336.769 160.23 334.292 160.304 331.87 160.304L331.874 160.308Z" stroke="#2A4054" stroke-width="0.783948" stroke-miterlimit="10"/>
<path fill-rule="evenodd" clip-rule="evenodd" d="M36.6805 230.19C81.8241 270.042 201.741 273.785 237.559 239.895C273.378 206.005 227.258 216.302 212.41 237.355C213.476 186.371 217.541 176.097 178.081 226.199C138.621 276.302 101.572 220.077 93.1992 203.05C84.8266 186.018 75.3879 194.861 84.1446 223.213C38.2915 163.97 -8.46318 190.342 36.6844 230.19" fill="#A9FF22"/>
<g style="mix-blend-mode:multiply">
<path fill-rule="evenodd" clip-rule="evenodd" d="M36.6805 230.19C81.8241 270.042 201.741 273.785 237.559 239.895C273.378 206.005 227.258 216.302 212.41 237.355C213.476 186.371 217.541 176.097 178.081 226.199C138.621 276.302 101.572 220.077 93.1992 203.05C84.8266 186.018 75.3879 194.861 84.1446 223.213C38.2915 163.97 -8.46318 190.342 36.6844 230.19" fill="black"/>
</g>
<path fill-rule="evenodd" clip-rule="evenodd" d="M234.656 208.466C231.171 212.625 225.868 212.605 225.115 208.431C224.359 204.256 228.718 199.062 232.959 199.078C237.2 199.094 238.145 204.311 234.656 208.47V208.466Z" fill="#A9FF22"/>
<path fill-rule="evenodd" clip-rule="evenodd" d="M62.2203 184.372C60.3702 186.798 56.5877 186.312 55.4117 183.498C54.2358 180.683 56.5485 177.65 59.5745 178.038C62.6005 178.426 64.0704 181.946 62.2203 184.372Z" fill="#A9FF22"/>
<path fill-rule="evenodd" clip-rule="evenodd" d="M234.656 208.466C231.171 212.625 225.868 212.605 225.115 208.431C224.359 204.256 228.718 199.062 232.959 199.078C237.2 199.094 238.145 204.311 234.656 208.47V208.466Z" fill="#A9FF22"/>
<path fill-rule="evenodd" clip-rule="evenodd" d="M62.2203 184.372C60.3702 186.798 56.5877 186.312 55.4117 183.498C54.2358 180.683 56.5485 177.65 59.5745 178.038C62.6005 178.426 64.0704 181.946 62.2203 184.372Z" fill="#A9FF22"/>
<path fill-rule="evenodd" clip-rule="evenodd" d="M169.824 262.251L224.246 249.033C270.812 246.184 230.365 265.277 169.824 262.251Z" fill="#A9FF22"/>
<path d="M270.625 258.827L133.062 259.283L133.069 261.325L270.632 260.869L270.625 258.827Z" fill="#A9FF22"/>
<path fill-rule="evenodd" clip-rule="evenodd" d="M82.2061 146.604L75.668 153.538L80.4226 163.639H84.3815L85.5692 168.193L93.4949 166.41L82.2061 146.604Z" fill="#C699FF"/>
<path fill-rule="evenodd" clip-rule="evenodd" d="M83.0269 120.747L73.5607 106.839C73.5137 106.773 73.5019 106.686 73.5254 106.612L76.0066 98.408C76.0419 98.2943 76.1438 98.2198 76.2614 98.2198H78.237C78.3546 98.2198 78.4604 98.1453 78.4957 98.0317L80.5457 90.5802C80.5653 90.5097 80.6123 90.447 80.675 90.4117C80.7378 90.3764 80.8161 90.3686 80.8867 90.3921L89.9099 93.3907C90.0354 93.4338 90.1726 93.3789 90.2314 93.2614L92.2735 89.3651C92.2931 89.3259 92.3245 89.2907 92.3637 89.2632L95.766 86.9937C95.8327 86.9506 95.9111 86.9388 95.9855 86.9584L105.467 89.6669C105.534 89.6865 105.593 89.7297 105.628 89.7924L110.218 97.8239C110.281 97.9376 110.257 98.0787 110.159 98.161L83.4189 120.801C83.3601 120.852 83.2856 120.872 83.2111 120.864C83.1366 120.852 83.0661 120.813 83.0269 120.75V120.747Z" fill="#C699FF"/>
<path fill-rule="evenodd" clip-rule="evenodd" d="M87.67 90.1154C87.7131 89.8567 87.9561 89.6842 88.2148 89.7273C88.4618 89.7704 88.6303 89.9938 88.6068 90.2408V90.2721L87.6582 95.846C87.6229 96.0616 87.4387 96.2262 87.2231 96.238H87.1918H81.8256C81.5473 96.238 81.3318 96.0028 81.3553 95.7284V95.6971L82.0922 90.5426C82.1275 90.2839 82.3666 90.1036 82.6253 90.1428C82.8722 90.1781 83.0486 90.4015 83.029 90.6484V90.6798L82.3666 95.2933H86.788L87.666 90.1114L87.67 90.1154Z" fill="white"/>
<path fill-rule="evenodd" clip-rule="evenodd" d="M82.6031 101.037C82.7991 100.943 83.0343 100.994 83.1715 101.159L83.1911 101.186L86.3151 105.545C86.4758 105.768 86.4092 106.082 86.1779 106.223L86.1505 106.239L81.533 108.645C81.3018 108.767 81.0156 108.677 80.8941 108.445C80.7805 108.222 80.8549 107.952 81.0666 107.822L81.094 107.807L85.2294 105.655L82.6541 102.06L77.9308 104.365C77.7074 104.475 77.4369 104.389 77.3154 104.177L77.2997 104.149C77.19 103.926 77.2762 103.656 77.4879 103.534L77.5153 103.518L82.5992 101.041L82.6031 101.037Z" fill="white"/>
<path fill-rule="evenodd" clip-rule="evenodd" d="M83.6328 113.091C83.9072 113.044 84.1581 113.236 84.1855 113.51V113.542L84.3658 118.743C84.3736 119.006 84.1698 119.222 83.9111 119.233C83.6603 119.241 83.4486 119.053 83.4251 118.81V118.779L83.2604 114.118L78.9056 114.894L78.9487 120.151C78.9487 120.401 78.7567 120.609 78.5097 120.625H78.4784C78.2275 120.625 78.0197 120.433 78.0041 120.19V120.158L77.957 114.502C77.957 114.283 78.106 114.091 78.3176 114.04L78.349 114.032L83.6328 113.091Z" fill="white"/>
<path fill-rule="evenodd" clip-rule="evenodd" d="M102.998 84.0949C103.249 83.9812 103.543 84.1066 103.637 84.3614L103.645 84.3889L105.122 89.3826C105.197 89.6335 105.052 89.8961 104.805 89.9706C104.566 90.0411 104.311 89.9118 104.229 89.6805L104.221 89.6491L102.9 85.1767L98.8823 87.0151L100.238 92.0951C100.305 92.3381 100.168 92.585 99.9328 92.6634L99.9014 92.6713C99.6584 92.7379 99.4114 92.6007 99.333 92.3655L99.3252 92.3342L97.8671 86.87C97.8122 86.6584 97.9063 86.435 98.0983 86.333L98.1258 86.3174L103.002 84.0831L102.998 84.0949Z" fill="white"/>
<path fill-rule="evenodd" clip-rule="evenodd" d="M100.326 95.6691C100.577 95.5554 100.871 95.6809 100.965 95.9356L100.973 95.9631L102.451 100.957C102.525 101.208 102.38 101.47 102.133 101.545C101.894 101.615 101.639 101.486 101.557 101.255L101.549 101.223L100.228 96.7509L96.2104 98.5893L97.5666 103.669C97.6333 103.912 97.4961 104.159 97.2609 104.238L97.2295 104.245C96.9865 104.312 96.7396 104.175 96.6612 103.94L96.6533 103.908L95.1952 98.4443C95.1403 98.2326 95.2344 98.0092 95.4264 97.9073L95.4539 97.8916L100.33 95.6573L100.326 95.6691Z" fill="white"/>
<path fill-rule="evenodd" clip-rule="evenodd" d="M148.074 73.9083C148.074 73.9083 150.873 73.7358 151.382 67.6445L158.775 68.8753C158.775 68.8753 158.846 73.1518 161.386 75.4683L159.79 81.4851L153.483 81.8497L148.556 80.5444L148.074 73.9044V73.9083Z" fill="#C08F67"/>
<path d="M165.621 64.578C165.917 61.3008 162.042 58.2732 156.966 57.8158C151.891 57.3584 147.537 59.6443 147.242 62.9215C146.946 66.1987 150.821 69.2263 155.897 69.6837C160.972 70.1412 165.326 67.8553 165.621 64.578Z" fill="#C08F67"/>
<path fill-rule="evenodd" clip-rule="evenodd" d="M148.617 59.5234C148.617 59.5234 144.869 62.134 149.847 61.9027C149.847 61.9027 149.452 64.4231 154.006 62.7925C154.006 62.7925 155.441 64.819 156.625 62.7415C156.625 62.7415 157.17 65.5089 159.788 63.2354C159.788 63.2354 160.827 66.3007 162.947 62.7925C162.077 63.7724 168.682 67.4648 166.009 61.7067L148.613 59.5234H148.617Z" fill="#231F20"/>
<path fill-rule="evenodd" clip-rule="evenodd" d="M147.286 58.741C147.184 59.3094 147.058 59.7327 147.541 60.0345C149.497 61.2614 152.527 61.5084 154.831 61.6652C158.32 61.9082 162.369 62.3668 165.861 62.6098C167.1 62.6961 166.994 61.5358 166.587 60.5284C166.398 60.0581 165.677 60.0855 165.183 59.9758C163.204 59.5328 161.197 59.082 159.17 59.1722C156.144 59.3015 154.255 58.6548 151.394 57.8473C150.449 57.5965 147.556 57.2476 147.286 58.741Z" fill="#89D5FF"/>
<path fill-rule="evenodd" clip-rule="evenodd" d="M145.775 159.967C145.054 161.833 136.564 160.551 128.807 157.545C121.049 154.538 115.35 150.587 116.071 148.725C116.793 146.86 122.931 148.572 130.688 151.579C138.445 154.585 146.496 158.109 145.775 159.971V159.967Z" fill="#2A4054"/>
<path fill-rule="evenodd" clip-rule="evenodd" d="M150.021 59.4276C150.021 59.4276 148.724 54.0771 152.479 55.0296C156.234 55.9821 155.532 55.3314 157.63 55.6293C159.731 55.9272 164.485 56.7621 165.077 57.8793C165.477 58.6358 165.43 58.8239 164.889 60.3801C164.348 61.9362 150.017 59.4276 150.017 59.4276H150.021Z" fill="#89D5FF"/>
<path fill-rule="evenodd" clip-rule="evenodd" d="M101.704 180.392C91.5993 194.241 80.2909 209.528 65.5213 218.234C63.2086 219.598 60.747 220.981 59.3398 223.27C62.2365 227.665 64.2748 232.568 65.3449 237.719C64.9372 237.746 65.1136 238.111 65.4703 238.303C65.8309 238.495 66.2699 238.346 66.6502 238.197C70.2759 236.766 73.9134 235.328 77.3628 233.517C94.884 224.325 115.247 199.944 126.708 183.705C134.524 172.639 141.925 161.656 147.82 149.407C146.907 145.734 143.555 144.303 140.122 142.728C138.33 141.901 136.476 141.062 134.501 141.007C131.871 140.932 129.421 142.253 127.128 143.551C121.534 146.714 115.804 150.12 112.143 155.4C109.83 158.74 108.489 162.64 107.172 166.485C105.542 171.256 104.672 176.316 101.7 180.392H101.704Z" fill="#C08F67"/>
<path fill-rule="evenodd" clip-rule="evenodd" d="M148.848 147.185C148.205 145.06 146.01 143.837 143.862 143.308C140.46 142.473 136.948 142.097 133.455 141.725C129.496 141.298 125.573 140.968 121.618 140.545C119.881 143.132 118.145 145.723 116.408 148.31C117.933 147.189 123.644 148.847 130.696 151.583C138.449 154.589 146.504 158.113 145.783 159.975C147.668 157.4 147.46 150.866 148.852 147.189L148.848 147.185Z" fill="#89D5FF"/>
<path fill-rule="evenodd" clip-rule="evenodd" d="M163.669 63.2282C163.728 62.9734 163.979 62.8127 164.233 62.8715C164.488 62.9303 164.649 63.1812 164.59 63.436C164.371 64.4237 164.065 65.2547 163.7 65.9446C163.41 66.4933 163.093 66.9245 162.771 67.2499C162.568 67.4576 162.399 67.583 162.285 67.6497C162.14 67.732 161.96 67.732 161.815 67.6497L161.784 67.6301L159.757 66.2464C159.542 66.0975 159.487 65.8035 159.632 65.5879C159.773 65.3801 160.047 65.3213 160.263 65.4468L160.29 65.4625L162.031 66.6501L162.07 66.6109L162.101 66.5796C162.36 66.3209 162.619 65.9642 162.869 65.4977C163.195 64.8863 163.469 64.1337 163.669 63.2282Z" fill="#231F20"/>
<path fill-rule="evenodd" clip-rule="evenodd" d="M157.039 66.0478C157.286 65.9655 157.556 66.0987 157.639 66.3457C157.831 66.918 158.227 67.4001 158.752 67.7019C158.979 67.8313 159.058 68.1213 158.924 68.3487C158.795 68.576 158.505 68.6544 158.278 68.5211C157.553 68.1056 157.008 67.4354 156.741 66.6475C156.659 66.4005 156.792 66.1301 157.039 66.0478Z" fill="#231F20"/>
<path fill-rule="evenodd" clip-rule="evenodd" d="M149.096 107.018L162.639 125.578L182.034 107.688L170.326 91.9698L145.251 87.1211L139.23 88.6263L141.069 101.503L149.096 107.018Z" fill="#C699FF"/>
<path fill-rule="evenodd" clip-rule="evenodd" d="M70.6383 129.405C68.5569 131.556 66.9968 134.183 68.9959 137.201C72.2336 142.089 88.038 157.603 93.0396 165.897C98.0451 174.188 104.015 183.391 107.719 181.929C111.419 180.467 148.684 140.627 148.684 140.627L166.17 121.099C164.998 117.873 142.436 89.5447 138.567 84.4647C136.549 81.8189 134.307 79.373 132.206 76.7938C130.81 75.0809 129.56 73.7207 127.122 74.7124C124.045 75.9785 121.081 79.8825 118.73 82.1246C113.277 87.3144 107.915 92.6178 102.576 97.9212C92.5183 107.889 82.7542 118.508 72.265 127.86C71.724 128.338 71.1635 128.86 70.6383 129.405Z" fill="#2A4054"/>
<path fill-rule="evenodd" clip-rule="evenodd" d="M184.266 150.359C184.705 152.307 176.944 155.984 168.83 157.814C160.716 159.645 153.782 159.551 153.343 157.599C152.904 155.651 158.948 153.64 167.062 151.809C175.176 149.979 183.823 148.407 184.266 150.355V150.359Z" fill="#2A4054"/>
<path fill-rule="evenodd" clip-rule="evenodd" d="M156.334 144.372C157.659 151.494 161.418 174.036 161.697 175.228C162.771 179.818 163.892 184.4 164.801 189.029C165.73 193.756 165.898 198.672 166.843 203.352C168.713 212.618 171.143 221.767 174.122 230.739L177.689 245.638L195.524 242.491C195.9 242.428 193.799 232.354 193.415 230.19C191.459 219.184 189.883 208.118 188.241 197.065C187.516 192.169 186.246 187.281 185.881 182.397C185.482 177.086 184.827 171.802 183.914 166.546C182.808 160.18 181.883 153.971 180.476 147.115C180.104 145.473 155.813 141.573 156.33 144.372H156.334Z" fill="#C08F67"/>
<path fill-rule="evenodd" clip-rule="evenodd" d="M167.059 151.812C175.173 149.981 183.82 148.41 184.263 150.358C184.388 147.167 180.57 141.86 179.676 138.034C177.96 136.627 175.459 136.835 173.374 137.599C170.077 138.81 166.957 140.453 163.852 142.091C160.333 143.949 156.891 145.862 153.371 147.72V157.068C154.014 155.289 159.682 153.486 167.059 151.812Z" fill="#89D5FF"/>
<path fill-rule="evenodd" clip-rule="evenodd" d="M171.239 96.0214C171.239 96.0214 176.468 115.248 170.118 116.925C162.541 118.932 145.314 120.661 145.314 120.661L146.721 153.516C166.763 151.349 186.452 138.986 193.966 119.861C197.341 111.273 195.855 100.306 192.237 91.988C186.899 79.7506 175.194 74.3845 162.236 74.7843L160.895 74.8196C160.895 74.8196 159.092 78.6844 159.025 80.5502L150.457 80.4875C150.457 80.4875 149.555 75.0038 148.074 73.9023C143.664 74.6706 139.352 75.921 135.217 77.6379L143.476 88.9933L171.239 96.0214Z" fill="#2A4054"/>
<path fill-rule="evenodd" clip-rule="evenodd" d="M151.79 137.119C151.79 141.748 151.449 147.847 148.623 151.771C145.032 156.757 141.818 150.893 140.846 147.044C140.144 144.233 140.089 141.305 140.042 138.409C140.019 136.974 139.991 135.539 139.972 134.109C139.94 132.27 139.878 130.416 140.132 128.59C140.477 126.097 142.371 120.691 145.581 120.688C146.279 120.688 146.89 121.134 147.447 121.566C148.654 122.494 149.179 123.204 149.802 124.592C150.383 125.92 150.818 127.312 151.096 128.739C151.66 131.494 151.794 134.32 151.794 137.123L151.79 137.119Z" fill="#2A4054"/>
<path fill-rule="evenodd" clip-rule="evenodd" d="M156.131 146.682C156.119 146.745 156.025 146.753 155.974 146.776C155.265 147.082 154.144 146.945 153.395 146.965C151.788 147 150.181 146.988 148.566 146.965C144.705 146.91 140.848 146.784 136.991 146.588C135.545 146.514 134.098 146.435 132.656 146.302C131.852 146.228 130.661 146.204 130.041 145.608C129.912 145.483 129.806 145.334 129.724 145.173C129.391 144.523 129.45 143.986 129.602 143.315C129.657 143.076 129.998 141.838 130.406 141.924C128.093 141.434 125.902 140.862 123.789 139.752C123.386 139.572 123.025 139.301 122.739 138.964C122.018 138.004 122.845 136.515 123.723 135.989C123.723 135.989 120.168 135.06 121.018 132.744C121.018 132.744 120.94 131.431 121.712 131.195C122.484 130.964 124.417 130.964 125.655 131.427C125.655 131.427 123.413 130.576 124.958 128.181C124.958 128.181 125.193 127.001 127.356 127.464C129.03 127.825 134.577 128.495 136.999 128.789C137.073 128.797 137.14 128.746 137.16 128.675C137.179 128.605 137.14 128.53 137.073 128.499C134.706 127.538 129.285 125.155 129.834 123.701C130.527 121.847 131.068 121.69 131.841 121.847C133.189 122.117 134.522 122.549 135.835 122.948C139.492 124.062 143.122 125.543 146.743 126.7C148.017 127.142 149.346 127.397 150.695 127.456C153.129 127.511 155.771 126.919 156.041 126.754C156.041 126.754 158.291 134.943 156.135 146.686L156.131 146.682Z" fill="#C08F67"/>
<path fill-rule="evenodd" clip-rule="evenodd" d="M176.349 249.02C173.385 247.413 174.503 244.148 178.36 243.575C182.456 242.968 194.595 240.538 195.814 240.69C197.033 240.843 200.686 240.781 197.735 246.264C197.715 246.3 197.707 246.343 197.719 246.382C197.813 246.786 198.288 249.165 196.998 250.847C196.951 250.901 196.947 250.984 196.986 251.043C197.025 251.101 197.1 251.133 197.17 251.113C198.582 250.725 202.121 250.168 203.818 253.806C203.842 253.857 203.889 253.892 203.944 253.904C204.371 253.967 204.798 254.025 205.226 254.092C207.283 254.414 209.357 254.817 211.325 255.507C212.203 255.817 213.139 256.177 213.861 256.785C214.696 257.483 214.727 258.325 214.986 259.317C215.092 259.725 215.205 260.132 215.291 260.544C215.495 261.543 215.433 262.284 214.347 262.574C212.277 263.123 209.831 262.841 207.718 262.88C198.613 263.033 182.922 262.994 180.343 262.994C177.764 262.994 177.035 260.207 177.003 259.94C176.999 259.94 176.376 249.024 176.353 249.016L176.349 249.02Z" fill="#2A4054"/>
<path fill-rule="evenodd" clip-rule="evenodd" d="M58.2916 221.437C58.7776 218.102 62.2309 218.035 64.0967 221.449C66.0762 225.087 72.5398 235.646 72.8181 236.838C73.0925 238.03 74.4135 241.444 68.2438 240.562C68.2046 240.558 68.1615 240.562 68.1301 240.589C67.7852 240.817 65.7156 242.087 63.6891 241.448C63.6224 241.428 63.548 241.448 63.5048 241.506C63.4617 241.565 63.4617 241.644 63.5009 241.702C64.3554 242.89 66.0919 246.026 63.2657 248.872C63.2265 248.911 63.2069 248.97 63.2187 249.025C63.3049 249.448 63.4068 249.871 63.4813 250.295C63.8851 252.337 64.2261 254.422 64.2535 256.507C64.2653 257.44 64.2535 258.444 63.9321 259.33C63.5676 260.353 62.7836 260.67 61.9409 261.258C61.5959 261.497 61.251 261.744 60.8943 261.964C60.028 262.497 59.3068 262.697 58.66 261.775C57.4292 260.023 56.853 257.628 56.0887 255.657C52.8079 247.163 47.4378 232.417 46.548 229.998C45.7014 227.689 48.0258 225.929 48.261 225.812C48.261 225.812 58.2877 221.465 58.2916 221.437Z" fill="#2A4054"/>
<path fill-rule="evenodd" clip-rule="evenodd" d="M130.704 124.336C130.704 124.336 130.351 122.399 131.849 122.489C131.849 122.489 132.982 122.517 133.154 122.756C133.522 123.293 133.056 124.069 132.758 124.524C132.586 124.786 132.397 125.041 132.19 125.28C132.084 125.402 132.037 125.515 131.864 125.468C131.661 125.39 131.476 125.265 131.327 125.108C131.057 124.908 130.845 124.641 130.708 124.336H130.704Z" fill="#2A4054"/>
<path fill-rule="evenodd" clip-rule="evenodd" d="M125.023 129.723C125.023 129.229 125.176 128.747 125.455 128.339C125.513 128.229 125.592 128.131 125.682 128.049C125.909 127.861 126.223 127.908 126.501 127.963C126.819 128.021 127.591 127.955 127.595 128.457V128.907C127.607 129.19 127.587 129.472 127.536 129.746C127.458 130.126 127.242 130.463 126.928 130.691C126.242 131.134 125.078 130.691 125.023 129.723Z" fill="#2A4054"/>
<path fill-rule="evenodd" clip-rule="evenodd" d="M122.363 134.711C122.14 134.555 121.944 134.359 121.783 134.135C121.485 133.657 121.52 133.022 121.571 132.434C121.571 132.297 121.607 132.16 121.669 132.038C121.767 131.913 121.908 131.83 122.065 131.803C122.59 131.658 123.139 131.619 123.68 131.693C123.711 131.693 123.739 131.705 123.762 131.724C123.786 131.752 123.798 131.787 123.802 131.822C123.966 132.904 123.856 134.01 123.48 135.037C123.288 135.578 122.618 134.915 122.359 134.715L122.363 134.711Z" fill="#2A4054"/>
<path fill-rule="evenodd" clip-rule="evenodd" d="M123.186 138.584C123.037 137.981 123.174 137.342 123.562 136.856C123.656 136.715 123.789 136.601 123.938 136.527C124.103 136.472 124.275 136.448 124.448 136.468L124.993 136.48C125.04 136.48 125.091 136.487 125.134 136.507C125.185 136.542 125.224 136.593 125.244 136.652C125.506 137.24 125.585 137.891 125.471 138.526C125.447 138.675 125.095 139.999 124.848 139.862C124.264 139.525 123.397 139.302 123.182 138.588L123.186 138.584Z" fill="#2A4054"/>
<path fill-rule="evenodd" clip-rule="evenodd" d="M130.357 144.873C130.204 144.438 130.212 143.96 130.384 143.533C130.427 143.396 130.494 143.266 130.588 143.157C130.858 142.855 131.36 142.808 131.803 142.78C131.874 142.772 131.948 142.78 132.019 142.808C132.077 142.839 132.121 142.89 132.148 142.953C132.501 143.627 132.477 144.434 132.093 145.089C131.631 145.896 130.709 145.7 130.361 144.877L130.357 144.873Z" fill="#2A4054"/>
<path fill-rule="evenodd" clip-rule="evenodd" d="M131.708 141.949L132.107 141.981L132.586 142.012L133.005 142.036L133.468 142.059L134.22 142.095C134.271 142.095 134.314 142.142 134.31 142.193C134.31 142.243 134.263 142.287 134.212 142.283L133.585 142.255L133.044 142.228L132.715 142.208L132.401 142.189L132.092 142.169L131.825 142.149C131.782 142.149 131.735 142.142 131.688 142.138C131.637 142.134 131.598 142.087 131.602 142.036C131.606 141.985 131.653 141.946 131.704 141.949H131.708Z" fill="#231F20"/>
<path fill-rule="evenodd" clip-rule="evenodd" d="M126.405 136.039C129.141 136.243 131.72 136.572 133.888 137.062C133.939 137.074 133.97 137.125 133.958 137.176C133.946 137.227 133.896 137.258 133.845 137.247C131.689 136.757 129.117 136.431 126.389 136.227C126.338 136.227 126.299 136.177 126.303 136.126C126.303 136.075 126.354 136.035 126.405 136.039Z" fill="#231F20"/>
<path fill-rule="evenodd" clip-rule="evenodd" d="M127.221 131.623L132.337 132.583C132.388 132.591 132.423 132.642 132.411 132.693C132.403 132.74 132.364 132.772 132.317 132.772H132.301L127.186 131.811C127.135 131.803 127.1 131.752 127.112 131.701C127.119 131.654 127.159 131.623 127.206 131.623H127.221Z" fill="#231F20"/>
<path fill-rule="evenodd" clip-rule="evenodd" d="M191.863 92.1566C186.446 80.4169 175.71 74.3727 162.23 74.7882L160.889 74.8235C160.889 74.8235 159.086 78.6883 159.02 80.5541L150.451 80.4914C150.451 80.4914 149.549 75.0077 148.068 73.9062C148.068 73.9062 140.044 75.5173 133.475 78.2964L142.337 89.2638L171.233 96.0254C171.233 96.0254 176.462 115.252 170.112 116.929C162.536 118.936 145.308 120.665 145.308 120.665V120.708C145.395 120.708 145.477 120.696 145.567 120.692C146.265 120.692 146.876 121.139 147.433 121.57C148.64 122.499 149.165 123.209 149.789 124.596C150.369 125.925 150.804 127.317 151.082 128.743C151.65 131.495 151.78 134.317 151.78 137.12C151.78 141.749 151.439 147.848 148.613 151.772C147.966 152.677 147.327 153.218 146.712 153.489V153.516C162.014 151.862 175.733 143.697 186.724 133.153C197.719 122.609 197.864 107.965 192.894 94.6534C192.576 93.7911 192.232 92.9601 191.859 92.1566H191.863Z" fill="#C699FF"/>
<path d="M104.228 145.138L93.5341 155.103C93.0083 155.593 92.9792 156.416 93.4692 156.942L98.5251 162.368C99.0151 162.894 99.8386 162.923 100.364 162.433L111.058 152.468C111.584 151.978 111.613 151.154 111.123 150.629L106.067 145.203C105.577 144.677 104.753 144.648 104.228 145.138Z" fill="#A9FF22"/>
<path d="M123.843 152.22L105.154 169.629C104.681 170.07 104.655 170.812 105.096 171.285L105.296 171.5C105.737 171.974 106.479 172 106.953 171.559L125.641 154.15C126.115 153.709 126.141 152.967 125.7 152.494L125.5 152.278C125.058 151.805 124.317 151.779 123.843 152.22Z" fill="#A9FF22"/>
<path d="M126.902 155.612L108.317 172.931C107.846 173.369 107.82 174.106 108.259 174.576L108.475 174.809C108.913 175.279 109.65 175.305 110.12 174.867L128.706 157.548C129.176 157.109 129.202 156.373 128.764 155.902L128.547 155.67C128.109 155.2 127.372 155.174 126.902 155.612Z" fill="#A9FF22"/>
<path fill-rule="evenodd" clip-rule="evenodd" d="M71.5469 142.225L135.905 79.2461L142.624 88.2144L78.669 152.463L71.5469 142.225Z" fill="#A9FF22"/>
<path fill-rule="evenodd" clip-rule="evenodd" d="M184.709 194.395C184.928 194.254 185.222 194.313 185.363 194.532C185.947 195.43 185.512 196.719 184.568 197.303C183.831 197.758 182.906 197.829 181.839 197.629C180.62 197.401 179.464 196.919 178.441 196.214C178.225 196.065 178.174 195.771 178.323 195.555C178.472 195.34 178.766 195.289 178.982 195.438C179.891 196.069 180.926 196.5 182.016 196.7C182.874 196.86 183.576 196.809 184.074 196.5C184.587 196.182 184.83 195.496 184.595 195.081L184.575 195.049C184.434 194.83 184.493 194.536 184.713 194.395H184.709Z" fill="#2A4054"/>
<path fill-rule="evenodd" clip-rule="evenodd" d="M109.936 195.333C110.026 195.086 110.296 194.961 110.539 195.051C110.782 195.141 110.912 195.411 110.822 195.654C110.136 197.544 110.739 199.664 112.319 200.907C112.523 201.067 112.558 201.365 112.397 201.569C112.237 201.773 111.939 201.808 111.735 201.648C109.834 200.15 109.109 197.602 109.936 195.329V195.333Z" fill="#2A4054"/>
<path fill-rule="evenodd" clip-rule="evenodd" d="M52.0201 161.573L13.2695 135.879L17.2912 130.191L54.4307 158.163L52.0201 161.573Z" fill="#A9FF22"/>
<path fill-rule="evenodd" clip-rule="evenodd" d="M52.9006 144.072L33.6273 117.849L35.8066 113.906L51.368 114.184L51.5561 114.169L30.1348 79.8592L36.5396 75.9434L60.4265 115.878L57.4201 120.907L40.475 119.354L40.671 119.315L56.0011 141.877L52.9006 144.072Z" fill="#A9FF22"/>
<path fill-rule="evenodd" clip-rule="evenodd" d="M16.0881 90.1572C25.7111 92.5992 29.0821 104.547 22.1559 111.661C15.2297 118.775 3.1961 115.722 0.499323 106.165C-2.19746 96.6091 6.46125 87.7191 16.0881 90.1611" fill="#A9FF22"/>
</svg>
