<svg width="311" height="270" viewBox="0 0 311 270" fill="none" xmlns="http://www.w3.org/2000/svg">
<path fill-rule="evenodd" clip-rule="evenodd" d="M62.0464 234.072C109.927 276.337 237.112 280.311 275.101 244.369C313.09 208.426 264.173 219.347 248.426 241.672C249.558 187.598 253.867 176.702 212.013 229.841C170.16 282.979 130.868 223.347 121.987 205.286C113.109 187.225 103.095 196.601 112.382 226.668C63.7486 163.831 14.1629 191.803 62.0432 234.069" fill="#A9FF22"/>
<path fill-rule="evenodd" clip-rule="evenodd" d="M62.0464 234.072C109.927 276.337 237.112 280.311 275.101 244.369C313.09 208.426 264.173 219.347 248.426 241.672C249.558 187.598 253.867 176.702 212.013 229.841C170.16 282.979 130.868 223.347 121.987 205.286C113.109 187.225 103.095 196.601 112.382 226.668C63.7486 163.831 14.1629 191.803 62.0432 234.069" fill="black"/>
<path fill-rule="evenodd" clip-rule="evenodd" d="M272.031 211.035C268.334 215.444 262.713 215.424 261.911 210.997C261.11 206.569 265.734 201.06 270.233 201.076C274.731 201.092 275.732 206.627 272.035 211.035H272.031Z" fill="#A9FF22"/>
<path fill-rule="evenodd" clip-rule="evenodd" d="M89.1486 185.483C87.1857 188.057 83.1764 187.539 81.9279 184.553C80.6826 181.567 83.1346 178.352 86.3427 178.764C89.5508 179.176 91.1114 182.912 89.1486 185.483Z" fill="#A9FF22"/>
<path fill-rule="evenodd" clip-rule="evenodd" d="M272.031 211.035C268.334 215.444 262.713 215.424 261.911 210.997C261.11 206.569 265.734 201.06 270.233 201.076C274.731 201.092 275.732 206.627 272.035 211.035H272.031Z" fill="#A9FF22"/>
<path fill-rule="evenodd" clip-rule="evenodd" d="M89.1486 185.483C87.1857 188.057 83.1764 187.539 81.9279 184.553C80.6826 181.567 83.1346 178.352 86.3427 178.764C89.5508 179.176 91.1114 182.912 89.1486 185.483Z" fill="#A9FF22"/>
<path fill-rule="evenodd" clip-rule="evenodd" d="M203.277 268.081L260.998 254.064C310.387 251.043 267.488 271.292 203.277 268.081Z" fill="#A9FF22"/>
<path d="M310.177 264.45L164.275 264.934L164.283 267.099L310.185 266.615L310.177 264.45Z" fill="#A9FF22"/>
<path d="M167.574 69.5208C168.347 65.5976 163.736 61.386 157.276 60.1139C150.816 58.8417 144.953 60.9909 144.18 64.914C143.408 68.8372 148.018 73.0488 154.478 74.321C160.939 75.5931 166.802 73.444 167.574 69.5208Z" fill="#C08F67"/>
<path fill-rule="evenodd" clip-rule="evenodd" d="M169.432 68.4323C168.821 68.9729 167.916 69.0115 167.109 68.8667C166.803 68.812 166.504 68.7186 166.217 68.5899C165.497 68.2585 164.934 67.6568 164.654 66.9103C164.58 67.3318 164.284 67.6825 163.881 67.8273C163.627 67.9078 163.36 67.9303 163.096 67.8949C162.691 67.8659 162.298 67.7437 161.947 67.5377C161.137 67.0325 160.866 66.1348 160.609 65.2145C159.978 66.0125 159.019 66.7075 158.009 66.5306C157.481 66.4115 157.002 66.1316 156.638 65.7326C156.336 65.4494 156.085 65.118 155.888 64.7544C155.589 65.0954 155.232 65.3818 154.833 65.5974C154.28 65.8581 153.633 65.8548 153.083 65.5845C152.542 65.3175 152.133 64.9925 152.014 64.4004C151.754 64.6611 151.429 64.8509 151.071 64.9442C150.016 65.2789 148.716 65.192 148.002 64.3457C147.287 63.5027 147.397 62.3314 147.519 61.2695C151.017 61.4465 154.585 61.3596 158.083 61.5591C159.785 61.6267 161.481 61.7876 163.167 62.0321C163.91 62.1383 164.644 62.3185 165.352 62.5727C166.069 62.8269 171.089 66.9618 169.426 68.4323H169.432Z" fill="#2A4054"/>
<path fill-rule="evenodd" clip-rule="evenodd" d="M144.565 59.1127C144.468 59.1963 144.385 59.2928 144.32 59.4023C143.847 60.1906 144.253 61.6161 145.08 62.0859C145.527 62.3401 146.071 62.3626 146.585 62.3819C154.118 62.6554 162.06 63.7173 169.136 66.3172C169.982 66.6293 170.635 65.9793 170.886 65.162C171.118 64.3029 170.806 63.3891 170.094 62.8517C169.625 62.546 169.103 62.3272 168.556 62.2017C164.196 60.9339 159.772 59.8946 155.306 59.0869C152.532 58.5849 149.687 58.2406 146.885 58.5335C146.161 58.5882 145.141 58.6139 144.568 59.1159L144.565 59.1127Z" fill="#A9FF22"/>
<path fill-rule="evenodd" clip-rule="evenodd" d="M148.089 56.351C148.256 56.0163 148.459 55.656 148.813 55.5305C148.996 55.479 149.189 55.4629 149.379 55.4886C154.341 55.7461 159.274 56.38 164.139 57.3903C164.908 57.5512 165.7 57.7282 166.337 58.1851C167.852 59.2663 167.991 61.4865 167.692 63.3335C162.221 61.6635 156.407 61.6346 150.689 61.4029C149.772 61.3675 146.876 61.5412 146.425 60.5373C146.01 59.6138 147.674 57.1908 148.089 56.3574V56.351Z" fill="#A9FF22"/>
<path fill-rule="evenodd" clip-rule="evenodd" d="M163.002 66.6986C163.092 66.4123 163.397 66.2578 163.681 66.3479C163.967 66.438 164.121 66.7437 164.031 67.0269C163.603 68.3654 162.706 69.6332 161.57 70.782C161.019 71.3322 160.151 71.3869 159.539 70.9236L159.494 70.8882C159.385 70.7981 159.256 70.7048 159.111 70.605C158.854 70.428 158.551 70.2414 158.21 70.0483C157.795 69.8134 157.351 69.5785 156.907 69.3565L156.727 69.2664L156.556 69.186L156.367 69.0959L156.315 69.0734C156.042 68.9479 155.922 68.6293 156.048 68.3558C156.173 68.0823 156.492 67.9632 156.766 68.0887L157.023 68.2078L157.2 68.2914L157.39 68.3848C157.853 68.6132 158.317 68.8578 158.751 69.1055C159.115 69.3147 159.443 69.5174 159.729 69.7105C159.896 69.8263 160.044 69.9357 160.183 70.0451C160.369 70.1964 160.64 70.1835 160.807 70.0162C161.83 68.98 162.638 67.841 163.005 66.6954L163.002 66.6986Z" fill="#2A4054"/>
<path d="M220.238 74.0593L220.104 74.6559C220.072 74.7963 220.161 74.9357 220.301 74.9673L221.114 75.1499C221.255 75.1815 221.394 75.0932 221.426 74.9528L221.56 74.3562C221.591 74.2158 221.503 74.0764 221.363 74.0448L220.549 73.8622C220.409 73.8306 220.27 73.9189 220.238 74.0593Z" fill="#231F20"/>
<path fill-rule="evenodd" clip-rule="evenodd" d="M135.809 232.448C133.537 229.353 136.272 226.395 140.52 227.596C145.031 228.87 155.868 238.185 157.046 238.916C158.22 239.646 162.915 239.324 157.223 243.778C155.923 244.801 157.796 245.126 154.987 246.68C154.913 246.719 154.871 246.799 154.88 246.883C154.89 246.967 154.954 247.031 155.035 247.05C156.673 247.295 160.585 248.366 160.573 253.029C160.573 253.093 160.602 253.154 160.656 253.19C161.065 253.46 161.477 253.724 161.885 253.994C163.835 255.294 163.816 255.803 165.509 257.46C166.265 258.2 167.05 259.027 167.504 260.005C168.025 261.138 167.645 262.048 167.433 263.226C167.346 263.709 167.266 264.194 167.153 264.674C166.879 265.829 166.455 266.592 165.19 266.389C162.793 266.006 162.375 265.459 160.19 264.507C150.746 260.391 132.639 252.118 129.985 250.908C127.452 249.756 127.928 246.391 128.035 246.098C128.025 246.098 135.831 232.474 135.812 232.451L135.809 232.448Z" fill="#79CFFF"/>
<path fill-rule="evenodd" clip-rule="evenodd" d="M135.809 232.448C133.537 229.353 136.272 226.395 140.52 227.596C145.031 228.87 155.868 238.185 157.046 238.916C158.22 239.646 162.915 239.324 157.223 243.778C155.923 244.801 157.796 245.126 154.987 246.68C154.913 246.719 154.871 246.799 154.88 246.883C154.89 246.967 154.954 247.031 155.035 247.05C156.673 247.295 160.585 248.366 160.573 253.029C160.573 253.093 160.602 253.154 160.656 253.19C161.065 253.46 161.477 253.724 161.885 253.994C163.835 255.294 163.816 255.803 165.509 257.46C166.265 258.2 167.05 259.027 167.504 260.005C168.025 261.138 167.645 262.048 167.433 263.226C167.346 263.709 167.266 264.194 167.153 264.674C166.879 265.829 166.455 266.592 165.19 266.389C162.793 266.006 162.375 265.459 160.19 264.507C150.746 260.391 132.639 252.118 129.985 250.908C127.452 249.756 127.928 246.391 128.035 246.098C128.025 246.098 135.831 232.474 135.812 232.451L135.809 232.448Z" fill="black" fill-opacity="0.2"/>
<path fill-rule="evenodd" clip-rule="evenodd" d="M197.729 255.445C193.925 254.91 193.72 250.898 197.539 248.687C201.6 246.345 215.063 239.352 216.405 239.018C217.747 238.683 220.794 235.099 220.009 242.287C219.832 243.935 222.229 245.817 221.376 248.912C221.35 248.993 221.379 249.08 221.447 249.128C221.515 249.176 221.605 249.176 221.675 249.128C222.995 248.124 226.492 246.074 229.823 249.344C229.868 249.389 229.932 249.408 229.993 249.395C230.473 249.292 230.949 249.18 231.425 249.077C233.729 248.584 234.067 248.954 236.432 248.9C237.487 248.877 238.63 248.9 239.647 249.247C240.821 249.662 241.214 250.57 241.905 251.548C242.192 251.947 242.485 252.346 242.745 252.761C243.395 253.765 243.63 254.601 242.604 255.361C240.654 256.809 239.978 256.722 237.767 257.629C228.24 261.526 209.667 268.715 206.948 269.773C204.348 270.784 202.276 268.09 202.131 267.823C202.131 267.814 197.745 255.448 197.716 255.445H197.729Z" fill="#79CFFF"/>
<path fill-rule="evenodd" clip-rule="evenodd" d="M197.729 255.445C193.925 254.91 193.72 250.898 197.539 248.687C201.6 246.345 215.063 239.352 216.405 239.018C217.747 238.683 220.794 235.099 220.009 242.287C219.832 243.935 222.229 245.817 221.376 248.912C221.35 248.993 221.379 249.08 221.447 249.128C221.515 249.176 221.605 249.176 221.675 249.128C222.995 248.124 226.492 246.074 229.823 249.344C229.868 249.389 229.932 249.408 229.993 249.395C230.473 249.292 230.949 249.18 231.425 249.077C233.729 248.584 234.067 248.954 236.432 248.9C237.487 248.877 238.63 248.9 239.647 249.247C240.821 249.662 241.214 250.57 241.905 251.548C242.192 251.947 242.485 252.346 242.745 252.761C243.395 253.765 243.63 254.601 242.604 255.361C240.654 256.809 239.978 256.722 237.767 257.629C228.24 261.526 209.667 268.715 206.948 269.773C204.348 270.784 202.276 268.09 202.131 267.823C202.131 267.814 197.745 255.448 197.716 255.445H197.729Z" fill="black" fill-opacity="0.2"/>
<path fill-rule="evenodd" clip-rule="evenodd" d="M254.723 111.96C255.28 111.552 255.901 111.137 256.59 111.159C257.645 111.198 258.359 112.211 258.903 113.109C259.071 113.334 259.164 113.605 259.17 113.888C259.125 114.148 259.003 114.386 258.823 114.58C256.715 117.279 254.514 119.969 251.728 121.961C251.65 122.025 251.56 122.067 251.461 122.09C251.19 122.119 251.026 121.803 250.952 121.543C250.46 119.844 249.81 116.6 250.737 114.943C251.071 114.351 251.65 114.229 252.197 113.881C253.092 113.328 253.88 112.581 254.723 111.964V111.96Z" fill="#C08F67"/>
<path fill-rule="evenodd" clip-rule="evenodd" d="M182.929 158.518C182.97 156.568 183.579 154.638 184.045 152.478C184.94 148.311 185.87 144.151 186.838 140C188.814 131.524 190.944 123.087 193.229 114.689C195.256 107.237 199.893 87.8948 202.161 80.5068C203.29 76.8257 202.27 74.6762 203.297 70.9597C204.52 66.5192 206.071 64.9843 211.309 66.3486C217.172 67.8771 223.479 70.0297 229.329 71.5936C239.773 74.4091 246.769 75.1846 262.24 78.5343C266.536 79.4642 264.19 82.5694 263.06 86.1507C257.864 102.748 251.023 131.515 246.724 148.366C244.558 156.88 242.393 165.398 240.124 173.886C238.992 178.134 236.118 187.764 234.928 191.996C233.628 196.581 233.428 201.511 226.877 200.719C226.111 200.626 227.292 199.583 226.542 199.39L190.329 190.146C187.379 182.741 186.478 169.311 183.521 161.91C183.089 160.832 182.89 159.677 182.929 158.515V158.518Z" fill="#231F20"/>
<path fill-rule="evenodd" clip-rule="evenodd" d="M23.793 264.671H139.603V243.997L128.537 231.824L139.233 199L150.299 183.506L148.085 169.123L138.554 155.521L83.5403 137.035L49.6091 158.794V180.925L28.5874 193.835L27.1105 208.218L31.9049 235.511L23.793 264.671Z" fill="#2A4054"/>
<path fill-rule="evenodd" clip-rule="evenodd" d="M116.539 216.146C123.628 211.744 132.943 211.969 137.545 217.514C137.735 217.742 137.702 218.086 137.474 218.276C137.245 218.466 136.901 218.434 136.711 218.206C132.503 213.134 123.782 212.925 117.109 217.066C114.988 218.382 112.993 220.043 110.915 222.154C110.805 222.266 110.696 222.376 110.59 222.485L110.461 222.617C110.355 222.726 110.248 222.836 110.146 222.948L109.956 223.148L109.705 223.418L109.399 223.75L109.023 224.162L108.633 224.599L108.363 224.905L108.009 225.31L107.481 225.922L106.818 226.697L105.985 227.685L104.473 229.481L103.742 230.34L103.417 230.719L102.88 231.34L102.381 231.91L102.108 232.216L101.834 232.521L101.667 232.708C101.573 232.811 101.48 232.911 101.39 233.01L101.113 233.306C101.023 233.403 100.93 233.503 100.84 233.599L100.566 233.886C100.521 233.934 100.476 233.979 100.431 234.027L100.161 234.304L99.8905 234.574C96.9849 237.464 94.2948 239.285 91.238 240.189L91.1254 240.221L90.9033 240.283C89.7932 240.582 88.6927 240.759 87.4185 240.836L87.1611 240.849C87.1192 240.849 87.0742 240.852 87.0324 240.855L86.7685 240.865L86.4982 240.875C86.4081 240.875 86.3148 240.878 86.2215 240.881H85.9383L85.6487 240.884C85.6005 240.884 85.5522 240.884 85.5007 240.884H85.2015C85.15 240.884 85.1017 240.884 85.0502 240.881L84.7413 240.875L84.4228 240.868L84.0978 240.859L83.5958 240.842L83.0713 240.82L80.4842 240.688L79.9855 240.665L79.6379 240.653L79.2743 240.64C74.9786 240.511 70.6797 240.926 66.487 241.869L66.2553 241.924L66.0333 241.975L65.8241 242.027C65.6857 242.062 65.557 242.097 65.4348 242.133L65.2546 242.187C64.5756 242.4 64.0801 242.638 63.6392 242.973C63.0504 243.42 62.6063 244.002 62.1108 244.932L62.0111 245.122C61.995 245.154 61.9789 245.186 61.9596 245.222L61.8566 245.428C61.8405 245.463 61.8212 245.499 61.8051 245.534L61.6989 245.756C58.2656 252.983 56.4701 260.876 56.4379 268.879C56.4379 269.178 56.1933 269.419 55.8941 269.419C55.5948 269.419 55.3535 269.175 55.3535 268.876C55.3857 260.715 57.2166 252.665 60.7207 245.293L60.7754 245.177L60.8848 244.948C60.9202 244.874 60.9589 244.804 60.9942 244.733L61.1004 244.524C61.6861 243.404 62.2202 242.693 62.9796 242.113C63.5781 241.657 64.2217 241.361 65.1065 241.1L65.3157 241.042C65.3865 241.023 65.4605 241.003 65.5345 240.984L65.763 240.926L66.0011 240.868C66.0815 240.849 66.1652 240.83 66.2488 240.81C70.5317 239.845 74.9175 239.423 79.3065 239.555L79.6154 239.565L80.0273 239.581L80.5325 239.604L82.7656 239.716L83.2869 239.739L83.6215 239.752L84.1106 239.768L84.426 239.777L84.7317 239.784L85.0309 239.79C85.0792 239.79 85.1307 239.79 85.1789 239.79H85.4685H85.7485C85.8418 239.79 85.9319 239.79 86.022 239.79H86.2891C86.3341 239.784 86.3759 239.784 86.421 239.784L86.6816 239.777L86.9358 239.768C86.9777 239.768 87.0195 239.765 87.0613 239.761L87.3091 239.748L87.5504 239.732C87.589 239.732 87.6309 239.726 87.6695 239.723L87.9044 239.703C87.943 239.7 87.9816 239.697 88.0202 239.694L88.2487 239.671C89.1979 239.568 90.0571 239.398 90.9291 239.143C93.8218 238.291 96.4057 236.524 99.2373 233.689L99.5044 233.419L99.7715 233.142C99.8165 233.097 99.8616 233.049 99.9066 233.001L100.177 232.714L100.45 232.422L100.724 232.122L101.01 231.807L101.3 231.485L101.721 231.012L102.204 230.462L102.851 229.709L103.459 228.995L105.673 226.369L106.136 225.825L106.731 225.127L107.201 224.583L107.497 224.242L107.784 223.917L108.06 223.608L108.327 223.309L108.588 223.023L108.846 222.743L109.164 222.401L109.354 222.199L109.611 221.932L109.936 221.597L110.136 221.394C112.269 219.226 114.329 217.514 116.53 216.146H116.539Z" fill="#89D5FF"/>
<path fill-rule="evenodd" clip-rule="evenodd" d="M149.822 170.65C150.122 170.65 150.366 170.885 150.369 171.184C150.373 171.471 150.151 171.709 149.871 171.731H149.835L120.232 172.066L119.247 172.082L118.784 172.092L118.05 172.108L117.497 172.124L116.969 172.14L116.715 172.15L116.223 172.172L115.865 172.188L115.634 172.201L115.405 172.214L115.071 172.237L114.742 172.259L114.421 172.285L114.208 172.304L113.893 172.333L113.687 172.352L113.378 172.385L113.166 172.407C112.883 172.439 112.599 172.475 112.313 172.513C109.291 172.922 106.746 173.675 104.513 174.904C98.8756 178.003 95.4036 184.638 96.192 190.916C96.3754 192.364 96.7422 193.583 97.3472 194.59C99.2231 197.721 103.48 199.021 108.59 198.622C112.702 198.3 116.725 197.258 120.476 195.54C120.689 195.443 120.892 195.347 121.097 195.25L121.249 195.176C121.326 195.141 121.4 195.102 121.477 195.063L121.628 194.989L121.924 194.841L122.15 194.726L122.455 194.568L122.854 194.356L123.276 194.127L123.82 193.828L124.309 193.554L125.181 193.065L126.925 192.074L127.626 191.678L128.286 191.312L128.788 191.038L129.267 190.777L129.615 190.594L130.062 190.359L130.387 190.192L130.702 190.031L130.908 189.928L131.111 189.828L131.311 189.732L131.607 189.593L131.8 189.503L132.086 189.374L132.369 189.249L132.556 189.168L132.743 189.091L133.019 188.979L133.203 188.905L133.386 188.834L133.569 188.763L133.753 188.695L133.936 188.628L134.12 188.564L134.303 188.499L134.583 188.406L134.77 188.345L134.96 188.284L135.246 188.194C141.302 186.347 147.85 187.827 150.611 192.396C150.765 192.653 150.685 192.985 150.427 193.139C150.17 193.294 149.838 193.213 149.684 192.956C147.219 188.876 141.189 187.511 135.561 189.23L135.378 189.288L135.194 189.345L134.924 189.436L134.654 189.526L134.477 189.587L134.21 189.683L133.943 189.783L133.676 189.886L133.409 189.992L133.232 190.066L133.051 190.14L132.871 190.217L132.688 190.298L132.504 190.378L132.318 190.462L132.131 190.549L131.941 190.639L131.652 190.777L131.256 190.97L130.95 191.125L130.635 191.286L130.31 191.453L130.088 191.569L129.863 191.688L129.396 191.939L129.032 192.138L128.527 192.415L128 192.711L127.446 193.023L125.548 194.101L124.756 194.545L124.145 194.883L123.768 195.089L123.321 195.331L123.067 195.466L122.735 195.636L122.494 195.758L122.179 195.916L122.021 195.993L121.709 196.145L121.474 196.257L121.078 196.444L120.917 196.518C117.05 198.288 112.905 199.362 108.664 199.694C103.187 200.125 98.5442 198.703 96.4076 195.141C95.7158 193.992 95.3071 192.631 95.1076 191.044C94.2646 184.323 97.9585 177.26 103.979 173.948C106.338 172.652 109.008 171.86 112.152 171.435C112.371 171.406 112.59 171.377 112.809 171.352L113.13 171.313L113.446 171.278L113.764 171.246L113.977 171.226L114.408 171.191L114.739 171.165L115.074 171.143L115.418 171.12L115.772 171.101L116.136 171.081L116.383 171.072L116.895 171.053L117.429 171.033L118.134 171.014L119.041 170.995L120.026 170.978L120.731 170.969L149.81 170.641L149.822 170.65Z" fill="#89D5FF"/>
<path fill-rule="evenodd" clip-rule="evenodd" d="M90.2348 141.488C90.3153 141.202 90.6145 141.031 90.9009 141.115C91.1873 141.196 91.3578 141.495 91.2742 141.781L91.2162 141.981L91.139 142.241L91.0811 142.438L90.9781 142.775L90.8623 143.136L90.7304 143.535L90.6113 143.889L90.4022 144.497L90.164 145.195L90.0225 145.614L89.9324 145.884L89.8455 146.144L89.7232 146.524L89.6074 146.888L89.5012 147.238L89.4336 147.464L89.3693 147.683L89.3081 147.898L89.2502 148.107L89.1955 148.313L89.144 148.513L89.0957 148.709L89.0507 148.902C89.0443 148.934 89.0378 148.966 89.0282 148.995L88.9896 149.182C88.9831 149.214 88.9767 149.243 88.9702 149.275L88.9349 149.455L88.9027 149.632L88.8737 149.806C88.8705 149.835 88.8641 149.864 88.8608 149.893L88.8351 150.064C88.8319 150.093 88.8287 150.122 88.8222 150.147L88.7997 150.315L88.7804 150.482L88.7643 150.646C88.7579 150.727 88.7514 150.81 88.745 150.891L88.7354 151.052C88.7354 151.106 88.7321 151.158 88.7289 151.212V151.373C88.7257 151.454 88.7257 151.534 88.7257 151.615V151.776C88.7289 151.801 88.7289 151.83 88.7321 151.856L88.7386 152.017L88.7482 152.178L88.7611 152.342C88.7611 152.371 88.7643 152.397 88.7675 152.425L88.7836 152.59C89.2405 157.133 93.3915 161.072 98.4079 162.072C102.771 162.944 107.601 161.934 112.711 159.431C112.891 159.344 113.068 159.254 113.242 159.167L113.416 159.08C113.531 159.022 113.647 158.961 113.763 158.903L114.101 158.726L114.349 158.594L114.6 158.459L115.024 158.227L115.372 158.034L115.729 157.831L116.099 157.619L116.485 157.394L117.206 156.969L117.76 156.638L118.229 156.354L119.249 155.733L121.071 154.62L121.939 154.096L122.618 153.687L123.239 153.32L123.654 153.079L124.05 152.85L124.51 152.59L125.038 152.297L125.189 152.213L125.505 152.043L125.826 151.872C131.123 149.066 135.985 147.737 140.644 148.217C140.94 148.249 141.159 148.513 141.127 148.812C141.095 149.108 140.831 149.327 140.532 149.295C136.12 148.838 131.458 150.115 126.332 152.828L125.91 153.053L125.473 153.291L125.164 153.462L124.858 153.632L124.401 153.893L124.086 154.076L123.413 154.469L122.77 154.852L121.73 155.479L119.407 156.898L118.657 157.352L117.856 157.831L117.222 158.208L116.923 158.385L116.443 158.662L115.983 158.922L115.543 159.17L115.198 159.36L114.86 159.543L114.609 159.675L114.432 159.768C114.021 159.984 113.612 160.19 113.184 160.399C107.881 162.999 102.823 164.054 98.1923 163.131C92.7382 162.043 88.2109 157.744 87.7024 152.693L87.6864 152.512L87.6735 152.335C87.6735 152.306 87.6703 152.277 87.6671 152.249L87.6574 152.075C87.6574 152.046 87.6574 152.017 87.6542 151.988L87.6478 151.814C87.6478 151.756 87.6477 151.698 87.6445 151.64V151.47C87.6445 151.183 87.6542 150.897 87.6767 150.611L87.6928 150.437L87.7121 150.26C87.7185 150.202 87.725 150.141 87.7346 150.083L87.7572 149.903C87.7604 149.874 87.7668 149.842 87.77 149.813L87.799 149.629L87.8312 149.446C87.8408 149.385 87.8537 149.32 87.8666 149.259L87.9052 149.069L87.947 148.876L87.9921 148.68L88.0403 148.481L88.0918 148.275L88.1465 148.065L88.2044 147.853L88.2656 147.634L88.3299 147.412L88.3975 147.184L88.4683 146.949L88.5423 146.708L88.6195 146.463L88.7418 146.083L88.8705 145.688L89.0056 145.276L89.1504 144.848L89.6267 143.448L89.7393 143.107L89.8873 142.653L89.9967 142.312L90.0965 141.99L90.1351 141.865L90.1705 141.739C90.1962 141.656 90.2187 141.569 90.2445 141.482L90.2348 141.488Z" fill="#89D5FF"/>
<path fill-rule="evenodd" clip-rule="evenodd" d="M19.8258 213.269C19.9674 213.005 20.2988 212.909 20.5595 213.054L20.7397 213.153L20.9166 213.253L21.0936 213.353L21.2674 213.456L21.4411 213.559L21.6117 213.662L21.7822 213.768C21.8112 213.787 21.8401 213.803 21.8659 213.823L22.0364 213.932L22.2037 214.041L22.3711 214.154C22.4 214.173 22.4258 214.193 22.4547 214.212L22.622 214.328L22.7894 214.444L22.9567 214.563L23.1272 214.685L23.2978 214.811L23.4683 214.939L23.6389 215.071L23.8126 215.206L23.9864 215.345L24.1633 215.486L24.3403 215.631L24.5205 215.779L24.7007 215.93L24.8841 216.085L25.1641 216.326L25.4505 216.577L25.7433 216.838L26.0425 217.108L26.3514 217.388L26.5606 217.581L26.7762 217.781L26.995 217.983L27.4455 218.408L27.6771 218.63L28.0343 218.971L28.5298 219.447L29.6947 220.574L30.1741 221.034L30.6278 221.465L30.8466 221.671L31.162 221.967L31.4677 222.25L31.7605 222.52L31.9503 222.694L32.2303 222.945L32.4105 223.106L32.5874 223.26L32.7644 223.412L32.9382 223.56L33.1087 223.704L33.2793 223.846L33.4466 223.984L33.6139 224.12L33.778 224.251L33.9421 224.38L34.1062 224.506L34.2703 224.631L34.4344 224.753L34.5985 224.876L34.8463 225.056L35.0136 225.175C37.118 226.645 39.1613 227.556 41.3558 227.91C43.6758 228.287 45.8736 228.068 48.451 227.228L48.7149 227.141L48.9819 227.048C49.027 227.032 49.072 227.016 49.1171 226.999L49.3874 226.9C49.5225 226.848 49.6609 226.797 49.7992 226.745L50.076 226.636C50.1693 226.597 50.2626 226.562 50.3591 226.523L50.6455 226.404L50.9351 226.282L51.2279 226.156L51.524 226.024C51.5722 226.002 51.6237 225.979 51.672 225.957L51.9744 225.819C52.0259 225.796 52.0774 225.77 52.1257 225.748L52.4346 225.603L52.7467 225.455C52.7982 225.429 52.8529 225.403 52.9044 225.378L53.2229 225.223L53.5479 225.066C53.6026 225.04 53.6573 225.011 53.712 224.985L54.0435 224.818L54.3073 224.683L55.3467 224.148L56.7046 223.441L57.4961 223.032L57.953 222.8L58.3939 222.578L58.9634 222.295L59.3753 222.092L59.7775 221.896L60.1669 221.709L60.4211 221.59L60.6721 221.475L61.0389 221.307L61.277 221.201L61.5119 221.098C61.5505 221.082 61.5891 221.063 61.6277 221.047L61.8594 220.947L62.0879 220.85L62.3131 220.757L62.6445 220.622L62.8601 220.535L63.0757 220.451L63.2881 220.371L63.4972 220.294C63.5326 220.281 63.568 220.268 63.6002 220.255L63.8061 220.181L64.0121 220.11L64.2148 220.043L64.4175 219.978L64.617 219.917C64.6492 219.907 64.6846 219.898 64.7168 219.888L64.9163 219.83L65.1158 219.772C65.148 219.763 65.1834 219.753 65.2155 219.743L65.4118 219.689L65.6081 219.637C65.6403 219.628 65.6725 219.621 65.7078 219.611L65.9041 219.563L66.1004 219.518L66.2967 219.473C66.3289 219.467 66.3643 219.46 66.3965 219.451L66.596 219.409L66.7955 219.37C66.8276 219.364 66.863 219.357 66.8952 219.351L67.0947 219.315C67.1269 219.309 67.1623 219.303 67.1945 219.299L67.3972 219.267L67.5999 219.235L67.8058 219.206C71.7315 218.659 75.7247 219.425 79.171 221.384C82.3147 223.183 84.3966 225.963 84.2615 228.908C84.1102 232.241 81.0534 235.044 77.3079 235.835L77.0987 235.877L76.8928 235.916C76.8252 235.929 76.7544 235.942 76.6868 235.951L76.4809 235.983C76.4133 235.993 76.3425 236.003 76.275 236.012L76.0658 236.038L75.8567 236.064C75.7859 236.07 75.7151 236.08 75.6443 236.086L75.4319 236.106C75.3965 236.106 75.3611 236.112 75.3257 236.115L75.1101 236.128C75.0747 236.128 75.0361 236.131 75.0007 236.135L74.7787 236.144C74.7401 236.144 74.7047 236.144 74.6661 236.148L74.4376 236.154C74.3604 236.154 74.2832 236.154 74.206 236.157H73.9711C73.8906 236.157 73.8102 236.157 73.7297 236.157H73.482C73.4401 236.151 73.3983 236.151 73.3565 236.151L73.1023 236.144L72.8416 236.135L72.5745 236.122L72.2978 236.106L72.0147 236.09L71.7218 236.07L71.4226 236.048L70.956 236.012L70.6342 235.987L68.8387 235.823L68.1887 235.768L67.7608 235.736L67.4068 235.713H67.3457C63.4297 235.462 60.4532 236.051 58.3907 237.824C58.262 237.933 58.1397 238.046 58.0206 238.159L57.9048 238.274L57.7889 238.39C57.731 238.448 57.6763 238.509 57.6216 238.57L57.5154 238.693L57.4092 238.818C57.3578 238.883 57.3063 238.947 57.2548 239.011L57.155 239.143C56.9427 239.433 56.7432 239.742 56.5533 240.083L56.4664 240.241L56.3796 240.405L56.2959 240.572C56.283 240.601 56.2669 240.63 56.2541 240.656L56.1704 240.829C56.1575 240.858 56.1414 240.887 56.1286 240.919L56.0481 241.1C56.0224 241.161 55.9934 241.222 55.9677 241.286L55.8872 241.476C55.8744 241.508 55.8615 241.54 55.8486 241.573L55.7682 241.772C55.7553 241.804 55.7424 241.84 55.7296 241.875L55.6523 242.081L55.5751 242.293L55.4979 242.512L55.4207 242.737C55.4078 242.776 55.3949 242.815 55.3821 242.853L55.3048 243.088L55.2244 243.33L55.1439 243.577L55.0635 243.832L54.9831 244.092L54.8608 244.498L54.7771 244.778L54.3427 246.28L54.1754 246.85L54.0628 247.22L53.9502 247.577C52.5054 252.079 49.5837 255.312 45.9894 255.216C44.8696 255.184 43.8078 254.839 42.7073 254.212L42.5239 254.106L42.3469 253.996L42.2279 253.922L42.1088 253.848L41.9897 253.771L41.8707 253.691L41.7484 253.607L41.6261 253.52L41.5006 253.43L41.3687 253.334L41.2336 253.234L41.0212 253.073L40.7959 252.899L40.6383 252.777L40.3004 252.51L39.4059 251.792L39.1066 251.554L38.9039 251.396L38.7141 251.252L38.5371 251.117L38.3698 250.991L38.2089 250.875L38.1059 250.801L37.9 250.66L37.797 250.592L37.6393 250.489C33.8488 248.037 28.5846 248.066 24.8262 250.566C24.5784 250.73 24.2406 250.663 24.0765 250.415C23.9124 250.167 23.9799 249.829 24.2277 249.665C28.3046 246.953 33.9614 246.892 38.1027 249.498L38.2829 249.614L38.4502 249.723L38.6143 249.833L38.7237 249.907L38.9457 250.064L39.1163 250.19L39.2965 250.325L39.4863 250.473L39.7631 250.689L40.2393 251.068L40.7155 251.451L41.0308 251.702L41.2336 251.86L41.4298 252.011L41.6197 252.159L41.8063 252.301L41.9865 252.436C42.0155 252.458 42.0444 252.481 42.0766 252.5L42.2504 252.626L42.4209 252.745L42.5882 252.857C42.614 252.877 42.6429 252.893 42.6687 252.912L42.8296 253.018C42.8553 253.034 42.8811 253.054 42.91 253.07L43.0645 253.166C44.1392 253.829 44.9919 254.099 46.0152 254.128C48.9755 254.209 51.5465 251.393 52.8754 247.365L52.972 247.069L53.1007 246.657L53.2165 246.267L53.3517 245.81L53.6927 244.623L53.8504 244.089L53.9984 243.597L54.1046 243.252L54.1754 243.034L54.243 242.821L54.3427 242.515L54.4103 242.319C54.4199 242.287 54.4328 242.255 54.4425 242.223L54.51 242.036L54.5776 241.856L54.6452 241.679C54.6548 241.65 54.6677 241.621 54.6774 241.592L54.7449 241.418L54.8125 241.248L54.8833 241.08L54.9541 240.913L55.0281 240.749L55.1021 240.585C55.7811 239.108 56.608 237.933 57.6828 237.007C60.006 235.008 63.2398 234.368 67.41 234.632L67.8283 234.661L68.2306 234.69L68.7551 234.735L70.5602 234.899L71.03 234.941L71.3325 234.967L71.7701 234.999C71.8184 235.002 71.8634 235.005 71.9117 235.008L72.1884 235.028L72.4587 235.044L72.7193 235.057L72.9736 235.07L73.2213 235.079L73.4627 235.086H73.6976L73.9292 235.092H74.1545L74.3765 235.089L74.5921 235.082C74.8785 235.073 75.152 235.057 75.4223 235.034L75.6218 235.015C75.8213 234.996 76.0176 234.97 76.2106 234.944L76.4037 234.915C76.4359 234.909 76.468 234.905 76.5002 234.899L76.6933 234.867C76.7255 234.86 76.7576 234.854 76.7898 234.848L76.9829 234.809C77.0151 234.802 77.0472 234.796 77.0794 234.79C80.3873 234.091 83.0516 231.649 83.1771 228.872C83.2897 226.401 81.4556 223.955 78.6304 222.34C75.3933 220.5 71.6382 219.782 67.9538 220.294L67.7576 220.323L67.5645 220.352L67.3714 220.384L67.1784 220.416L66.9885 220.451L66.7987 220.49C66.7665 220.496 66.7343 220.503 66.7021 220.509L66.5123 220.548L66.3224 220.59L66.1326 220.635C66.1004 220.641 66.0682 220.651 66.0393 220.657L65.8494 220.705L65.6596 220.754L65.4697 220.805C65.4376 220.815 65.4054 220.821 65.3732 220.831L65.1834 220.886C65.1512 220.895 65.119 220.905 65.0868 220.915L64.8938 220.973L64.7007 221.034C64.6685 221.043 64.6363 221.053 64.6042 221.066L64.4079 221.13C64.3757 221.14 64.3435 221.153 64.3081 221.162L64.1118 221.23C64.0797 221.243 64.0443 221.252 64.0121 221.265L63.8126 221.336L63.6099 221.41L63.4039 221.487L63.198 221.568L62.9888 221.651L62.6671 221.783L62.3389 221.922L62.1168 222.018L61.7757 222.166L61.5441 222.269L61.3092 222.375L60.9488 222.543L60.7042 222.659L60.4532 222.778L60.0671 222.961L59.8033 223.09L59.401 223.289L58.986 223.495L58.4132 223.785L57.9659 224.013L57.1904 224.412L55.2501 225.42L54.6902 225.706L54.5197 225.793L54.1818 225.963L53.8472 226.127L53.519 226.288L53.194 226.446L52.8722 226.597L52.5569 226.745C52.5054 226.771 52.4507 226.793 52.3992 226.816L52.0871 226.958L51.7814 227.093C51.6784 227.138 51.5787 227.183 51.4789 227.225L51.1797 227.353L50.8836 227.476C50.8354 227.495 50.7871 227.517 50.7356 227.537L50.446 227.653L50.1596 227.765L49.8765 227.875C49.6416 227.962 49.4067 228.045 49.1782 228.126L48.9047 228.219L48.6312 228.309C45.9669 229.159 43.6533 229.374 41.1853 228.975C38.817 228.592 36.6225 227.617 34.3958 226.057L34.2221 225.934L34.0515 225.812L33.7941 225.625L33.6236 225.5L33.453 225.371L33.1988 225.175L33.0283 225.04L32.8577 224.905L32.6872 224.766L32.5134 224.625L32.3397 224.48L32.1627 224.332L31.9825 224.177L31.8023 224.02L31.5256 223.775L31.2392 223.521L30.9464 223.254L30.6439 222.974L30.3286 222.681L29.891 222.269L29.3118 221.716L28.9449 221.362L27.7833 220.239L27.4165 219.885L27.0626 219.547L26.7182 219.222L26.3868 218.907L26.065 218.604L25.65 218.221L25.4472 218.038L25.1512 217.771L24.8616 217.513L24.5817 217.266L24.3082 217.028L24.128 216.873L23.951 216.725L23.7772 216.58L23.6035 216.439L23.4329 216.3L23.2624 216.165L23.0114 215.969L22.8441 215.843L22.68 215.718C22.651 215.699 22.6253 215.676 22.5963 215.657L22.4322 215.538L22.2681 215.422L22.1072 215.306L21.9463 215.193L21.7854 215.084L21.6245 214.975L21.4636 214.868L21.2995 214.765L21.1354 214.663L20.9713 214.563L20.8072 214.463L20.6399 214.366L20.4726 214.27L20.302 214.173L20.1315 214.08C20.1025 214.064 20.0736 214.048 20.0446 214.032C19.7808 213.89 19.6842 213.559 19.829 213.298L19.8258 213.269Z" fill="#89D5FF"/>
<path fill-rule="evenodd" clip-rule="evenodd" d="M105.227 246.809L105.272 246.722L105.365 246.551C105.381 246.522 105.397 246.496 105.413 246.467L105.51 246.303C105.819 245.785 106.154 245.319 106.507 244.91L106.62 244.781C107.807 243.465 109.217 242.815 110.674 243.253C110.877 243.314 111.025 243.485 111.054 243.694C111.756 248.501 112.161 253.35 112.261 258.209L112.267 258.502V258.495C112.476 258.17 112.653 257.765 112.824 257.253L112.888 257.057C112.898 257.025 112.911 256.99 112.92 256.954L112.985 256.742L113.046 256.533L113.268 255.715L113.297 255.612C114.169 252.514 115.839 249.701 118.146 247.455C119.031 246.593 120.016 246.181 120.884 246.712C121.283 246.966 121.499 247.304 121.718 247.874L121.747 247.948C124.347 254.621 125.682 261.723 125.695 268.886C125.695 269.185 125.454 269.426 125.154 269.426C124.855 269.426 124.614 269.185 124.614 268.886C124.604 261.958 123.327 255.091 120.849 248.62L120.74 248.334C120.724 248.292 120.707 248.253 120.695 248.215L120.65 248.108C120.534 247.845 120.434 247.703 120.315 247.626C120.019 247.446 119.472 247.671 118.906 248.228C116.779 250.303 115.221 252.89 114.391 255.741L114.33 255.953L114.092 256.822L114.063 256.928L114.002 257.134L113.94 257.334C113.931 257.366 113.921 257.398 113.912 257.43L113.85 257.617C113.416 258.911 112.914 259.689 112.032 260.23C111.672 260.452 111.212 260.194 111.209 259.773C111.17 254.615 110.787 249.463 110.063 244.357L110.044 244.218H110.024C108.708 244.07 107.305 245.274 106.231 247.227L106.182 247.314C102.785 253.646 101.275 260.819 101.832 267.985C101.855 268.284 101.633 268.544 101.333 268.567C101.034 268.59 100.773 268.368 100.751 268.068C100.178 260.696 101.732 253.318 105.227 246.802V246.809Z" fill="#89D5FF"/>
<path fill-rule="evenodd" clip-rule="evenodd" d="M66.6427 140.483C66.9162 140.361 67.2347 140.483 67.357 140.756C72.9076 153.187 74.9863 166.888 73.3742 180.406C73.3324 180.769 72.9463 180.985 72.6116 180.834C71.6688 180.406 70.8225 179.827 70.0953 179.135L69.9827 179.022L70.0084 179.125C70.7582 182.098 71.2183 184.553 71.4725 187.031L71.5079 187.404C72.0002 192.649 71.3567 197.164 69.3134 201.125C69.1943 201.357 68.9241 201.472 68.6731 201.395C65.1657 200.314 62.1378 198.19 59.9401 195.378L59.8564 195.269L59.8661 195.307C60.8314 200.172 60.5321 205.237 58.9426 210.009L58.875 210.212C58.7591 210.556 58.3408 210.688 58.048 210.476C45.7851 201.682 34.9574 191.044 25.9444 178.938C25.7675 178.697 25.8157 178.359 26.0538 178.182C26.2952 178.005 26.633 178.054 26.81 178.292C35.5752 190.065 46.0747 200.443 57.9451 209.07L58.0738 209.163L58.1027 209.073C59.8114 203.538 59.7341 197.618 57.9097 192.147L57.8453 191.954L57.8131 191.883C57.5235 191.256 57.2725 190.612 57.057 189.946L57.0023 189.779C56.7963 189.126 57.7423 188.772 58.0158 189.399C58.3022 190.059 58.5661 190.725 58.801 191.398L58.8525 191.542L58.8653 191.571C60.7735 195.616 64.2519 198.744 68.5315 200.205L68.5637 200.214L68.5894 200.16C70.3206 196.565 70.874 192.466 70.4557 187.71L70.4364 187.504C70.4042 187.16 70.3688 186.815 70.327 186.471L70.2852 186.127C70.2626 185.953 70.2401 185.783 70.2176 185.609L70.1693 185.261C70.1532 185.145 70.1339 185.03 70.1178 184.911L70.0631 184.56L70.0052 184.206C69.9859 184.087 69.9634 183.968 69.9441 183.849L69.8797 183.488C69.8476 183.308 69.8122 183.125 69.7768 182.945L69.7027 182.578L69.6255 182.204C69.6127 182.143 69.5998 182.079 69.5869 182.018L69.5032 181.638L69.4164 181.255L69.3263 180.866L69.233 180.47C69.2169 180.402 69.2008 180.338 69.1847 180.271L69.0849 179.865C69.0689 179.798 69.0528 179.73 69.0335 179.659L68.9305 179.244L68.8211 178.823L68.7085 178.395L68.5926 177.957L68.4736 177.513L68.3481 177.059L68.1904 176.49L68.1775 176.464C67.7721 175.605 67.4986 174.678 67.3763 173.71L67.3634 173.6C67.2894 172.944 68.2322 172.754 68.4221 173.388L68.5958 173.973L68.7632 174.546L68.9241 175.106L69.0817 175.653L69.2104 176.104L69.2297 176.142C69.9119 177.513 70.9834 178.671 72.3284 179.46L72.396 179.498V179.473C73.799 166.544 71.7814 153.47 66.5397 141.561L66.3756 141.194C66.2533 140.921 66.3756 140.602 66.6491 140.48L66.6427 140.483Z" fill="#89D5FF"/>
<path fill-rule="evenodd" clip-rule="evenodd" d="M143.797 75.6576C146.3 74.7856 148.569 73.3505 150.426 71.4648L158.399 74.1227C157.852 76.6873 157.72 79.0459 158.071 81.1696L157.225 90.839L142.983 85.5522L140.457 82.0867L143.797 75.6576Z" fill="#C08F67"/>
<path fill-rule="evenodd" clip-rule="evenodd" d="M139.884 154.801C140.598 156.889 148.292 160.77 150.142 162.086C158.485 168.026 174.301 176.357 177.074 184.559C178.806 189.675 180.54 194.794 182.271 199.914L199.847 251.881L199.927 252.119L218.117 245.049L216.215 238.92C209.365 216.871 204.641 192.117 196.349 170.751C194.769 166.681 192.452 162.919 189.772 159.492C185.769 154.357 180.958 149.916 176.174 145.502C173.673 143.191 171.17 140.881 168.67 138.574C167.682 137.663 156.256 128.753 155.988 129.175L142.274 150.692C141.792 151.451 139.816 153.607 139.832 154.521C139.835 154.617 139.855 154.711 139.887 154.801H139.884Z" fill="#C08F67"/>
<path fill-rule="evenodd" clip-rule="evenodd" d="M184.814 186.656C174.523 204.257 174.874 208.605 164.439 226.18C163.551 227.673 153.328 245.377 151.706 245.844C150.48 246.194 147.375 244.508 146.252 244.013C142.494 242.378 138.967 240.029 136.293 236.889C138.89 229.571 141.995 222.447 145.592 215.568C151.593 204.093 155.065 191.229 161.466 179.59C162.383 177.92 169.076 164.309 170.636 164.518C178.478 165.554 183.967 178.789 184.817 186.656H184.814Z" fill="#C08F67"/>
<path fill-rule="evenodd" clip-rule="evenodd" d="M124.088 117.699L150.824 122.291C150.824 122.291 164.274 128.688 164.11 132.298C163.946 135.909 158.37 149.838 139.671 160.18C139.671 160.18 136.721 161.821 119.988 152.145L124.091 117.699H124.088Z" fill="#A9FF22"/>
<path fill-rule="evenodd" clip-rule="evenodd" d="M130.792 127.331C131.008 127.44 123.372 152.722 121.293 154.634C121.107 154.804 120.849 154.872 120.601 154.817C103.731 150.975 84.5819 145.392 72.0583 132.701C66.5721 127.141 62.7461 119.766 63.3961 111.792C64.1877 101.856 75.7394 93.2161 83.3591 88.0066C91.1107 82.7423 99.7343 78.8971 108.831 76.6511C120.083 73.8677 131.767 73.2692 143.245 74.8878L143.785 74.9714C144.172 75.0326 144.451 75.3737 144.435 75.763L144.168 82.1342C144.152 82.472 144.361 82.7809 144.68 82.8936C146.344 83.4792 151.421 85.294 153.223 86.2722C153.567 86.4556 153.992 86.3526 154.214 86.0341L157.615 81.2042C157.857 80.8631 158.323 80.7763 158.671 81.0047C162.201 83.3376 180.4 95.0181 202.352 103.117C202.555 103.191 202.719 103.349 202.799 103.548C202.88 103.748 202.876 103.973 202.783 104.169L189.519 132.132C189.429 132.318 189.272 132.463 189.075 132.531C188.879 132.598 188.664 132.585 188.48 132.492C185.34 130.915 172.279 123.73 160.087 107.715C159.903 107.471 159.588 107.358 159.292 107.429C158.993 107.5 158.767 107.744 158.713 108.047C158.249 110.804 156.618 116.201 150.916 122.17C150.845 122.24 150.765 122.301 150.675 122.343C141.005 126.829 129.569 126.703 130.789 127.324L130.792 127.331Z" fill="#C699FF"/>
<path fill-rule="evenodd" clip-rule="evenodd" d="M180.982 159.816C181.024 157.866 181.632 155.936 182.098 153.777C182.993 149.61 183.923 145.449 184.891 141.298C186.867 132.823 188.997 124.386 191.282 115.987C193.309 108.535 197.946 89.1929 200.214 81.805C201.344 78.1239 201.296 76.6372 202.316 72.9272C203.538 68.4834 204.121 66.2857 209.366 67.6533C215.229 69.1817 221.059 70.8002 226.906 72.3737C237.351 75.1893 243.796 75.7878 259.28 79.1374C263.575 80.0674 261.23 83.1725 260.1 86.7539C254.904 103.351 248.063 132.118 243.764 148.969C241.598 157.483 239.433 166.001 237.164 174.493C236.035 178.737 232.833 189.001 231.646 193.223C230.831 196.113 230.358 199.919 226.883 200.727C226.13 200.901 225.348 200.891 224.602 200.698L188.389 191.453C185.438 184.049 184.538 170.618 181.58 163.217C181.149 162.136 180.946 160.981 180.985 159.82L180.982 159.816Z" fill="#2A4054"/>
<path fill-rule="evenodd" clip-rule="evenodd" d="M205.522 82.269C206.098 81.6866 206.906 81.3809 208.193 81.5096C210.439 81.7252 212.591 82.7098 214.651 83.569C215.082 83.7138 215.471 83.9615 215.783 84.2898C216.176 84.7756 216.218 85.4578 216.179 86.082C216.051 88.4117 215.175 90.6287 214.403 92.8265C212.91 97.0771 211.764 101.437 210.973 105.871C210.149 110.489 203.759 109.482 200.58 107.702C198.044 106.283 198.112 104.871 198.816 102.2C200.216 96.9098 201.632 91.3206 203.704 86.1335C204.322 84.5729 204.669 83.1185 205.522 82.2658V82.269Z" fill="#A9FF22"/>
<path fill-rule="evenodd" clip-rule="evenodd" d="M222.776 85.8647C223.352 85.2823 224.16 84.9766 225.447 85.1053C227.693 85.3209 229.845 86.3055 231.905 87.1679C232.336 87.3095 232.725 87.5572 233.037 87.8854C233.43 88.3713 233.472 89.0535 233.433 89.681C233.304 92.0106 232.429 94.2277 231.657 96.4254C230.164 100.673 229.018 105.036 228.227 109.47C228.076 110.323 227.393 112.601 226.605 113.01C226.084 113.28 225.472 113.293 224.887 113.27C222.181 113.19 219.532 112.485 217.145 111.208C214.667 109.837 215.369 107.478 215.809 104.907C216.72 99.6206 218.979 94.6749 220.961 89.7292C221.585 88.1783 221.93 86.7174 222.776 85.8615V85.8647Z" fill="#A9FF22"/>
<path fill-rule="evenodd" clip-rule="evenodd" d="M240.89 90.0412C241.106 89.861 241.35 89.7162 241.607 89.6068C242.315 89.3236 243.107 89.3719 243.863 89.4652C245.755 89.7065 247.605 90.2182 249.356 90.9808C250.048 91.2832 250.749 91.6436 251.2 92.2518C252.136 93.526 251.634 95.3087 251.084 96.7985C249.082 102.265 247.049 107.51 246.022 113.254C245.199 117.872 238.808 116.864 235.629 115.085C233.093 113.666 233.164 112.253 233.866 109.586C235.381 103.858 236.604 97.6319 239.278 92.3419C239.703 91.4988 240.179 90.6172 240.887 90.0412H240.89Z" fill="#A9FF22"/>
<path fill-rule="evenodd" clip-rule="evenodd" d="M197.511 113.717C200.062 111.529 203.283 113.283 206.189 114.49C206.62 114.634 207.01 114.879 207.322 115.207C207.714 115.693 207.756 116.375 207.718 117.003C207.589 119.332 206.714 121.549 205.941 123.747C204.448 127.994 203.303 132.358 202.511 136.792C201.687 141.413 195.297 140.402 192.118 138.623C188.514 136.605 190.618 133.31 191.326 130.192C192.298 125.942 193.263 121.636 195.04 117.633C195.525 116.533 196.024 115.423 196.771 114.486C196.993 114.206 197.241 113.949 197.508 113.714L197.511 113.717Z" fill="#A9FF22"/>
<path fill-rule="evenodd" clip-rule="evenodd" d="M214.324 116.785C214.9 116.202 215.707 115.897 216.995 116.025C219.241 116.241 221.393 117.225 223.453 118.085C223.884 118.229 224.273 118.477 224.585 118.805C224.978 119.291 225.02 119.973 224.981 120.598C224.852 122.927 223.977 125.144 223.205 127.342C221.525 132.117 220.988 136.905 219.71 141.748C219.649 142.022 219.556 142.285 219.434 142.54C219.231 142.894 218.951 143.193 218.61 143.418C215.974 145.249 211.174 143.498 208.693 142.118C206.212 140.738 206.917 138.389 207.357 135.818C208.268 130.531 210.527 125.588 212.509 120.643C213.133 119.092 213.478 117.628 214.324 116.785Z" fill="#A9FF22"/>
<path fill-rule="evenodd" clip-rule="evenodd" d="M232.443 120.961C232.658 120.78 232.903 120.636 233.16 120.526C233.868 120.243 234.66 120.288 235.416 120.385C237.308 120.623 239.158 121.128 240.909 121.89C241.6 122.193 242.302 122.557 242.752 123.161C243.689 124.436 243.187 126.222 242.637 127.708C240.635 133.172 238.601 138.417 237.575 144.164C236.751 148.784 230.361 147.774 227.182 145.995C224.646 144.576 224.717 143.163 225.418 140.496C226.934 134.768 228.157 128.542 230.831 123.252C231.255 122.418 231.722 121.527 232.439 120.961H232.443Z" fill="#A9FF22"/>
<path fill-rule="evenodd" clip-rule="evenodd" d="M188.797 144.287C189.373 143.704 190.181 143.398 191.468 143.527C193.514 143.73 195.754 144.489 197.579 145.442C199.117 146.246 199.348 147.53 199.004 149.268C198.682 150.902 197.775 152.354 197.418 153.969C197.141 155.233 197.141 156.369 196.748 157.65C195.706 161.012 194.869 164.433 194.245 167.898C193.421 172.519 187.031 171.509 183.852 169.729C181.316 168.31 181.387 166.898 182.088 164.23C183.488 158.937 184.904 153.351 186.976 148.161C187.6 146.594 187.945 145.142 188.791 144.287H188.797Z" fill="#A9FF22"/>
<path fill-rule="evenodd" clip-rule="evenodd" d="M206.055 147.888C206.631 147.306 207.439 147 208.726 147.129C210.972 147.344 213.125 148.329 215.184 149.188C215.615 149.333 216.004 149.577 216.317 149.906C216.712 150.392 216.751 151.074 216.712 151.701C216.584 154.031 215.708 156.248 214.936 158.446C213.443 162.696 212.298 167.056 211.506 171.49C211.355 172.34 210.676 174.618 209.884 175.03C209.363 175.297 208.752 175.31 208.166 175.291C205.46 175.21 202.812 174.502 200.424 173.228C197.946 171.857 198.648 169.499 199.089 166.928C199.999 161.641 202.258 156.698 204.24 151.753C204.871 150.189 205.209 148.738 206.055 147.885V147.888Z" fill="#A9FF22"/>
<path fill-rule="evenodd" clip-rule="evenodd" d="M224.171 152.061C224.386 151.881 224.631 151.736 224.888 151.627C225.596 151.34 226.388 151.389 227.147 151.485C229.039 151.726 230.889 152.235 232.637 153.001C233.328 153.303 234.03 153.664 234.48 154.272C235.372 155.482 234.854 156.518 234.509 157.737C234.036 159.417 233.76 161.164 233.325 162.857C232.424 166.374 231.324 169.836 230.223 173.292C229.86 174.434 229.483 175.599 228.762 176.555C226.458 179.605 221.789 178.711 218.916 177.102C216.38 175.683 216.451 174.27 217.153 171.603C218.668 165.875 219.891 159.649 222.565 154.355C222.99 153.519 223.466 152.634 224.174 152.061H224.171Z" fill="#A9FF22"/>
<path fill-rule="evenodd" clip-rule="evenodd" d="M188.987 147.614C189.08 147.331 189.389 147.176 189.672 147.273C191.245 147.797 192.761 148.476 194.199 149.297L194.405 149.416L194.418 149.422C194.621 149.522 194.785 149.689 194.885 149.889L194.907 149.937C194.927 149.982 194.943 150.031 194.949 150.082C194.988 150.359 194.914 150.635 194.746 150.858L194.74 150.864L194.605 151.08C192.227 154.938 190.435 159.127 189.279 163.51L189.209 163.783C189.135 164.073 188.839 164.247 188.549 164.173C188.259 164.099 188.086 163.803 188.16 163.513C189.337 158.924 191.2 154.542 193.681 150.51L193.8 150.317L193.646 150.227C192.349 149.487 190.985 148.869 189.572 148.38L189.321 148.296C189.038 148.203 188.884 147.894 188.98 147.611L188.987 147.614Z" fill="#2A4054"/>
<path fill-rule="evenodd" clip-rule="evenodd" d="M188.657 153.881C188.792 153.614 189.117 153.508 189.384 153.643C191.138 154.528 192.843 155.499 194.497 156.558C194.748 156.719 194.822 157.053 194.661 157.304C194.5 157.555 194.166 157.629 193.915 157.469C192.293 156.429 190.617 155.477 188.898 154.608C188.631 154.473 188.525 154.148 188.66 153.881H188.657Z" fill="#231F20"/>
<path fill-rule="evenodd" clip-rule="evenodd" d="M103.733 97.8381C103.749 97.7802 103.81 97.748 103.868 97.7673C103.926 97.7866 103.958 97.8446 103.939 97.9025L103.859 98.1663L103.782 98.427L103.708 98.6812C103.695 98.723 103.685 98.7648 103.672 98.8067L103.605 99.0544C103.595 99.0963 103.582 99.1349 103.572 99.1767L103.511 99.4148L103.453 99.6497C103.434 99.7269 103.415 99.8042 103.399 99.8782L103.347 100.103L103.299 100.322C103.292 100.358 103.283 100.396 103.276 100.432L103.234 100.644C103.222 100.715 103.209 100.786 103.196 100.853L103.16 101.059L103.128 101.262C102.871 102.99 103.045 104.29 103.743 105.5C104.113 106.14 104.57 106.658 105.275 107.231L105.423 107.35C105.448 107.369 105.474 107.392 105.5 107.411L105.661 107.533C105.715 107.575 105.77 107.617 105.828 107.659L106.005 107.787L106.188 107.919L106.381 108.055L106.584 108.193L106.867 108.383L107.015 108.482L107.25 108.637L107.501 108.798L107.858 109.026L108.341 109.329L108.647 109.519L108.969 109.715L109.532 110.056L110.249 110.484L111.009 110.934L111.945 111.481L112.93 112.051L113.959 112.64L115.179 113.332L116.118 113.863L117.399 114.58L118.702 115.304L120.022 116.031L120.581 116.34L121.798 117.006L123.008 117.663L123.967 118.181L125.147 118.815L126.074 119.31L126.756 119.674L127.648 120.144L128.513 120.597L129.35 121.035L130.154 121.45L130.733 121.746C130.788 121.772 130.807 121.839 130.782 121.891C130.756 121.946 130.688 121.965 130.637 121.939L129.968 121.595L129.269 121.234L128.301 120.729L127.548 120.333L126.779 119.925L125.727 119.365L124.919 118.934L124.102 118.493L122.718 117.746L121.881 117.289L120.758 116.675L119.635 116.057L118.796 115.594L117.685 114.976L116.862 114.516L116.318 114.21L115.25 113.608L114.207 113.016L113.444 112.582L112.704 112.157L111.987 111.742L111.523 111.472L110.848 111.076L110.413 110.819L109.786 110.445L109.387 110.207L109.004 109.976C108.943 109.937 108.878 109.898 108.817 109.863L108.457 109.641L108.113 109.429L107.788 109.226L107.479 109.029C107.43 108.997 107.379 108.965 107.331 108.936L107.051 108.756L106.79 108.585L106.558 108.431L106.349 108.286C106.314 108.264 106.282 108.238 106.246 108.215L106.05 108.077L105.863 107.942L105.683 107.81L105.513 107.681L105.349 107.556C104.499 106.893 103.971 106.323 103.547 105.59C102.922 104.509 102.716 103.25 102.845 101.777C102.855 101.674 102.864 101.571 102.877 101.465L102.903 101.255C102.948 100.908 103.012 100.554 103.093 100.174L103.144 99.9458C103.18 99.7913 103.218 99.6304 103.26 99.4663L103.325 99.2153L103.395 98.9579L103.469 98.6908L103.55 98.4141C103.563 98.3658 103.579 98.3208 103.592 98.2725L103.679 97.9765C103.695 97.925 103.708 97.8767 103.724 97.8253L103.733 97.8381Z" fill="#2A4054"/>
<path fill-rule="evenodd" clip-rule="evenodd" d="M124.162 148.928C127.876 150.855 134.466 154.611 138.552 155.518C138.932 155.615 139.318 155.669 139.707 155.679C140.763 155.679 140.927 153.916 140.85 152.863C140.795 152.088 136.799 150.569 135.219 149.848C135.206 149.842 135.196 149.826 135.203 149.813C135.209 149.8 135.225 149.79 135.238 149.797C138.51 150.949 147.176 151.853 149.676 151.692C150.13 151.692 150.577 151.576 150.976 151.351C151.842 150.791 151.912 149.578 151.858 148.555C151.864 148.336 151.813 148.117 151.706 147.924C151.594 147.783 151.449 147.667 151.285 147.589C150.477 147.12 148.376 146.759 146.268 146.306C145.493 146.138 151.439 146.753 154.133 146.688C154.551 146.708 154.966 146.627 155.346 146.454C155.918 146.138 156.195 145.463 156.263 144.816C156.459 142.879 156.546 142.65 154.837 142.045C153.998 141.743 149.898 141.18 147.691 140.89C145.67 140.623 153.048 141.891 154.387 140.777C154.837 140.398 155.085 139.831 155.053 139.246C154.982 138.039 155.336 137.203 154.29 136.668C151.62 135.301 143.093 134.229 140.126 133.76C142.545 134.287 146.7 133.76 148.962 133.2C150.123 132.91 150.912 132.688 150.857 131.414C150.844 131.16 150.423 130.41 150.31 130.181C150.13 129.834 149.731 129.628 149.406 129.509C149.081 129.39 148.743 129.316 148.395 129.293C143.633 129.004 136.107 129.078 131.139 129.528C129.999 129.631 128.844 129.808 127.815 130.3C126.785 130.793 125.89 131.613 125.121 132.482C122.164 135.861 120.568 140.218 120.639 144.706C120.655 145.588 120.748 146.499 121.176 147.271C121.604 148.043 123.274 149.015 124.153 148.934L124.162 148.928Z" fill="#C08F67"/>
<path fill-rule="evenodd" clip-rule="evenodd" d="M121.319 117.035C128.173 119.783 130.532 120.89 131.298 121.283C131.513 121.392 131.664 121.595 131.706 121.833C135.085 140.818 123.215 152.723 121.142 154.635C120.956 154.805 120.698 154.873 120.45 154.818C113.503 153.232 106.173 151.353 99.0781 148.811" fill="#C699FF"/>
<path fill-rule="evenodd" clip-rule="evenodd" d="M147.02 131.408C147.046 131.578 147.094 131.742 147.162 131.9C147.22 132.016 147.307 132.116 147.41 132.19C148.002 132.708 148.867 132.762 149.517 132.325C149.714 132.209 149.855 132.019 149.903 131.797C149.942 131.62 149.958 131.44 149.952 131.257C149.965 130.912 149.916 130.568 149.807 130.24C149.704 129.979 149.463 129.796 149.183 129.767C148.665 129.625 148.124 129.564 147.587 129.59C147.442 129.606 146.946 129.567 146.856 129.831C146.763 130.098 146.966 131.112 147.02 131.401V131.408Z" fill="#2A4054"/>
<path fill-rule="evenodd" clip-rule="evenodd" d="M153.3 140.257C153.538 140.209 153.769 140.122 153.979 140.003C154.281 139.794 154.48 139.469 154.532 139.105C154.574 138.758 154.561 138.404 154.497 138.059C154.487 137.792 154.397 137.532 154.236 137.319C154.011 137.117 153.734 136.981 153.435 136.927L152.569 136.679C152.482 136.647 152.389 136.637 152.296 136.65C152.244 136.666 152.196 136.692 152.154 136.724C151.552 137.158 151.43 137.918 151.343 138.603C151.301 138.941 151.263 139.279 151.237 139.62C151.211 139.961 151.282 140.431 151.771 140.47C152.289 140.476 152.804 140.408 153.303 140.264L153.3 140.257Z" fill="#2A4054"/>
<path fill-rule="evenodd" clip-rule="evenodd" d="M154.353 146.321C154.604 146.263 154.839 146.147 155.038 145.983C155.334 145.706 155.531 145.339 155.592 144.94C155.656 144.545 155.672 144.142 155.64 143.74C155.64 143.615 155.627 143.489 155.598 143.367C155.495 143.084 155.296 142.846 155.038 142.694C154.778 142.505 154.472 142.386 154.153 142.344C153.832 142.305 153.507 142.411 153.272 142.64C153.117 142.826 153.005 143.039 152.937 143.27C152.828 143.554 152.734 143.843 152.657 144.136C152.541 144.609 152.371 145.471 152.657 145.928C152.953 146.427 153.864 146.44 154.353 146.318V146.321Z" fill="#2A4054"/>
<path fill-rule="evenodd" clip-rule="evenodd" d="M149.77 151.08C150.195 150.971 150.565 150.717 150.819 150.356C151.061 149.925 151.176 149.436 151.147 148.944C151.147 148.529 151.089 148.046 150.739 147.821C150.578 147.734 150.404 147.679 150.221 147.66L149.629 147.563C149.468 147.518 149.294 147.528 149.136 147.589C149.02 147.663 148.93 147.769 148.872 147.891C148.438 148.651 148.1 149.642 148.152 150.53C148.197 151.334 149.168 151.244 149.77 151.083V151.08Z" fill="#2A4054"/>
<path fill-rule="evenodd" clip-rule="evenodd" d="M140.206 153.345C140.213 153.201 140.187 153.059 140.129 152.927C139.987 152.708 139.772 152.547 139.521 152.477C138.871 152.206 138.295 152.261 138.108 153.011C137.944 153.571 138.015 154.172 138.304 154.674C138.565 155.073 139.022 155.395 139.505 155.173C140.229 154.845 140.209 154.008 140.206 153.342V153.345Z" fill="#2A4054"/>
<path fill-rule="evenodd" clip-rule="evenodd" d="M141.165 145.596L145.911 146.156C145.969 146.162 146.014 146.217 146.005 146.275C145.998 146.326 145.957 146.368 145.905 146.371H145.886L141.14 145.811C141.082 145.805 141.037 145.75 141.046 145.692C141.053 145.641 141.094 145.599 141.146 145.596H141.165Z" fill="#231F20"/>
<path fill-rule="evenodd" clip-rule="evenodd" d="M142.173 140.117L149.021 140.954C149.078 140.96 149.123 141.015 149.114 141.073C149.107 141.124 149.066 141.166 149.014 141.169H148.995L142.147 140.333C142.089 140.326 142.044 140.272 142.054 140.214C142.06 140.162 142.102 140.12 142.154 140.117H142.173Z" fill="#231F20"/>
<path fill-rule="evenodd" clip-rule="evenodd" d="M209.131 90.1284C209.485 89.591 210.315 90.0093 210.09 90.6143C208.645 94.511 207.499 98.5106 206.669 102.581C206.608 102.874 206.325 103.064 206.032 103.003C205.739 102.941 205.549 102.658 205.61 102.366C206.19 99.521 206.923 96.7087 207.802 93.9414L207.85 93.7902L207.625 94.083C207.007 94.8746 206.367 95.6468 205.707 96.403L205.459 96.6862C205.26 96.9082 204.919 96.9307 204.693 96.7312C204.471 96.5317 204.449 96.1906 204.648 95.9654C206.283 94.1313 207.782 92.1781 209.134 90.1284H209.131Z" fill="#2A4054"/>
<path fill-rule="evenodd" clip-rule="evenodd" d="M224.871 94.5603C225.572 93.8943 226.593 93.7334 227.31 94.3126C227.716 94.6311 227.954 95.1009 228.124 95.7413L228.147 95.8249C228.285 96.3494 228.375 96.8836 228.417 97.4209L228.427 97.5818L228.436 97.6687C228.475 98.1353 228.411 98.6018 228.25 99.0395L228.214 99.1328L228.198 99.1649C227.915 99.7506 227.5 100.053 226.715 100.413L226.631 100.452L223.146 102.009L223.111 102.022C222.731 102.164 222.38 102.376 222.084 102.653L222.027 102.708L222.001 102.74C221.833 102.939 221.743 103.187 221.74 103.441V103.451L221.859 103.48C223.124 103.808 224.356 104.246 225.54 104.793L225.762 104.896C226.033 105.024 226.148 105.346 226.02 105.617C225.891 105.887 225.569 106.003 225.299 105.874C223.967 105.243 222.574 104.754 221.138 104.416C220.945 104.371 220.794 104.223 220.739 104.033C220.543 103.326 220.717 102.566 221.2 102.013L221.248 101.961L221.264 101.945C221.66 101.556 222.126 101.25 222.641 101.047L222.725 101.015L226.194 99.4642L226.329 99.4031L226.454 99.3419C226.872 99.136 227.082 98.9655 227.21 98.7273L227.217 98.7112L227.239 98.6501C227.339 98.3702 227.381 98.0709 227.358 97.7717L227.352 97.6912V97.6623C227.32 97.1345 227.236 96.6101 227.098 96.0952C226.975 95.619 226.827 95.3101 226.634 95.1588C226.38 94.9561 225.955 95.0237 225.614 95.3455C225.392 95.5578 225.219 95.8024 225.019 96.1885L224.955 96.314L224.887 96.4492L224.82 96.5972L224.71 96.8417C224.697 96.8707 224.684 96.8997 224.672 96.9286C224.552 97.2021 224.234 97.3276 223.96 97.2086C223.687 97.0895 223.561 96.7709 223.68 96.4974L223.764 96.3076L223.845 96.1274L223.922 95.9601C224.231 95.3133 224.485 94.9239 224.868 94.5603H224.871Z" fill="#2A4054"/>
<path fill-rule="evenodd" clip-rule="evenodd" d="M241.481 98.347L241.687 98.3084L241.883 98.273L242.07 98.2408C243.113 98.0735 243.743 98.096 244.458 98.3953C245.603 98.8747 246.385 100.229 246.092 101.471C245.906 102.25 245.365 102.836 244.644 103.19L244.612 103.206L244.651 103.238C244.789 103.354 244.924 103.483 245.056 103.634L245.104 103.692C246.848 105.725 245.816 108.84 243.505 110.105C242.904 110.433 242.276 110.475 241.269 110.375L241.069 110.352L240.966 110.34C239.258 110.14 237.974 109.435 237.646 107.971C237.581 107.679 237.765 107.389 238.054 107.325C238.334 107.26 238.611 107.428 238.691 107.701L238.701 107.736C238.901 108.628 239.792 109.114 241.092 109.265L241.272 109.284L241.443 109.3C241.526 109.307 241.607 109.313 241.681 109.32L241.829 109.329C241.851 109.329 241.877 109.329 241.9 109.329H242.035C242.45 109.336 242.746 109.281 242.984 109.149C244.744 108.184 245.523 105.838 244.281 104.39C243.708 103.724 243.113 103.566 241.912 103.743L241.752 103.769L241.584 103.798C240.986 103.904 240.693 103.096 241.221 102.794C241.578 102.588 241.877 102.514 242.353 102.488L242.495 102.482C242.521 102.482 242.543 102.482 242.569 102.482H242.727L243.019 102.475H243.177L243.274 102.466L243.364 102.456C243.364 102.456 243.383 102.456 243.393 102.453C243.476 102.443 243.55 102.43 243.624 102.411C244.358 102.228 244.895 101.8 245.034 101.217C245.198 100.519 244.712 99.676 244.036 99.3928C243.615 99.2158 243.196 99.1804 242.53 99.2673L242.379 99.2866C242.328 99.293 242.273 99.3027 242.218 99.3123L242.048 99.3413L241.867 99.3735L241.678 99.4089C241.385 99.4668 241.102 99.2737 241.044 98.9809C240.986 98.6881 241.179 98.4049 241.472 98.347H241.481Z" fill="#2A4054"/>
<path fill-rule="evenodd" clip-rule="evenodd" d="M197.88 119.291C197.918 118.995 198.192 118.786 198.488 118.828C198.784 118.866 198.993 119.14 198.951 119.436C198.877 119.996 198.723 120.543 198.491 121.057L198.443 121.16L197.001 124.671L197.075 124.677C197.523 124.726 197.983 124.887 198.436 125.141L198.549 125.205L198.662 125.273L198.774 125.344L198.897 125.424L199.035 125.517L199.456 125.807L199.624 125.92L199.723 125.984L199.817 126.042L199.904 126.093L199.984 126.142L200.061 126.183L200.135 126.222L200.209 126.261C200.209 126.261 200.235 126.273 200.248 126.28L200.325 126.315C200.599 126.434 200.724 126.753 200.605 127.03C200.486 127.303 200.168 127.429 199.891 127.31L199.843 127.287L199.749 127.245L199.659 127.2L199.569 127.155L199.479 127.107C199.479 127.107 199.45 127.091 199.434 127.081L199.341 127.026L199.244 126.965C199.228 126.956 199.212 126.943 199.193 126.933L199.086 126.866L198.974 126.792L198.787 126.663L198.433 126.418L198.266 126.306L198.16 126.238L198.095 126.196L197.999 126.138L197.967 126.119C197.381 125.778 196.818 125.662 196.406 125.817L196.361 125.836C195.927 126.026 195.482 125.601 195.634 125.163L195.647 125.131L197.452 120.739L197.465 120.713C197.677 120.263 197.819 119.786 197.886 119.294L197.88 119.291Z" fill="#231F20"/>
<path fill-rule="evenodd" clip-rule="evenodd" d="M201.509 121.076C201.583 120.787 201.879 120.613 202.169 120.687C202.458 120.761 202.632 121.057 202.558 121.347C202.329 122.244 202.053 123.129 201.731 123.992L199.031 131.679C198.932 131.962 198.623 132.11 198.343 132.01C198.063 131.911 197.911 131.602 198.011 131.322L200.714 123.625C201.023 122.791 201.29 121.942 201.509 121.08V121.076Z" fill="#2A4054"/>
<path fill-rule="evenodd" clip-rule="evenodd" d="M215.308 123.145C215.391 122.887 215.655 122.73 215.922 122.781C217.518 123.077 219.034 123.705 220.373 124.622C220.62 124.792 220.681 125.127 220.514 125.375C220.344 125.622 220.009 125.684 219.761 125.516C218.715 124.799 217.547 124.277 216.318 123.975L216.183 123.943L216.096 124.187L215.98 124.503L215.848 124.853L215.736 125.149L215.305 126.266L215.346 126.26C215.607 126.215 215.881 126.211 216.151 126.263L216.212 126.276C216.965 126.427 217.637 126.874 218.345 127.589C218.857 128.065 219.269 128.638 219.568 129.288C220.321 131.054 219.719 133.355 218.316 134.915C217.425 135.906 216.357 136.515 215.276 136.537C214.732 136.569 214.194 136.402 213.754 136.058C212.968 135.411 212.75 134.426 212.775 132.837V132.634C212.788 132.335 213.036 132.1 213.335 132.109C213.635 132.119 213.869 132.367 213.86 132.666V132.856L213.853 133.036C213.853 133.094 213.853 133.152 213.853 133.21V133.377C213.886 134.327 214.056 134.912 214.423 135.215C214.632 135.376 214.889 135.462 215.166 135.459H215.227C215.99 135.443 216.798 134.983 217.506 134.195C218.648 132.924 219.137 131.054 218.574 129.728C218.339 129.22 218.011 128.763 217.589 128.367C217.004 127.778 216.495 127.441 215.987 127.338C215.488 127.228 214.976 127.453 214.713 127.888L214.687 127.933C214.371 128.512 213.49 128.132 213.699 127.505L213.815 127.161L213.915 126.874L214.05 126.504L214.24 125.999L214.767 124.631L214.951 124.142L215.041 123.898L215.121 123.666L215.198 123.444L215.237 123.328C215.256 123.27 215.276 123.212 215.295 123.151L215.308 123.145Z" fill="#2A4054"/>
<path fill-rule="evenodd" clip-rule="evenodd" d="M234.326 126.667C235.938 126.412 237.502 127.342 238.049 128.884C238.149 129.167 238.001 129.476 237.721 129.576C237.438 129.675 237.129 129.527 237.029 129.247C236.659 128.202 235.594 127.564 234.51 127.735C233.374 127.947 232.437 129.048 231.852 130.653C231.688 131.107 231.549 131.567 231.437 132.034L231.388 132.24L231.398 132.233C231.749 131.982 232.161 131.805 232.595 131.731L232.659 131.722C233.895 131.545 235.192 132.179 235.925 133.266C236.559 134.27 236.775 135.483 236.53 136.632L236.508 136.729C236.26 137.89 235.623 138.894 234.696 139.46C233.641 140.104 232.241 140.075 231.327 139.319C230.606 138.724 230.269 137.842 230.114 136.616C229.847 134.479 230.095 132.307 230.835 130.287C231.54 128.359 232.717 126.972 234.326 126.673V126.667ZM235.018 133.858C234.516 133.115 233.621 132.677 232.811 132.793C231.99 132.909 231.298 133.646 231.295 134.412C231.295 134.579 231.218 134.727 231.099 134.827H231.095V134.837C231.092 135.329 231.118 135.821 231.173 136.314L231.192 136.478C231.318 137.456 231.565 138.106 232.022 138.482C232.56 138.93 233.457 138.949 234.136 138.534C234.767 138.148 235.23 137.437 235.436 136.577L235.456 136.49C235.671 135.586 235.51 134.631 235.024 133.858H235.018Z" fill="#2A4054"/>
<path fill-rule="evenodd" clip-rule="evenodd" d="M247.248 138.179C247.248 138.179 238.888 139.778 238.354 134.977C238.354 134.977 238.006 132.129 240.001 132.229C240.001 132.229 236.707 131.63 237.807 128.548C238.904 125.465 241.002 126.652 241.002 126.652C241.002 126.652 236.61 126.154 239.107 121.761C239.107 121.761 239.606 119.766 242.202 121.063C242.202 121.063 239.602 119.966 241.803 116.671C242.869 115.072 245.764 116.237 247.18 116.671C249.317 117.298 251.55 117.595 253.677 118.277C256.174 119.075 255.276 124.065 253.577 123.966C253.577 123.966 255.077 127.357 251.482 128.956C251.482 128.956 253.477 131.35 249.883 133.938C249.89 133.928 251.907 137.339 247.254 138.182L247.248 138.179Z" fill="#C08F67"/>
<path fill-rule="evenodd" clip-rule="evenodd" d="M243.135 120.576C243.467 120.682 243.824 120.688 244.159 120.585C244.657 120.402 244.937 119.874 245.098 119.366C245.22 119.015 245.278 118.642 245.259 118.268C245.175 117.226 244.442 116.714 243.46 116.695C243.258 116.669 243.052 116.711 242.875 116.814C242.595 117.03 242.334 117.737 242.07 118.043C241.755 118.404 241.684 119.237 241.89 119.671C242.096 120.106 242.601 120.424 243.132 120.576H243.135Z" fill="#2A4054"/>
<path fill-rule="evenodd" clip-rule="evenodd" d="M239.913 122.275C240.025 122.053 240.196 121.866 240.405 121.734C240.736 121.567 241.129 121.689 241.486 121.811C241.908 121.959 242.352 122.127 242.625 122.477C242.867 122.818 242.963 123.243 242.889 123.658C242.815 124.067 242.677 124.463 242.474 124.826C242.365 125.09 242.201 125.325 241.995 125.525C241.58 125.885 240.946 125.891 240.434 125.685C239.845 125.451 239.063 124.968 239.066 124.299C239.06 123.581 239.543 122.86 239.91 122.275H239.913Z" fill="#2A4054"/>
<path fill-rule="evenodd" clip-rule="evenodd" d="M238.824 130.48C239.039 131.037 239.602 131.391 240.178 131.561C240.297 131.6 240.426 131.616 240.552 131.603C240.732 131.565 240.896 131.468 241.018 131.33C241.649 130.693 241.797 129.724 241.797 128.826C241.816 128.601 241.771 128.376 241.668 128.176C241.559 128.025 241.408 127.906 241.234 127.832C240.622 127.533 239.503 127.272 239.12 128.009C238.791 128.611 238.566 129.83 238.82 130.474L238.824 130.48Z" fill="#2A4054"/>
<path fill-rule="evenodd" clip-rule="evenodd" d="M239.281 135.247C239.394 135.897 239.921 136.515 240.581 136.521C240.758 136.527 240.932 136.47 241.07 136.36C241.141 136.293 241.202 136.215 241.25 136.132C241.514 135.739 241.678 135.282 241.723 134.812C241.765 134.333 241.588 133.863 241.244 133.532C241.051 133.374 240.832 133.252 240.594 133.171C239.387 132.705 239.136 134.407 239.284 135.253L239.281 135.247Z" fill="#2A4054"/>
<path fill-rule="evenodd" clip-rule="evenodd" d="M207.114 154.096C207.684 152.892 208.923 152.509 210.467 153.172C211.658 153.674 212.221 154.44 212.066 155.373C211.957 156.052 211.542 156.68 210.802 157.371L210.667 157.494C210.644 157.513 210.622 157.536 210.596 157.555L210.451 157.68C210.425 157.703 210.403 157.722 210.377 157.745L210.223 157.873C210.171 157.915 210.116 157.96 210.062 158.002L209.894 158.134L209.721 158.269L209.541 158.404L209.351 158.543L209.154 158.684C210.232 160.48 210.49 162.649 209.865 164.631C209.653 165.39 209.235 166.079 208.659 166.616L208.585 166.684L208.566 166.7C207.684 167.417 206.48 167.598 205.425 167.173C204.37 166.748 203.629 165.786 203.488 164.647C203.436 164.187 203.472 163.72 203.588 163.279L203.617 163.18C204.025 161.67 204.997 160.473 206.657 159.161L206.87 158.996L207.089 158.829C207.124 158.8 207.163 158.774 207.201 158.745L207.385 158.61L207.603 158.456L207.674 158.404L207.581 158.26C207.436 158.028 207.336 157.848 207.24 157.635C206.719 156.461 206.654 155.068 207.118 154.093L207.114 154.096ZM207.877 165.866L207.935 165.812C208.315 165.454 208.601 165.01 208.771 164.505L208.804 164.409L208.829 164.319C209.338 162.71 209.17 160.966 208.372 159.489L208.321 159.395L208.269 159.305L208.096 159.428L207.99 159.505L207.957 159.527C207.848 159.608 207.742 159.685 207.639 159.765L207.436 159.92C205.914 161.107 205.042 162.147 204.682 163.385L204.659 163.466C204.559 163.81 204.527 164.167 204.563 164.515C204.656 165.252 205.139 165.882 205.83 166.159C206.5 166.429 207.256 166.326 207.829 165.892L207.874 165.857L207.877 165.866ZM210.046 154.167C209.006 153.723 208.401 153.909 208.093 154.559C207.777 155.225 207.829 156.294 208.224 157.194C208.292 157.346 208.369 157.484 208.482 157.664L208.559 157.783L208.685 157.693L208.858 157.565L209.026 157.439L209.187 157.314L209.341 157.191L209.489 157.072C209.537 157.034 209.586 156.995 209.631 156.956L209.766 156.841C209.788 156.821 209.808 156.802 209.83 156.783L209.956 156.67C210.538 156.136 210.889 155.679 210.985 155.277L210.995 155.235L211.001 155.196C211.062 154.82 210.821 154.495 210.049 154.167H210.046Z" fill="#2A4054"/>
<path fill-rule="evenodd" clip-rule="evenodd" d="M224.868 158.254C225.721 156.899 227.033 156.339 228.404 157.005C229.18 157.385 229.765 158.061 230.039 158.894C230.164 159.306 230.222 159.734 230.213 160.152C230.213 160.712 230.116 161.195 229.9 161.858L229.849 162.009V162.015C229.849 162.073 229.843 162.134 229.823 162.192L229.81 162.228C229.769 162.331 229.723 162.43 229.678 162.53L229.63 162.627L229.543 162.871L229.482 163.055L229.447 163.164L229.415 163.267L229.386 163.367L229.36 163.463L229.334 163.557L229.263 163.833L229.193 164.104L229.122 164.364L229.051 164.619L228.98 164.866C228.967 164.908 228.958 164.947 228.945 164.985L228.874 165.22L228.803 165.449L228.732 165.671L228.662 165.886C228.649 165.922 228.639 165.957 228.626 165.993L228.552 166.198L228.478 166.398C228.465 166.43 228.452 166.462 228.44 166.495L228.366 166.684C227.848 167.965 227.233 168.843 226.313 169.609C225.589 170.208 224.787 170.555 223.973 170.542C222.934 170.526 222.149 170.053 221.103 169.017L220.952 168.866L220.797 168.705C220.772 168.679 220.746 168.65 220.717 168.621C220.511 168.406 220.521 168.062 220.736 167.856C220.952 167.65 221.296 167.659 221.502 167.875L221.64 168.02L221.776 168.155L221.904 168.284C221.969 168.345 222.03 168.406 222.091 168.464L222.21 168.573L222.326 168.676C222.944 169.21 223.436 169.445 223.986 169.455C224.511 169.465 225.077 169.22 225.614 168.773C226.435 168.087 226.985 167.257 227.471 165.97L227.542 165.774C227.564 165.706 227.59 165.639 227.613 165.571L227.683 165.359C227.696 165.323 227.706 165.288 227.719 165.249L227.79 165.027L227.86 164.796C227.873 164.757 227.883 164.718 227.896 164.676L227.967 164.435L227.989 164.358H227.983C227.677 164.516 227.339 164.612 226.992 164.638L226.911 164.644H226.879C225.402 164.631 224.427 163.727 224.112 162.315C223.822 161.021 224.125 159.409 224.858 158.247L224.868 158.254ZM227.928 157.977C227.114 157.581 226.367 157.9 225.782 158.83C225.199 159.757 224.948 161.076 225.177 162.086C225.386 163.016 225.93 163.537 226.837 163.57H226.882H226.937C227.272 163.541 227.587 163.402 227.851 163.167L227.902 163.119C228.176 162.875 228.407 162.591 228.588 162.276L228.636 162.189L228.736 161.916L228.8 161.732L228.858 161.562C228.868 161.533 228.877 161.507 228.884 161.481L228.932 161.324C229.07 160.867 229.128 160.522 229.128 160.143C229.135 159.827 229.09 159.512 229.003 159.219C228.826 158.675 228.436 158.228 227.925 157.977H227.928Z" fill="#2A4054"/>
<path d="M201.316 189.38C204.428 189.38 206.95 186.857 206.95 183.746C206.95 180.634 204.428 178.111 201.316 178.111C198.204 178.111 195.682 180.634 195.682 183.746C195.682 186.857 198.204 189.38 201.316 189.38Z" fill="#A9FF22"/>
<path d="M224.146 75.286L224.137 75.3237C224.071 75.6185 224.257 75.9111 224.551 75.9773L239.568 79.3504C239.862 79.4166 240.155 79.2313 240.221 78.9365L240.23 78.8989C240.296 78.6041 240.111 78.3115 239.816 78.2453L224.8 74.8722C224.505 74.806 224.212 74.9913 224.146 75.286Z" fill="#A9FF22"/>
<path fill-rule="evenodd" clip-rule="evenodd" d="M150.14 162.089C158.484 168.029 175.284 175.256 178.057 183.458C179.788 188.574 180.535 194.797 182.263 199.914L199.838 251.88L199.919 252.118L218.109 245.049L216.207 238.919C209.373 216.865 206.081 188.339 197.789 166.973C195.295 160.547 181.594 150.482 176.181 145.488C173.681 143.178 171.178 140.868 168.678 138.56C167.68 137.666 148.29 160.773 150.14 162.092V162.089Z" fill="#C08F67"/>
<path fill-rule="evenodd" clip-rule="evenodd" d="M196.098 169.315C196.369 169.186 196.69 169.299 196.822 169.566C197.402 170.763 196.558 172.25 195.252 172.723C194.518 172.99 193.836 173.012 192.842 172.855L192.652 172.822L192.456 172.787L192.25 172.745L192.034 172.7C191.999 172.694 191.96 172.684 191.925 172.678C191.632 172.613 191.449 172.327 191.51 172.034C191.574 171.741 191.861 171.558 192.153 171.619L192.359 171.664L192.556 171.703C192.588 171.709 192.62 171.715 192.649 171.722L192.832 171.754C192.89 171.764 192.948 171.773 193.006 171.783L193.17 171.809C193.897 171.912 194.396 171.883 194.882 171.706C195.619 171.439 196.092 170.628 195.863 170.074L195.847 170.039C195.719 169.769 195.831 169.447 196.098 169.315Z" fill="#231F20"/>
<path d="M257.165 95.3005L253.804 107.712C253.727 107.998 253.896 108.293 254.183 108.371C254.469 108.448 254.764 108.279 254.842 107.993L258.202 95.5814C258.28 95.2949 258.111 94.9998 257.824 94.9222C257.538 94.8447 257.243 95.014 257.165 95.3005Z" fill="#A9FF22"/>
<path d="M94.6143 65.372C112.67 65.372 127.307 50.738 127.307 32.686C127.307 14.634 112.67 0 94.6143 0C76.5588 0 61.9219 14.634 61.9219 32.686C61.9219 50.738 76.5588 65.372 94.6143 65.372Z" fill="#2A4054"/>
<path d="M112.297 42.298C113.143 40.1774 112.712 37.9443 111.084 35.9976C108.561 32.532 102.66 32.133 96.4173 31.7147C96.1953 31.6986 95.9765 31.6858 95.7545 31.6697C95.8961 28.6997 96.3176 25.6718 96.9933 22.7114C97.0062 22.7147 97.0158 22.7179 97.0287 22.7243C101.685 24.2753 105.269 26.8881 105.305 26.9138L108.394 22.7275C108.227 22.602 104.211 19.661 98.8113 17.8333C98.6762 17.7883 98.5411 17.7432 98.4027 17.6982C98.9208 16.1601 99.5096 14.6606 100.16 13.2223C100.835 11.8966 100.243 10.2523 98.8725 9.66343C97.5564 9.09067 96.0215 9.69561 95.4488 11.0117C95.407 11.1082 95.3233 11.2948 95.2847 11.3914C94.5993 13.0839 94.0169 14.8183 93.5246 16.5784C88.1831 15.8834 83.4916 17.1318 79.7526 20.282C78.1919 21.5305 75.7625 24.1337 76.715 27.6764C78.0825 32.7669 85.5799 35.6951 89.9818 36.3451C90.4902 36.4191 91.0179 36.4867 91.5585 36.5414C91.7419 38.4785 92.0508 40.4027 92.4885 42.3012C89.9593 41.3262 87.34 39.5725 85.3161 36.477L80.9624 39.3215C83.2663 42.8482 86.5549 45.535 90.4741 47.0924C90.6447 47.16 90.812 47.2243 90.9825 47.2855C92.0669 47.6845 93.1835 47.9966 94.3258 48.2251C94.5092 48.6788 94.7055 49.1679 94.8052 49.4124C95.098 50.0334 95.4102 50.751 95.7126 51.3592C96.0956 52.0767 96.6619 53.1901 97.0898 53.8658L97.8299 55.0885C99.1203 57.0224 101.916 55.2784 100.777 53.2737C100.546 52.849 100.069 51.9931 99.8346 51.5619C99.6673 51.2369 99.146 50.1171 98.9851 49.805C98.8274 49.4478 98.6665 49.052 98.5089 48.6659C99.3873 48.6788 100.272 48.6402 101.151 48.5533C106.708 47.9966 110.974 45.5994 112.291 42.3012L112.297 42.298ZM90.7444 31.1999C88.7816 30.9103 86.5453 30.1413 84.769 29.147C82.7998 28.0433 81.9149 26.9685 81.7411 26.3282C81.5609 25.6621 82.3396 24.8738 83.025 24.33L83.0862 24.2785C85.5735 22.1741 88.6722 21.3021 92.334 21.6721C92.3083 21.804 92.2857 21.936 92.26 22.0647C91.7098 25.0958 91.388 28.1881 91.3494 31.2803C91.1434 31.2546 90.9407 31.2256 90.7444 31.1967V31.1999ZM96.7938 43.3373C96.279 41.2361 95.9604 39.0609 95.806 36.8857C95.8928 36.8921 95.9797 36.8953 96.0666 36.9018C98.6601 37.0755 101.344 37.2589 103.484 37.6837C106.112 38.2082 106.756 38.8807 106.888 39.0738L106.968 39.1864L107.058 39.2926C107.628 39.9522 107.519 40.2321 107.464 40.3673C107.065 41.3712 104.681 42.9672 100.639 43.3727C99.8635 43.4499 98.4767 43.5239 96.7938 43.3341V43.3373Z" fill="#A9FF22"/>
<path fill-rule="evenodd" clip-rule="evenodd" d="M49.983 130.565L14.0664 110.695L17.2005 105.408L51.8622 127.392L49.983 130.565Z" fill="#A9FF22"/>
<path fill-rule="evenodd" clip-rule="evenodd" d="M49.5238 115.097L30.7064 93.3868L32.3442 89.7636L46.0615 88.9045L46.2224 88.8788L24.9434 60.2053L30.3041 56.3086L54.1477 89.754L51.8599 94.394L36.8394 94.2267L37.01 94.1784L52.098 112.948L49.5238 115.097Z" fill="#A9FF22"/>
<path fill-rule="evenodd" clip-rule="evenodd" d="M13.3122 70.2612C21.9551 71.7284 25.7649 82.0028 20.1725 88.7536C14.58 95.5045 3.77797 93.6671 0.727539 85.449C-2.3229 77.2308 4.66929 68.7939 13.3122 70.2612Z" fill="#A9FF22"/>
</svg>
